<?xml version="1.0" encoding="UTF-8" standalone="no"?> 
<!DOCTYPE svg PUBLIC "-//W3C//Dtd SVG 1.1//EN" "http://www.w3.org/Graphics/SVG/1.1/Dtd/svg11.dtd">
<svg width="282.0" height="462.0" version="1.1" xmlns="http://www.w3.org/2000/svg" xmlns:xlink="http://www.w3.org/1999/xlink">
<!-- Created by FidoCadJ ver. 0.24.9 gamma, export filter by Davide Bucci -->
<g transform="translate(198.0,27.0) scale(1.0,1.0)"><text x="0.0" y="14.0" font-family="Courier New, monospace" font-size="15.93" font-style="" font-weight="" xml:space="preserve" fill="#000000">I</text>
</g>
<g transform="translate(207.0,39.0) scale(1.0,1.0)"><text x="0.0" y="9.0" font-family="Courier New, monospace" font-size="10.79" font-style="" font-weight="" xml:space="preserve" fill="#000000">2</text>
</g>
<g transform="translate(69.0,24.0) scale(1.0,1.0)"><text x="0.0" y="14.0" font-family="Courier New, monospace" font-size="15.93" font-style="" font-weight="" xml:space="preserve" fill="#000000">I</text>
</g>
<g transform="translate(78.0,36.0) scale(1.0,1.0)"><text x="0.0" y="9.0" font-family="Courier New, monospace" font-size="10.79" font-style="" font-weight="" xml:space="preserve" fill="#000000">1</text>
</g>
<g transform="translate(192.0,81.0) scale(1.0,1.0)"><text x="0.0" y="9.0" font-family="Courier New, monospace" font-size="10.79" font-style="" font-weight="" xml:space="preserve" fill="#000000">3</text>
</g>
<g transform="translate(183.0,69.0) scale(1.0,1.0)"><text x="0.0" y="14.0" font-family="Courier New, monospace" font-size="15.93" font-style="" font-weight="" xml:space="preserve" fill="#000000">I</text>
</g>
<g transform="translate(99.0,9.0) scale(1.0,1.0)"><text x="0.0" y="14.0" font-family="Courier New, monospace" font-size="15.93" font-style="" font-weight="" xml:space="preserve" fill="#000000">I</text>
</g>
<g transform="translate(108.0,21.0) scale(1.0,1.0)"><text x="0.0" y="9.0" font-family="Courier New, monospace" font-size="10.79" font-style="" font-weight="" xml:space="preserve" fill="#000000">4</text>
</g>
<line x1="177.0" y1="51.0" x2="177.0" y2="81.0" style="stroke:#000000;stroke-dashoffset: 0.0;stroke-width:1.5;stroke-linejoin:round;stroke-linecap:round;fill-rule: evenodd;" fill="none"/>
<line x1="69.0" y1="51.0" x2="120.0" y2="51.0" style="stroke:#000000;stroke-width:1.5;stroke-linejoin:round;stroke-linecap:round;fill-rule: evenodd;" fill="none"/>
<line x1="210.0" y1="51.0" x2="225.0" y2="51.0" style="stroke:#000000;stroke-dasharray: 3.0,3.0;stroke-width:1.5;stroke-linejoin:round;stroke-linecap:round;fill-rule: evenodd;" fill="none"/>
<line x1="96.0" y1="24.0" x2="96.0" y2="9.0" style="stroke:#000000;stroke-dasharray: 3.0,3.0;stroke-width:1.5;stroke-linejoin:round;stroke-linecap:round;fill-rule: evenodd;" fill="none"/>
<line x1="177.0" y1="84.0" x2="177.0" y2="99.0" style="stroke:#000000;stroke-dasharray: 3.0,3.0;stroke-width:1.5;stroke-linejoin:round;stroke-linecap:round;fill-rule: evenodd;" fill="none"/>
<line x1="54.0" y1="51.0" x2="69.0" y2="51.0" style="stroke:#000000;stroke-dasharray: 3.0,3.0;stroke-width:1.5;stroke-linejoin:round;stroke-linecap:round;fill-rule: evenodd;" fill="none"/>
<line x1="96.0" y1="21.0" x2="96.0" y2="51.0" style="stroke:#000000;stroke-width:1.5;stroke-linejoin:round;stroke-linecap:round;fill-rule: evenodd;" fill="none"/>
<line x1="150.0" y1="51.0" x2="210.0" y2="51.0" style="stroke:#000000;stroke-width:1.5;stroke-linejoin:round;stroke-linecap:round;fill-rule: evenodd;" fill="none"/>
<line x1="69.0" y1="180.0" x2="120.0" y2="180.0" style="stroke:#000000;stroke-width:1.5;stroke-linejoin:round;stroke-linecap:round;fill-rule: evenodd;" fill="none"/>
<line x1="210.0" y1="180.0" x2="225.0" y2="180.0" style="stroke:#000000;stroke-dasharray: 3.0,3.0;stroke-width:1.5;stroke-linejoin:round;stroke-linecap:round;fill-rule: evenodd;" fill="none"/>
<line x1="177.0" y1="153.0" x2="177.0" y2="138.0" style="stroke:#000000;stroke-dasharray: 3.0,3.0;stroke-width:1.5;stroke-linejoin:round;stroke-linecap:round;fill-rule: evenodd;" fill="none"/>
<line x1="96.0" y1="213.0" x2="96.0" y2="228.0" style="stroke:#000000;stroke-dasharray: 3.0,3.0;stroke-width:1.5;stroke-linejoin:round;stroke-linecap:round;fill-rule: evenodd;" fill="none"/>
<line x1="54.0" y1="180.0" x2="69.0" y2="180.0" style="stroke:#000000;stroke-dasharray: 3.0,3.0;stroke-width:1.5;stroke-linejoin:round;stroke-linecap:round;fill-rule: evenodd;" fill="none"/>
<line x1="177.0" y1="150.0" x2="177.0" y2="180.0" style="stroke:#000000;stroke-width:1.5;stroke-linejoin:round;stroke-linecap:round;fill-rule: evenodd;" fill="none"/>
<line x1="150.0" y1="180.0" x2="210.0" y2="180.0" style="stroke:#000000;stroke-width:1.5;stroke-linejoin:round;stroke-linecap:round;fill-rule: evenodd;" fill="none"/>
<g transform="translate(102.0,198.0) scale(1.0,1.0)"><text x="0.0" y="14.0" font-family="Courier New, monospace" font-size="15.93" font-style="" font-weight="" xml:space="preserve" fill="#000000">I</text>
</g>
<g transform="translate(180.0,138.0) scale(1.0,1.0)"><text x="0.0" y="14.0" font-family="Courier New, monospace" font-size="15.93" font-style="" font-weight="" xml:space="preserve" fill="#000000">I</text>
</g>
<g transform="translate(189.0,150.0) scale(1.0,1.0)"><text x="0.0" y="9.0" font-family="Courier New, monospace" font-size="10.79" font-style="" font-weight="" xml:space="preserve" fill="#000000">4</text>
</g>
<line x1="96.0" y1="180.0" x2="96.0" y2="210.0" style="stroke:#000000;stroke-width:1.5;stroke-linejoin:round;stroke-linecap:round;fill-rule: evenodd;" fill="none"/>
<g transform="translate(78.0,165.0) scale(1.0,1.0)"><text x="0.0" y="9.0" font-family="Courier New, monospace" font-size="10.79" font-style="" font-weight="" xml:space="preserve" fill="#000000">1</text>
</g>
<g transform="translate(111.0,210.0) scale(1.0,1.0)"><text x="0.0" y="9.0" font-family="Courier New, monospace" font-size="10.79" font-style="" font-weight="" xml:space="preserve" fill="#000000">3</text>
</g>
<g transform="translate(198.0,156.0) scale(1.0,1.0)"><text x="0.0" y="14.0" font-family="Courier New, monospace" font-size="15.93" font-style="" font-weight="" xml:space="preserve" fill="#000000">I</text>
</g>
<g transform="translate(207.0,168.0) scale(1.0,1.0)"><text x="0.0" y="9.0" font-family="Courier New, monospace" font-size="10.79" font-style="" font-weight="" xml:space="preserve" fill="#000000">2</text>
</g>
<g transform="translate(69.0,153.0) scale(1.0,1.0)"><text x="0.0" y="14.0" font-family="Courier New, monospace" font-size="15.93" font-style="" font-weight="" xml:space="preserve" fill="#000000">I</text>
</g>
<g transform="translate(111.0,294.0) scale(1.0,1.0)"><text x="0.0" y="9.0" font-family="Courier New, monospace" font-size="10.79" font-style="" font-weight="" xml:space="preserve" fill="#000000">4</text>
</g>
<line x1="99.0" y1="405.0" x2="99.0" y2="435.0" style="stroke:#000000;stroke-width:1.5;stroke-linejoin:round;stroke-linecap:round;fill-rule: evenodd;" fill="none"/>
<g transform="translate(81.0,375.0) scale(1.0,1.0)"><text x="0.0" y="9.0" font-family="Courier New, monospace" font-size="10.79" font-style="" font-weight="" xml:space="preserve" fill="#000000">1</text>
</g>
<g transform="translate(114.0,435.0) scale(1.0,1.0)"><text x="0.0" y="9.0" font-family="Courier New, monospace" font-size="10.79" font-style="" font-weight="" xml:space="preserve" fill="#000000">3</text>
</g>
<g transform="translate(204.0,372.0) scale(1.0,1.0)"><text x="0.0" y="14.0" font-family="Courier New, monospace" font-size="15.93" font-style="" font-weight="" xml:space="preserve" fill="#000000">I</text>
</g>
<g transform="translate(213.0,378.0) scale(1.0,1.0)"><text x="0.0" y="9.0" font-family="Courier New, monospace" font-size="10.79" font-style="" font-weight="" xml:space="preserve" fill="#000000">2</text>
</g>
<g transform="translate(72.0,363.0) scale(1.0,1.0)"><text x="0.0" y="14.0" font-family="Courier New, monospace" font-size="15.93" font-style="" font-weight="" xml:space="preserve" fill="#000000">I</text>
</g>
<line x1="99.0" y1="300.0" x2="99.0" y2="285.0" style="stroke:#000000;stroke-dasharray: 3.0,3.0;stroke-width:1.5;stroke-linejoin:round;stroke-linecap:round;fill-rule: evenodd;" fill="none"/>
<line x1="99.0" y1="438.0" x2="99.0" y2="453.0" style="stroke:#000000;stroke-dasharray: 3.0,3.0;stroke-width:1.5;stroke-linejoin:round;stroke-linecap:round;fill-rule: evenodd;" fill="none"/>
<line x1="57.0" y1="390.0" x2="72.0" y2="390.0" style="stroke:#000000;stroke-dasharray: 3.0,3.0;stroke-width:1.5;stroke-linejoin:round;stroke-linecap:round;fill-rule: evenodd;" fill="none"/>
<line x1="99.0" y1="297.0" x2="99.0" y2="375.0" style="stroke:#000000;stroke-width:1.5;stroke-linejoin:round;stroke-linecap:round;fill-rule: evenodd;" fill="none"/>
<line x1="99.0" y1="390.0" x2="216.0" y2="390.0" style="stroke:#000000;stroke-width:1.5;stroke-linejoin:round;stroke-linecap:round;fill-rule: evenodd;" fill="none"/>
<g transform="translate(105.0,423.0) scale(1.0,1.0)"><text x="0.0" y="14.0" font-family="Courier New, monospace" font-size="15.93" font-style="" font-weight="" xml:space="preserve" fill="#000000">I</text>
</g>
<g transform="translate(102.0,285.0) scale(1.0,1.0)"><text x="0.0" y="14.0" font-family="Courier New, monospace" font-size="15.93" font-style="" font-weight="" xml:space="preserve" fill="#000000">I</text>
</g>
<line x1="72.0" y1="390.0" x2="99.0" y2="390.0" style="stroke:#000000;stroke-width:1.5;stroke-linejoin:round;stroke-linecap:round;fill-rule: evenodd;" fill="none"/>
<line x1="216.0" y1="390.0" x2="231.0" y2="390.0" style="stroke:#000000;stroke-dasharray: 3.0,3.0;stroke-width:1.5;stroke-linejoin:round;stroke-linecap:round;fill-rule: evenodd;" fill="none"/>
<line x1="99.0" y1="375.0" x2="99.0" y2="384.0" style="stroke:#000000;stroke-width:1.5;stroke-linejoin:round;stroke-linecap:round;fill-rule: evenodd;" fill="none"/>
<line x1="99.0" y1="405.0" x2="99.0" y2="396.0" style="stroke:#000000;stroke-width:1.5;stroke-linejoin:round;stroke-linecap:round;fill-rule: evenodd;" fill="none"/>
<path d="M 99.0,384.0 C 105.0,387.0 105.0,393.0 99.0,396.0" style="stroke:#000000;stroke-width:1.5;stroke-linejoin:round;stroke-linecap:round;fill-rule: evenodd;" fill="none"/>
<circle cx="135.0" cy="51.0" r="3.0" style="stroke:#000000;stroke-width:0.33" fill="#000000"/>
<ellipse cx="135.0" cy="51.0" rx="15.0" ry="15.0" style="stroke:#000000;stroke-width:1.5;stroke-linejoin:round;stroke-linecap:round;fill-rule: evenodd;" fill="none"/>
<line x1="126.0" y1="354.0" x2="99.0" y2="354.0" style="stroke:#000000;stroke-width:1.5;stroke-linejoin:round;stroke-linecap:round;fill-rule: evenodd;" fill="none"/>
<ellipse cx="135.0" cy="180.0" rx="15.0" ry="15.0" style="stroke:#000000;stroke-width:1.5;stroke-linejoin:round;stroke-linecap:round;fill-rule: evenodd;" fill="none"/>
<circle cx="135.0" cy="180.0" r="3.0" style="stroke:#000000;stroke-width:0.33" fill="#000000"/>
<circle cx="141.0" cy="354.0" r="3.0" style="stroke:#000000;stroke-width:0.33" fill="#000000"/>
<ellipse cx="141.0" cy="354.0" rx="15.0" ry="15.0" style="stroke:#000000;stroke-width:1.5;stroke-linejoin:round;stroke-linecap:round;fill-rule: evenodd;" fill="none"/>
<line x1="156.0" y1="354.0" x2="180.0" y2="354.0" style="stroke:#000000;stroke-width:1.5;stroke-linejoin:round;stroke-linecap:round;fill-rule: evenodd;" fill="none"/>
<line x1="180.0" y1="390.0" x2="180.0" y2="354.0" style="stroke:#000000;stroke-width:1.5;stroke-linejoin:round;stroke-linecap:round;fill-rule: evenodd;" fill="none"/>
<circle cx="99.0" cy="354.0" r="3.0" style="stroke:#000000;stroke-width:0.33" fill="#000000"/>
<circle cx="180.0" cy="390.0" r="3.0" style="stroke:#000000;stroke-width:0.33" fill="#000000"/>
<line x1="9.0" y1="126.0" x2="273.0" y2="126.0" style="stroke:#000000;stroke-width:1.5;stroke-linejoin:round;stroke-linecap:round;fill-rule: evenodd;" fill="none"/>
<polygon points="195.0,180.0 204.0,174.0 204.0,186.0" style="stroke:#008000;stroke-width:1.5;stroke-linejoin:round;stroke-linecap:round;fill-rule: evenodd;" fill="#008000"/>
<line x1="210.0" y1="180.0" x2="204.0" y2="180.0" style="stroke:#008000;stroke-width:1.5;stroke-linejoin:round;stroke-linecap:round;fill-rule: evenodd;" fill="none"/>
<polygon points="96.0,39.0 90.0,30.0 102.0,30.0" style="stroke:#008000;stroke-width:1.5;stroke-linejoin:round;stroke-linecap:round;fill-rule: evenodd;" fill="#008000"/>
<line x1="96.0" y1="24.0" x2="96.0" y2="30.0" style="stroke:#008000;stroke-width:1.5;stroke-linejoin:round;stroke-linecap:round;fill-rule: evenodd;" fill="none"/>
<polygon points="177.0,168.0 171.0,159.0 183.0,159.0" style="stroke:#008000;stroke-width:1.5;stroke-linejoin:round;stroke-linecap:round;fill-rule: evenodd;" fill="#008000"/>
<line x1="177.0" y1="153.0" x2="177.0" y2="159.0" style="stroke:#008000;stroke-width:1.5;stroke-linejoin:round;stroke-linecap:round;fill-rule: evenodd;" fill="none"/>
<polygon points="84.0,180.0 75.0,186.0 75.0,174.0" style="stroke:#008000;stroke-width:1.5;stroke-linejoin:round;stroke-linecap:round;fill-rule: evenodd;" fill="#008000"/>
<line x1="69.0" y1="180.0" x2="75.0" y2="180.0" style="stroke:#008000;stroke-width:1.5;stroke-linejoin:round;stroke-linecap:round;fill-rule: evenodd;" fill="none"/>
<polygon points="177.0,69.0 183.0,78.0 171.0,78.0" style="stroke:#008000;stroke-width:1.5;stroke-linejoin:round;stroke-linecap:round;fill-rule: evenodd;" fill="#008000"/>
<line x1="177.0" y1="84.0" x2="177.0" y2="78.0" style="stroke:#008000;stroke-width:1.5;stroke-linejoin:round;stroke-linecap:round;fill-rule: evenodd;" fill="none"/>
<polygon points="96.0,198.0 102.0,207.0 90.0,207.0" style="stroke:#008000;stroke-width:1.5;stroke-linejoin:round;stroke-linecap:round;fill-rule: evenodd;" fill="#008000"/>
<line x1="96.0" y1="213.0" x2="96.0" y2="207.0" style="stroke:#008000;stroke-width:1.5;stroke-linejoin:round;stroke-linecap:round;fill-rule: evenodd;" fill="none"/>
<polygon points="201.0,390.0 210.0,384.0 210.0,396.0" style="stroke:#008000;stroke-width:1.5;stroke-linejoin:round;stroke-linecap:round;fill-rule: evenodd;" fill="#008000"/>
<line x1="216.0" y1="390.0" x2="210.0" y2="390.0" style="stroke:#008000;stroke-width:1.5;stroke-linejoin:round;stroke-linecap:round;fill-rule: evenodd;" fill="none"/>
<polygon points="84.0,51.0 75.0,57.0 75.0,45.0" style="stroke:#008000;stroke-width:1.5;stroke-linejoin:round;stroke-linecap:round;fill-rule: evenodd;" fill="#008000"/>
<line x1="69.0" y1="51.0" x2="75.0" y2="51.0" style="stroke:#008000;stroke-width:1.5;stroke-linejoin:round;stroke-linecap:round;fill-rule: evenodd;" fill="none"/>
<polygon points="195.0,51.0 204.0,45.0 204.0,57.0" style="stroke:#008000;stroke-width:1.5;stroke-linejoin:round;stroke-linecap:round;fill-rule: evenodd;" fill="#008000"/>
<line x1="210.0" y1="51.0" x2="204.0" y2="51.0" style="stroke:#008000;stroke-width:1.5;stroke-linejoin:round;stroke-linecap:round;fill-rule: evenodd;" fill="none"/>
<polygon points="99.0,423.0 105.0,432.0 93.0,432.0" style="stroke:#008000;stroke-width:1.5;stroke-linejoin:round;stroke-linecap:round;fill-rule: evenodd;" fill="#008000"/>
<line x1="99.0" y1="438.0" x2="99.0" y2="432.0" style="stroke:#008000;stroke-width:1.5;stroke-linejoin:round;stroke-linecap:round;fill-rule: evenodd;" fill="none"/>
<polygon points="99.0,315.0 93.0,306.0 105.0,306.0" style="stroke:#008000;stroke-width:1.5;stroke-linejoin:round;stroke-linecap:round;fill-rule: evenodd;" fill="#008000"/>
<line x1="99.0" y1="300.0" x2="99.0" y2="306.0" style="stroke:#008000;stroke-width:1.5;stroke-linejoin:round;stroke-linecap:round;fill-rule: evenodd;" fill="none"/>
<polygon points="87.0,390.0 78.0,396.0 78.0,384.0" style="stroke:#008000;stroke-width:1.5;stroke-linejoin:round;stroke-linecap:round;fill-rule: evenodd;" fill="#008000"/>
<line x1="72.0" y1="390.0" x2="78.0" y2="390.0" style="stroke:#008000;stroke-width:1.5;stroke-linejoin:round;stroke-linecap:round;fill-rule: evenodd;" fill="none"/>
</svg>