<?xml version="1.0" encoding="UTF-8" standalone="no"?> 
<!DOCTYPE svg PUBLIC "-//W3C//Dtd SVG 1.1//EN" "http://www.w3.org/Graphics/SVG/1.1/Dtd/svg11.dtd">
<svg width="738.0" height="438.0" version="1.1" xmlns="http://www.w3.org/2000/svg" xmlns:xlink="http://www.w3.org/1999/xlink">
<!-- Created by FidoCadJ ver. 0.24.9 gamma, export filter by Davide Bucci -->
<line x1="279.0" y1="39.0" x2="279.0" y2="45.0" style="stroke:#000000;stroke-dashoffset: 0.0;stroke-width:1.5;stroke-linejoin:round;stroke-linecap:round;fill-rule: evenodd;" fill="none"/>
<line x1="279.0" y1="63.0" x2="279.0" y2="69.0" style="stroke:#000000;stroke-width:1.5;stroke-linejoin:round;stroke-linecap:round;fill-rule: evenodd;" fill="none"/>
<rect x="273.0" y="45.0" rx="0" ry="0" width="12.0" height="18.0" style="stroke:#000000;stroke-width:1.5;stroke-linejoin:round;stroke-linecap:round;fill-rule: evenodd;" fill="none"/>
<circle cx="279.0" cy="84.0" r="3.0" style="stroke:#000000;stroke-width:0.33" fill="#000000"/>
<line x1="279.0" y1="39.0" x2="279.0" y2="33.0" style="stroke:#000000;stroke-width:1.5;stroke-linejoin:round;stroke-linecap:round;fill-rule: evenodd;" fill="none"/>
<ellipse cx="279.0" cy="27.0" rx="6.0" ry="6.0" style="stroke:#000000;stroke-width:1.5;stroke-linejoin:round;stroke-linecap:round;fill-rule: evenodd;" fill="none"/>
<line x1="279.0" y1="30.0" x2="279.0" y2="24.0" style="stroke:#000000;stroke-width:1.5;stroke-linejoin:round;stroke-linecap:round;fill-rule: evenodd;" fill="none"/>
<line x1="276.0" y1="27.0" x2="282.0" y2="27.0" style="stroke:#000000;stroke-width:1.5;stroke-linejoin:round;stroke-linecap:round;fill-rule: evenodd;" fill="none"/>
<line x1="279.0" y1="84.0" x2="279.0" y2="69.0" style="stroke:#000000;stroke-width:1.5;stroke-linejoin:round;stroke-linecap:round;fill-rule: evenodd;" fill="none"/>
<g transform="translate(294.0,54.0) scale(1.0,1.0)"><text x="0.0" y="14.0" font-family="Courier New, monospace" font-size="15.93" font-style="" font-weight="" xml:space="preserve" fill="#000000">1k</text>
</g>
<line x1="189.0" y1="129.0" x2="204.0" y2="129.0" style="stroke:#000000;stroke-width:1.5;stroke-linejoin:round;stroke-linecap:round;fill-rule: evenodd;" fill="none"/>
<line x1="189.0" y1="159.0" x2="204.0" y2="159.0" style="stroke:#000000;stroke-width:1.5;stroke-linejoin:round;stroke-linecap:round;fill-rule: evenodd;" fill="none"/>
<line x1="252.0" y1="144.0" x2="264.0" y2="144.0" style="stroke:#000000;stroke-width:1.5;stroke-linejoin:round;stroke-linecap:round;fill-rule: evenodd;" fill="none"/>
<line x1="207.0" y1="159.0" x2="213.0" y2="159.0" style="stroke:#000000;stroke-width:1.5;stroke-linejoin:round;stroke-linecap:round;fill-rule: evenodd;" fill="none"/>
<line x1="207.0" y1="129.0" x2="213.0" y2="129.0" style="stroke:#000000;stroke-width:1.5;stroke-linejoin:round;stroke-linecap:round;fill-rule: evenodd;" fill="none"/>
<line x1="210.0" y1="126.0" x2="210.0" y2="132.0" style="stroke:#000000;stroke-width:1.5;stroke-linejoin:round;stroke-linecap:round;fill-rule: evenodd;" fill="none"/>
<polygon points="204.0,114.0 204.0,174.0 252.0,144.0 " style="stroke:#000000;stroke-width:1.5;stroke-linejoin:round;stroke-linecap:round;fill-rule: evenodd;" fill="none"/>
<line x1="264.0" y1="144.0" x2="294.0" y2="144.0" style="stroke:#000000;stroke-width:1.5;stroke-linejoin:round;stroke-linecap:round;fill-rule: evenodd;" fill="none"/>
<g transform="translate(294.0,144.0) scale(1.0,1.0)"><text x="0.0" y="14.0" font-family="Courier New, monospace" font-size="15.93" font-style="" font-weight="" xml:space="preserve" fill="#000000">D1</text>
</g>
<line x1="189.0" y1="129.0" x2="129.0" y2="129.0" style="stroke:#000000;stroke-width:1.5;stroke-linejoin:round;stroke-linecap:round;fill-rule: evenodd;" fill="none"/>
<line x1="129.0" y1="129.0" x2="129.0" y2="114.0" style="stroke:#000000;stroke-width:1.5;stroke-linejoin:round;stroke-linecap:round;fill-rule: evenodd;" fill="none"/>
<line x1="177.0" y1="84.0" x2="174.0" y2="84.0" style="stroke:#000000;stroke-width:1.5;stroke-linejoin:round;stroke-linecap:round;fill-rule: evenodd;" fill="none"/>
<line x1="198.0" y1="87.0" x2="192.0" y2="81.0" style="stroke:#000000;stroke-width:1.5;stroke-linejoin:round;stroke-linecap:round;fill-rule: evenodd;" fill="none"/>
<line x1="192.0" y1="81.0" x2="186.0" y2="87.0" style="stroke:#000000;stroke-width:1.5;stroke-linejoin:round;stroke-linecap:round;fill-rule: evenodd;" fill="none"/>
<line x1="186.0" y1="87.0" x2="180.0" y2="81.0" style="stroke:#000000;stroke-width:1.5;stroke-linejoin:round;stroke-linecap:round;fill-rule: evenodd;" fill="none"/>
<line x1="180.0" y1="81.0" x2="177.0" y2="84.0" style="stroke:#000000;stroke-width:1.5;stroke-linejoin:round;stroke-linecap:round;fill-rule: evenodd;" fill="none"/>
<line x1="210.0" y1="87.0" x2="204.0" y2="81.0" style="stroke:#000000;stroke-width:1.5;stroke-linejoin:round;stroke-linecap:round;fill-rule: evenodd;" fill="none"/>
<line x1="204.0" y1="81.0" x2="198.0" y2="87.0" style="stroke:#000000;stroke-width:1.5;stroke-linejoin:round;stroke-linecap:round;fill-rule: evenodd;" fill="none"/>
<line x1="213.0" y1="84.0" x2="210.0" y2="87.0" style="stroke:#000000;stroke-width:1.5;stroke-linejoin:round;stroke-linecap:round;fill-rule: evenodd;" fill="none"/>
<line x1="219.0" y1="84.0" x2="213.0" y2="84.0" style="stroke:#000000;stroke-width:1.5;stroke-linejoin:round;stroke-linecap:round;fill-rule: evenodd;" fill="none"/>
<g transform="translate(159.0,54.0) scale(1.0,1.0)"><text x="0.0" y="14.0" font-family="Courier New, monospace" font-size="15.93" font-style="" font-weight="" xml:space="preserve" fill="#000000">100k</text>
</g>
<line x1="219.0" y1="84.0" x2="249.0" y2="84.0" style="stroke:#000000;stroke-width:1.5;stroke-linejoin:round;stroke-linecap:round;fill-rule: evenodd;" fill="none"/>
<line x1="279.0" y1="84.0" x2="279.0" y2="144.0" style="stroke:#000000;stroke-width:1.5;stroke-linejoin:round;stroke-linecap:round;fill-rule: evenodd;" fill="none"/>
<line x1="141.0" y1="162.0" x2="117.0" y2="162.0" style="stroke:#000000;stroke-width:1.5;stroke-linejoin:round;stroke-linecap:round;fill-rule: evenodd;" fill="none"/>
<line x1="117.0" y1="171.0" x2="141.0" y2="171.0" style="stroke:#000000;stroke-width:1.5;stroke-linejoin:round;stroke-linecap:round;fill-rule: evenodd;" fill="none"/>
<line x1="129.0" y1="171.0" x2="129.0" y2="189.0" style="stroke:#000000;stroke-width:1.5;stroke-linejoin:round;stroke-linecap:round;fill-rule: evenodd;" fill="none"/>
<line x1="129.0" y1="162.0" x2="129.0" y2="144.0" style="stroke:#000000;stroke-width:1.5;stroke-linejoin:round;stroke-linecap:round;fill-rule: evenodd;" fill="none"/>
<line x1="84.0" y1="180.0" x2="84.0" y2="189.0" style="stroke:#000000;stroke-width:1.5;stroke-linejoin:round;stroke-linecap:round;fill-rule: evenodd;" fill="none"/>
<line x1="84.0" y1="144.0" x2="84.0" y2="153.0" style="stroke:#000000;stroke-width:1.5;stroke-linejoin:round;stroke-linecap:round;fill-rule: evenodd;" fill="none"/>
<path d="M 81.0,159.0 C 75.0,159.0 75.0,162.0 81.0,162.0" style="stroke:#000000;stroke-width:1.5;stroke-linejoin:round;stroke-linecap:round;fill-rule: evenodd;" fill="none"/>
<path d="M 81.0,159.0 C 93.0,159.0 93.0,168.0 81.0,168.0" style="stroke:#000000;stroke-width:1.5;stroke-linejoin:round;stroke-linecap:round;fill-rule: evenodd;" fill="none"/>
<path d="M 81.0,165.0 C 93.0,165.0 93.0,174.0 81.0,174.0" style="stroke:#000000;stroke-width:1.5;stroke-linejoin:round;stroke-linecap:round;fill-rule: evenodd;" fill="none"/>
<path d="M 81.0,171.0 C 93.0,171.0 93.0,180.0 84.0,180.0" style="stroke:#000000;stroke-width:1.5;stroke-linejoin:round;stroke-linecap:round;fill-rule: evenodd;" fill="none"/>
<path d="M 81.0,165.0 C 75.0,165.0 75.0,168.0 81.0,168.0" style="stroke:#000000;stroke-width:1.5;stroke-linejoin:round;stroke-linecap:round;fill-rule: evenodd;" fill="none"/>
<path d="M 81.0,171.0 C 75.0,171.0 75.0,174.0 81.0,174.0" style="stroke:#000000;stroke-width:1.5;stroke-linejoin:round;stroke-linecap:round;fill-rule: evenodd;" fill="none"/>
<path d="M 84.0,153.0 C 93.0,153.0 93.0,162.0 81.0,162.0" style="stroke:#000000;stroke-width:1.5;stroke-linejoin:round;stroke-linecap:round;fill-rule: evenodd;" fill="none"/>
<line x1="129.0" y1="129.0" x2="129.0" y2="144.0" style="stroke:#000000;stroke-width:1.5;stroke-linejoin:round;stroke-linecap:round;fill-rule: evenodd;" fill="none"/>
<line x1="129.0" y1="129.0" x2="84.0" y2="129.0" style="stroke:#000000;stroke-width:1.5;stroke-linejoin:round;stroke-linecap:round;fill-rule: evenodd;" fill="none"/>
<line x1="84.0" y1="129.0" x2="84.0" y2="144.0" style="stroke:#000000;stroke-width:1.5;stroke-linejoin:round;stroke-linecap:round;fill-rule: evenodd;" fill="none"/>
<line x1="84.0" y1="129.0" x2="39.0" y2="129.0" style="stroke:#000000;stroke-width:1.5;stroke-linejoin:round;stroke-linecap:round;fill-rule: evenodd;" fill="none"/>
<line x1="39.0" y1="129.0" x2="39.0" y2="159.0" style="stroke:#000000;stroke-width:1.5;stroke-linejoin:round;stroke-linecap:round;fill-rule: evenodd;" fill="none"/>
<line x1="39.0" y1="189.0" x2="39.0" y2="219.0" style="stroke:#000000;stroke-width:1.5;stroke-linejoin:round;stroke-linecap:round;fill-rule: evenodd;" fill="none"/>
<line x1="39.0" y1="219.0" x2="84.0" y2="219.0" style="stroke:#000000;stroke-width:1.5;stroke-linejoin:round;stroke-linecap:round;fill-rule: evenodd;" fill="none"/>
<line x1="84.0" y1="219.0" x2="84.0" y2="189.0" style="stroke:#000000;stroke-width:1.5;stroke-linejoin:round;stroke-linecap:round;fill-rule: evenodd;" fill="none"/>
<line x1="84.0" y1="219.0" x2="129.0" y2="219.0" style="stroke:#000000;stroke-width:1.5;stroke-linejoin:round;stroke-linecap:round;fill-rule: evenodd;" fill="none"/>
<line x1="129.0" y1="219.0" x2="129.0" y2="189.0" style="stroke:#000000;stroke-width:1.5;stroke-linejoin:round;stroke-linecap:round;fill-rule: evenodd;" fill="none"/>
<line x1="189.0" y1="159.0" x2="189.0" y2="219.0" style="stroke:#000000;stroke-width:1.5;stroke-linejoin:round;stroke-linecap:round;fill-rule: evenodd;" fill="none"/>
<line x1="189.0" y1="219.0" x2="129.0" y2="219.0" style="stroke:#000000;stroke-width:1.5;stroke-linejoin:round;stroke-linecap:round;fill-rule: evenodd;" fill="none"/>
<line x1="84.0" y1="399.0" x2="84.0" y2="384.0" style="stroke:#000000;stroke-width:1.5;stroke-linejoin:round;stroke-linecap:round;fill-rule: evenodd;" fill="none"/>
<polygon points="75.0,405.0 93.0,405.0 84.0,414.0 84.0,414.0 " style="stroke:#000000;stroke-width:1.5;stroke-linejoin:round;stroke-linecap:round;fill-rule: evenodd;" fill="none"/>
<line x1="84.0" y1="399.0" x2="84.0" y2="405.0" style="stroke:#000000;stroke-width:1.5;stroke-linejoin:round;stroke-linecap:round;fill-rule: evenodd;" fill="none"/>
<g transform="translate(99.0,189.0) rotate(-90.0) scale(1.0,1.0)"><text x="0.0" y="14.0" font-family="Courier New, monospace" font-size="15.93" font-style="" font-weight="" xml:space="preserve" fill="#000000">1nF</text>
</g>
<g transform="translate(54.0,189.0) rotate(-90.0) scale(1.0,1.0)"><text x="0.0" y="14.0" font-family="Courier New, monospace" font-size="15.93" font-style="" font-weight="" xml:space="preserve" fill="#000000">100uH</text>
</g>
<g transform="translate(219.0,174.0) scale(1.0,1.0)"><text x="0.0" y="14.0" font-family="Courier New, monospace" font-size="15.93" font-style="" font-weight="" xml:space="preserve" fill="#000000">LM393</text>
</g>
<g transform="translate(9.0,219.0) rotate(-90.0) scale(1.0,1.0)"><text x="0.0" y="14.0" font-family="Courier New, monospace" font-size="15.93" font-style="" font-weight="" xml:space="preserve" fill="#000000">C / L Test</text>
</g>
<circle cx="39.0" cy="159.0" r="3.0" style="stroke:#000000;stroke-width:0.33" fill="#000000"/>
<circle cx="39.0" cy="189.0" r="3.0" style="stroke:#000000;stroke-width:0.33" fill="#000000"/>
<circle cx="129.0" cy="129.0" r="3.0" style="stroke:#000000;stroke-width:0.33" fill="#000000"/>
<circle cx="84.0" cy="129.0" r="3.0" style="stroke:#000000;stroke-width:0.33" fill="#000000"/>
<circle cx="84.0" cy="219.0" r="3.0" style="stroke:#000000;stroke-width:0.33" fill="#000000"/>
<circle cx="129.0" cy="219.0" r="3.0" style="stroke:#000000;stroke-width:0.33" fill="#000000"/>
<circle cx="279.0" cy="144.0" r="3.0" style="stroke:#000000;stroke-width:0.33" fill="#000000"/>
<line x1="204.0" y1="300.0" x2="189.0" y2="309.0" style="stroke:#000000;stroke-width:1.5;stroke-linejoin:round;stroke-linecap:round;fill-rule: evenodd;" fill="none"/>
<line x1="234.0" y1="294.0" x2="204.0" y2="294.0" style="stroke:#000000;stroke-width:1.5;stroke-linejoin:round;stroke-linecap:round;fill-rule: evenodd;" fill="none"/>
<line x1="204.0" y1="279.0" x2="204.0" y2="309.0" style="stroke:#000000;stroke-width:1.5;stroke-linejoin:round;stroke-linecap:round;fill-rule: evenodd;" fill="none"/>
<line x1="189.0" y1="279.0" x2="189.0" y2="264.0" style="stroke:#000000;stroke-width:1.5;stroke-linejoin:round;stroke-linecap:round;fill-rule: evenodd;" fill="none"/>
<line x1="204.0" y1="288.0" x2="189.0" y2="279.0" style="stroke:#000000;stroke-width:1.5;stroke-linejoin:round;stroke-linecap:round;fill-rule: evenodd;" fill="none"/>
<line x1="189.0" y1="309.0" x2="189.0" y2="324.0" style="stroke:#000000;stroke-width:1.5;stroke-linejoin:round;stroke-linecap:round;fill-rule: evenodd;" fill="none"/>
<ellipse cx="198.0" cy="294.0" rx="18.0" ry="18.0" style="stroke:#000000;stroke-width:1.5;stroke-linejoin:round;stroke-linecap:round;fill-rule: evenodd;" fill="none"/>
<polygon points="195.0,309.0 192.0,303.0 189.0,309.0 " style="stroke:#000000;stroke-width:1.5;stroke-linejoin:round;stroke-linecap:round;fill-rule: evenodd;" fill="#000000"/>
<line x1="237.0" y1="294.0" x2="234.0" y2="294.0" style="stroke:#000000;stroke-width:1.5;stroke-linejoin:round;stroke-linecap:round;fill-rule: evenodd;" fill="none"/>
<line x1="258.0" y1="297.0" x2="252.0" y2="291.0" style="stroke:#000000;stroke-width:1.5;stroke-linejoin:round;stroke-linecap:round;fill-rule: evenodd;" fill="none"/>
<line x1="252.0" y1="291.0" x2="246.0" y2="297.0" style="stroke:#000000;stroke-width:1.5;stroke-linejoin:round;stroke-linecap:round;fill-rule: evenodd;" fill="none"/>
<line x1="246.0" y1="297.0" x2="240.0" y2="291.0" style="stroke:#000000;stroke-width:1.5;stroke-linejoin:round;stroke-linecap:round;fill-rule: evenodd;" fill="none"/>
<line x1="240.0" y1="291.0" x2="237.0" y2="294.0" style="stroke:#000000;stroke-width:1.5;stroke-linejoin:round;stroke-linecap:round;fill-rule: evenodd;" fill="none"/>
<line x1="270.0" y1="297.0" x2="264.0" y2="291.0" style="stroke:#000000;stroke-width:1.5;stroke-linejoin:round;stroke-linecap:round;fill-rule: evenodd;" fill="none"/>
<line x1="264.0" y1="291.0" x2="258.0" y2="297.0" style="stroke:#000000;stroke-width:1.5;stroke-linejoin:round;stroke-linecap:round;fill-rule: evenodd;" fill="none"/>
<line x1="273.0" y1="294.0" x2="270.0" y2="297.0" style="stroke:#000000;stroke-width:1.5;stroke-linejoin:round;stroke-linecap:round;fill-rule: evenodd;" fill="none"/>
<line x1="279.0" y1="294.0" x2="273.0" y2="294.0" style="stroke:#000000;stroke-width:1.5;stroke-linejoin:round;stroke-linecap:round;fill-rule: evenodd;" fill="none"/>
<line x1="189.0" y1="249.0" x2="189.0" y2="264.0" style="stroke:#000000;stroke-width:1.5;stroke-linejoin:round;stroke-linecap:round;fill-rule: evenodd;" fill="none"/>
<g transform="translate(159.0,264.0) scale(1.0,1.0)"><text x="0.0" y="14.0" font-family="Courier New, monospace" font-size="15.93" font-style="" font-weight="" xml:space="preserve" fill="#000000">Q2</text>
</g>
<g transform="translate(129.0,279.0) scale(1.0,1.0)"><text x="0.0" y="14.0" font-family="Courier New, monospace" font-size="15.93" font-style="" font-weight="" xml:space="preserve" fill="#000000">BC547</text>
</g>
<line x1="189.0" y1="249.0" x2="159.0" y2="249.0" style="stroke:#000000;stroke-width:1.5;stroke-linejoin:round;stroke-linecap:round;fill-rule: evenodd;" fill="none"/>
<g transform="translate(249.0,294.0) scale(1.0,1.0)"><text x="0.0" y="14.0" font-family="Courier New, monospace" font-size="15.93" font-style="" font-weight="" xml:space="preserve" fill="#000000">2k</text>
</g>
<line x1="279.0" y1="294.0" x2="294.0" y2="294.0" style="stroke:#000000;stroke-width:1.5;stroke-linejoin:round;stroke-linecap:round;fill-rule: evenodd;" fill="none"/>
<line x1="294.0" y1="294.0" x2="294.0" y2="249.0" style="stroke:#000000;stroke-width:1.5;stroke-linejoin:round;stroke-linecap:round;fill-rule: evenodd;" fill="none"/>
<line x1="294.0" y1="249.0" x2="324.0" y2="249.0" style="stroke:#000000;stroke-width:1.5;stroke-linejoin:round;stroke-linecap:round;fill-rule: evenodd;" fill="none"/>
<line x1="384.0" y1="39.0" x2="279.0" y2="39.0" style="stroke:#000000;stroke-width:1.5;stroke-linejoin:round;stroke-linecap:round;fill-rule: evenodd;" fill="none"/>
<line x1="234.0" y1="294.0" x2="234.0" y2="339.0" style="stroke:#000000;stroke-width:1.5;stroke-linejoin:round;stroke-linecap:round;fill-rule: evenodd;" fill="none"/>
<line x1="234.0" y1="339.0" x2="264.0" y2="339.0" style="stroke:#000000;stroke-width:1.5;stroke-linejoin:round;stroke-linecap:round;fill-rule: evenodd;" fill="none"/>
<g transform="translate(264.0,339.0) scale(1.0,1.0)"><text x="0.0" y="14.0" font-family="Courier New, monospace" font-size="15.93" font-style="" font-weight="" xml:space="preserve" fill="#000000">On/Off</text>
</g>
<circle cx="234.0" cy="294.0" r="3.0" style="stroke:#000000;stroke-width:0.33" fill="#000000"/>
<line x1="189.0" y1="384.0" x2="84.0" y2="384.0" style="stroke:#000000;stroke-width:1.5;stroke-linejoin:round;stroke-linecap:round;fill-rule: evenodd;" fill="none"/>
<line x1="84.0" y1="384.0" x2="84.0" y2="219.0" style="stroke:#000000;stroke-width:1.5;stroke-linejoin:round;stroke-linecap:round;fill-rule: evenodd;" fill="none"/>
<g transform="translate(234.0,339.0) scale(1.0,1.0)"><text x="0.0" y="14.0" font-family="Courier New, monospace" font-size="15.93" font-style="" font-weight="" xml:space="preserve" fill="#000000">D3</text>
</g>
<circle cx="384.0" cy="339.0" r="3.0" style="stroke:#000000;stroke-width:0.33" fill="#000000"/>
<circle cx="699.0" cy="339.0" r="3.0" style="stroke:#000000;stroke-width:0.33" fill="#000000"/>
<circle cx="429.0" cy="339.0" r="3.0" style="stroke:#000000;stroke-width:0.33" fill="#000000"/>
<circle cx="384.0" cy="159.0" r="3.0" style="stroke:#000000;stroke-width:0.33" fill="#000000"/>
<circle cx="474.0" cy="339.0" r="3.0" style="stroke:#000000;stroke-width:0.33" fill="#000000"/>
<circle cx="429.0" cy="159.0" r="3.0" style="stroke:#000000;stroke-width:0.33" fill="#000000"/>
<circle cx="519.0" cy="339.0" r="3.0" style="stroke:#000000;stroke-width:0.33" fill="#000000"/>
<rect x="354.0" y="159.0" rx="0" ry="0" width="375.0" height="180.0" style="stroke:#000000;stroke-width:1.5;stroke-linejoin:round;stroke-linecap:round;fill-rule: evenodd;" fill="none"/>
<circle cx="564.0" cy="339.0" r="3.0" style="stroke:#000000;stroke-width:0.33" fill="#000000"/>
<circle cx="519.0" cy="159.0" r="3.0" style="stroke:#000000;stroke-width:0.33" fill="#000000"/>
<circle cx="609.0" cy="339.0" r="3.0" style="stroke:#000000;stroke-width:0.33" fill="#000000"/>
<circle cx="564.0" cy="159.0" r="3.0" style="stroke:#000000;stroke-width:0.33" fill="#000000"/>
<circle cx="654.0" cy="339.0" r="3.0" style="stroke:#000000;stroke-width:0.33" fill="#000000"/>
<circle cx="609.0" cy="159.0" r="3.0" style="stroke:#000000;stroke-width:0.33" fill="#000000"/>
<circle cx="474.0" cy="159.0" r="3.0" style="stroke:#000000;stroke-width:0.33" fill="#000000"/>
<circle cx="654.0" cy="159.0" r="3.0" style="stroke:#000000;stroke-width:0.33" fill="#000000"/>
<path d="M 354.0,234.0 C 372.0,237.0 372.0,261.0 354.0,264.0" style="stroke:#000000;stroke-width:1.5;stroke-linejoin:round;stroke-linecap:round;fill-rule: evenodd;" fill="none"/>
<circle cx="699.0" cy="159.0" r="3.0" style="stroke:#000000;stroke-width:0.33" fill="#000000"/>
<circle cx="369.0" cy="294.0" r="3.0" style="stroke:#000000;stroke-width:0.33" fill="#000000"/>
<line x1="369.0" y1="84.0" x2="609.0" y2="84.0" style="stroke:#000000;stroke-width:1.5;stroke-linejoin:round;stroke-linecap:round;fill-rule: evenodd;" fill="none"/>
<line x1="609.0" y1="84.0" x2="609.0" y2="159.0" style="stroke:#000000;stroke-width:1.5;stroke-linejoin:round;stroke-linecap:round;fill-rule: evenodd;" fill="none"/>
<line x1="384.0" y1="39.0" x2="384.0" y2="159.0" style="stroke:#000000;stroke-width:1.5;stroke-linejoin:round;stroke-linecap:round;fill-rule: evenodd;" fill="none"/>
<circle cx="324.0" cy="249.0" r="3.0" style="stroke:#000000;stroke-width:0.33" fill="#000000"/>
<line x1="189.0" y1="324.0" x2="189.0" y2="384.0" style="stroke:#000000;stroke-width:1.5;stroke-linejoin:round;stroke-linecap:round;fill-rule: evenodd;" fill="none"/>
<line x1="189.0" y1="384.0" x2="699.0" y2="384.0" style="stroke:#000000;stroke-width:1.5;stroke-linejoin:round;stroke-linecap:round;fill-rule: evenodd;" fill="none"/>
<line x1="699.0" y1="384.0" x2="699.0" y2="339.0" style="stroke:#000000;stroke-width:1.5;stroke-linejoin:round;stroke-linecap:round;fill-rule: evenodd;" fill="none"/>
<line x1="429.0" y1="159.0" x2="429.0" y2="114.0" style="stroke:#000000;stroke-width:1.5;stroke-linejoin:round;stroke-linecap:round;fill-rule: evenodd;" fill="none"/>
<g transform="translate(414.0,99.0) scale(1.0,1.0)"><text x="0.0" y="14.0" font-family="Courier New, monospace" font-size="15.93" font-style="" font-weight="" xml:space="preserve" fill="#000000">Atmega328 [20 MHz]</text>
</g>
<line x1="336.0" y1="282.0" x2="312.0" y2="282.0" style="stroke:#000000;stroke-width:1.5;stroke-linejoin:round;stroke-linecap:round;fill-rule: evenodd;" fill="none"/>
<line x1="312.0" y1="291.0" x2="336.0" y2="291.0" style="stroke:#000000;stroke-width:1.5;stroke-linejoin:round;stroke-linecap:round;fill-rule: evenodd;" fill="none"/>
<line x1="324.0" y1="291.0" x2="324.0" y2="309.0" style="stroke:#000000;stroke-width:1.5;stroke-linejoin:round;stroke-linecap:round;fill-rule: evenodd;" fill="none"/>
<line x1="324.0" y1="282.0" x2="324.0" y2="264.0" style="stroke:#000000;stroke-width:1.5;stroke-linejoin:round;stroke-linecap:round;fill-rule: evenodd;" fill="none"/>
<line x1="324.0" y1="264.0" x2="324.0" y2="129.0" style="stroke:#000000;stroke-width:1.5;stroke-linejoin:round;stroke-linecap:round;fill-rule: evenodd;" fill="none"/>
<line x1="324.0" y1="129.0" x2="384.0" y2="129.0" style="stroke:#000000;stroke-width:1.5;stroke-linejoin:round;stroke-linecap:round;fill-rule: evenodd;" fill="none"/>
<line x1="324.0" y1="309.0" x2="324.0" y2="369.0" style="stroke:#000000;stroke-width:1.5;stroke-linejoin:round;stroke-linecap:round;fill-rule: evenodd;" fill="none"/>
<line x1="384.0" y1="339.0" x2="384.0" y2="369.0" style="stroke:#000000;stroke-width:1.5;stroke-linejoin:round;stroke-linecap:round;fill-rule: evenodd;" fill="none"/>
<line x1="282.0" y1="369.0" x2="279.0" y2="369.0" style="stroke:#000000;stroke-width:1.5;stroke-linejoin:round;stroke-linecap:round;fill-rule: evenodd;" fill="none"/>
<line x1="303.0" y1="372.0" x2="297.0" y2="366.0" style="stroke:#000000;stroke-width:1.5;stroke-linejoin:round;stroke-linecap:round;fill-rule: evenodd;" fill="none"/>
<line x1="297.0" y1="366.0" x2="291.0" y2="372.0" style="stroke:#000000;stroke-width:1.5;stroke-linejoin:round;stroke-linecap:round;fill-rule: evenodd;" fill="none"/>
<line x1="291.0" y1="372.0" x2="285.0" y2="366.0" style="stroke:#000000;stroke-width:1.5;stroke-linejoin:round;stroke-linecap:round;fill-rule: evenodd;" fill="none"/>
<line x1="285.0" y1="366.0" x2="282.0" y2="369.0" style="stroke:#000000;stroke-width:1.5;stroke-linejoin:round;stroke-linecap:round;fill-rule: evenodd;" fill="none"/>
<line x1="315.0" y1="372.0" x2="309.0" y2="366.0" style="stroke:#000000;stroke-width:1.5;stroke-linejoin:round;stroke-linecap:round;fill-rule: evenodd;" fill="none"/>
<line x1="309.0" y1="366.0" x2="303.0" y2="372.0" style="stroke:#000000;stroke-width:1.5;stroke-linejoin:round;stroke-linecap:round;fill-rule: evenodd;" fill="none"/>
<line x1="318.0" y1="369.0" x2="315.0" y2="372.0" style="stroke:#000000;stroke-width:1.5;stroke-linejoin:round;stroke-linecap:round;fill-rule: evenodd;" fill="none"/>
<line x1="324.0" y1="369.0" x2="318.0" y2="369.0" style="stroke:#000000;stroke-width:1.5;stroke-linejoin:round;stroke-linecap:round;fill-rule: evenodd;" fill="none"/>
<line x1="324.0" y1="369.0" x2="384.0" y2="369.0" style="stroke:#000000;stroke-width:1.5;stroke-linejoin:round;stroke-linecap:round;fill-rule: evenodd;" fill="none"/>
<line x1="279.0" y1="384.0" x2="279.0" y2="369.0" style="stroke:#000000;stroke-width:1.5;stroke-linejoin:round;stroke-linecap:round;fill-rule: evenodd;" fill="none"/>
<circle cx="384.0" cy="129.0" r="3.0" style="stroke:#000000;stroke-width:0.33" fill="#000000"/>
<circle cx="324.0" cy="369.0" r="3.0" style="stroke:#000000;stroke-width:0.33" fill="#000000"/>
<circle cx="279.0" cy="384.0" r="3.0" style="stroke:#000000;stroke-width:0.33" fill="#000000"/>
<circle cx="189.0" cy="384.0" r="3.0" style="stroke:#000000;stroke-width:0.33" fill="#000000"/>
<circle cx="84.0" cy="384.0" r="3.0" style="stroke:#000000;stroke-width:0.33" fill="#000000"/>
<line x1="327.0" y1="84.0" x2="324.0" y2="84.0" style="stroke:#000000;stroke-width:1.5;stroke-linejoin:round;stroke-linecap:round;fill-rule: evenodd;" fill="none"/>
<line x1="348.0" y1="87.0" x2="342.0" y2="81.0" style="stroke:#000000;stroke-width:1.5;stroke-linejoin:round;stroke-linecap:round;fill-rule: evenodd;" fill="none"/>
<line x1="342.0" y1="81.0" x2="336.0" y2="87.0" style="stroke:#000000;stroke-width:1.5;stroke-linejoin:round;stroke-linecap:round;fill-rule: evenodd;" fill="none"/>
<line x1="336.0" y1="87.0" x2="330.0" y2="81.0" style="stroke:#000000;stroke-width:1.5;stroke-linejoin:round;stroke-linecap:round;fill-rule: evenodd;" fill="none"/>
<line x1="330.0" y1="81.0" x2="327.0" y2="84.0" style="stroke:#000000;stroke-width:1.5;stroke-linejoin:round;stroke-linecap:round;fill-rule: evenodd;" fill="none"/>
<line x1="360.0" y1="87.0" x2="354.0" y2="81.0" style="stroke:#000000;stroke-width:1.5;stroke-linejoin:round;stroke-linecap:round;fill-rule: evenodd;" fill="none"/>
<line x1="354.0" y1="81.0" x2="348.0" y2="87.0" style="stroke:#000000;stroke-width:1.5;stroke-linejoin:round;stroke-linecap:round;fill-rule: evenodd;" fill="none"/>
<line x1="363.0" y1="84.0" x2="360.0" y2="87.0" style="stroke:#000000;stroke-width:1.5;stroke-linejoin:round;stroke-linecap:round;fill-rule: evenodd;" fill="none"/>
<line x1="369.0" y1="84.0" x2="363.0" y2="84.0" style="stroke:#000000;stroke-width:1.5;stroke-linejoin:round;stroke-linecap:round;fill-rule: evenodd;" fill="none"/>
<line x1="249.0" y1="84.0" x2="324.0" y2="84.0" style="stroke:#000000;stroke-width:1.5;stroke-linejoin:round;stroke-linecap:round;fill-rule: evenodd;" fill="none"/>
<g transform="translate(324.0,84.0) scale(1.0,1.0)"><text x="0.0" y="14.0" font-family="Courier New, monospace" font-size="15.93" font-style="" font-weight="" xml:space="preserve" fill="#000000">1k</text>
</g>
<g transform="translate(204.0,54.0) scale(1.0,1.0)"><text x="0.0" y="14.0" font-family="Courier New, monospace" font-size="15.93" font-style="" font-weight="" xml:space="preserve" fill="#000000">R9</text>
</g>
<g transform="translate(324.0,99.0) scale(1.0,1.0)"><text x="0.0" y="14.0" font-family="Courier New, monospace" font-size="15.93" font-style="" font-weight="" xml:space="preserve" fill="#000000">R27</text>
</g>
<g transform="translate(249.0,309.0) scale(1.0,1.0)"><text x="0.0" y="14.0" font-family="Courier New, monospace" font-size="15.93" font-style="" font-weight="" xml:space="preserve" fill="#000000">R29</text>
</g>
<g transform="translate(294.0,399.0) scale(1.0,1.0)"><text x="0.0" y="14.0" font-family="Courier New, monospace" font-size="15.93" font-style="" font-weight="" xml:space="preserve" fill="#000000">R26</text>
</g>
<g transform="translate(294.0,414.0) scale(1.0,1.0)"><text x="0.0" y="14.0" font-family="Courier New, monospace" font-size="15.93" font-style="" font-weight="" xml:space="preserve" fill="#000000">100k</text>
</g>
<g transform="translate(324.0,279.0) rotate(-90.0) scale(1.0,1.0)"><text x="0.0" y="14.0" font-family="Courier New, monospace" font-size="15.93" font-style="" font-weight="" xml:space="preserve" fill="#000000">100nF</text>
</g>
<g transform="translate(69.0,204.0) rotate(-90.0) scale(1.0,1.0)"><text x="0.0" y="14.0" font-family="Courier New, monospace" font-size="15.93" font-style="" font-weight="" xml:space="preserve" fill="#000000">Lc</text>
</g>
<g transform="translate(114.0,204.0) rotate(-90.0) scale(1.0,1.0)"><text x="0.0" y="14.0" font-family="Courier New, monospace" font-size="15.93" font-style="" font-weight="" xml:space="preserve" fill="#000000">Cc</text>
</g>
<line x1="129.0" y1="114.0" x2="129.0" y2="84.0" style="stroke:#000000;stroke-width:1.5;stroke-linejoin:round;stroke-linecap:round;fill-rule: evenodd;" fill="none"/>
<line x1="129.0" y1="84.0" x2="174.0" y2="84.0" style="stroke:#000000;stroke-width:1.5;stroke-linejoin:round;stroke-linecap:round;fill-rule: evenodd;" fill="none"/>
<g transform="translate(294.0,39.0) scale(1.0,1.0)"><text x="0.0" y="14.0" font-family="Courier New, monospace" font-size="15.93" font-style="" font-weight="" xml:space="preserve" fill="#000000">R12</text>
</g>
<line x1="129.0" y1="39.0" x2="129.0" y2="45.0" style="stroke:#000000;stroke-width:1.5;stroke-linejoin:round;stroke-linecap:round;fill-rule: evenodd;" fill="none"/>
<line x1="129.0" y1="63.0" x2="129.0" y2="69.0" style="stroke:#000000;stroke-width:1.5;stroke-linejoin:round;stroke-linecap:round;fill-rule: evenodd;" fill="none"/>
<rect x="123.0" y="45.0" rx="0" ry="0" width="12.0" height="18.0" style="stroke:#000000;stroke-width:1.5;stroke-linejoin:round;stroke-linecap:round;fill-rule: evenodd;" fill="none"/>
<circle cx="129.0" cy="84.0" r="3.0" style="stroke:#000000;stroke-width:0.33" fill="#000000"/>
<line x1="129.0" y1="39.0" x2="129.0" y2="33.0" style="stroke:#000000;stroke-width:1.5;stroke-linejoin:round;stroke-linecap:round;fill-rule: evenodd;" fill="none"/>
<ellipse cx="129.0" cy="27.0" rx="6.0" ry="6.0" style="stroke:#000000;stroke-width:1.5;stroke-linejoin:round;stroke-linecap:round;fill-rule: evenodd;" fill="none"/>
<line x1="129.0" y1="30.0" x2="129.0" y2="24.0" style="stroke:#000000;stroke-width:1.5;stroke-linejoin:round;stroke-linecap:round;fill-rule: evenodd;" fill="none"/>
<line x1="126.0" y1="27.0" x2="132.0" y2="27.0" style="stroke:#000000;stroke-width:1.5;stroke-linejoin:round;stroke-linecap:round;fill-rule: evenodd;" fill="none"/>
<line x1="129.0" y1="84.0" x2="129.0" y2="69.0" style="stroke:#000000;stroke-width:1.5;stroke-linejoin:round;stroke-linecap:round;fill-rule: evenodd;" fill="none"/>
<line x1="159.0" y1="129.0" x2="159.0" y2="249.0" style="stroke:#000000;stroke-width:1.5;stroke-linejoin:round;stroke-linecap:round;fill-rule: evenodd;" fill="none"/>
<circle cx="159.0" cy="129.0" r="3.0" style="stroke:#000000;stroke-width:0.33" fill="#000000"/>
<g transform="translate(84.0,54.0) scale(1.0,1.0)"><text x="0.0" y="14.0" font-family="Courier New, monospace" font-size="15.93" font-style="" font-weight="" xml:space="preserve" fill="#000000">2k</text>
</g>
<g transform="translate(84.0,39.0) scale(1.0,1.0)"><text x="0.0" y="14.0" font-family="Courier New, monospace" font-size="15.93" font-style="" font-weight="" xml:space="preserve" fill="#000000">R11</text>
</g>
<g transform="translate(39.0,99.0) scale(1.0,1.0)"><text x="0.0" y="14.0" font-family="Courier New, monospace" font-size="15.93" font-style="" font-weight="" xml:space="preserve" fill="#000000">503 kHz</text>
</g>
<circle cx="279.0" cy="39.0" r="3.0" style="stroke:#000000;stroke-width:0.33" fill="#000000"/>
<g transform="translate(267.0,9.0) scale(1.0,1.1)"><text x="0.0" y="9.0" font-family="Courier New, monospace" font-size="10.79" font-style="" font-weight="bold" xml:space="preserve" fill="#ff0000">+Vcc</text>
</g>
<g transform="translate(117.0,9.0) scale(1.0,1.1)"><text x="0.0" y="9.0" font-family="Courier New, monospace" font-size="10.79" font-style="" font-weight="bold" xml:space="preserve" fill="#ff0000">+Vcc</text>
</g>
<g transform="translate(429.0,339.0) scale(1.0,1.0)"><text x="0.0" y="14.0" font-family="Courier New, monospace" font-size="15.93" font-style="" font-weight="bold" xml:space="preserve" fill="#008080">2</text>
</g>
<g transform="translate(384.0,339.0) scale(1.0,1.0)"><text x="0.0" y="14.0" font-family="Courier New, monospace" font-size="15.93" font-style="" font-weight="bold" xml:space="preserve" fill="#008080">1</text>
</g>
<g transform="translate(474.0,339.0) scale(1.0,1.0)"><text x="0.0" y="14.0" font-family="Courier New, monospace" font-size="15.93" font-style="" font-weight="bold" xml:space="preserve" fill="#008080">3</text>
</g>
<g transform="translate(564.0,339.0) scale(1.0,1.0)"><text x="0.0" y="14.0" font-family="Courier New, monospace" font-size="15.93" font-style="" font-weight="bold" xml:space="preserve" fill="#008080">5</text>
</g>
<g transform="translate(519.0,144.0) scale(1.0,1.0)"><text x="0.0" y="14.0" font-family="Courier New, monospace" font-size="15.93" font-style="" font-weight="bold" xml:space="preserve" fill="#008080">13</text>
</g>
<g transform="translate(609.0,339.0) scale(1.0,1.0)"><text x="0.0" y="14.0" font-family="Courier New, monospace" font-size="15.93" font-style="" font-weight="bold" xml:space="preserve" fill="#008080">6</text>
</g>
<g transform="translate(564.0,144.0) scale(1.0,1.0)"><text x="0.0" y="14.0" font-family="Courier New, monospace" font-size="15.93" font-style="" font-weight="bold" xml:space="preserve" fill="#008080">12</text>
</g>
<g transform="translate(654.0,339.0) scale(1.0,1.0)"><text x="0.0" y="14.0" font-family="Courier New, monospace" font-size="15.93" font-style="" font-weight="bold" xml:space="preserve" fill="#008080">7</text>
</g>
<g transform="translate(609.0,144.0) scale(1.0,1.0)"><text x="0.0" y="14.0" font-family="Courier New, monospace" font-size="15.93" font-style="" font-weight="bold" xml:space="preserve" fill="#008080">11</text>
</g>
<g transform="translate(699.0,339.0) scale(1.0,1.0)"><text x="0.0" y="14.0" font-family="Courier New, monospace" font-size="15.93" font-style="" font-weight="bold" xml:space="preserve" fill="#008080">8</text>
</g>
<g transform="translate(654.0,144.0) scale(1.0,1.0)"><text x="0.0" y="14.0" font-family="Courier New, monospace" font-size="15.93" font-style="" font-weight="bold" xml:space="preserve" fill="#008080">10</text>
</g>
<g transform="translate(384.0,144.0) scale(1.0,1.0)"><text x="0.0" y="14.0" font-family="Courier New, monospace" font-size="15.93" font-style="" font-weight="bold" xml:space="preserve" fill="#008080">16</text>
</g>
<g transform="translate(699.0,144.0) scale(1.0,1.0)"><text x="0.0" y="14.0" font-family="Courier New, monospace" font-size="15.93" font-style="" font-weight="bold" xml:space="preserve" fill="#008080">9</text>
</g>
<g transform="translate(429.0,144.0) scale(1.0,1.0)"><text x="0.0" y="14.0" font-family="Courier New, monospace" font-size="15.93" font-style="" font-weight="bold" xml:space="preserve" fill="#008080">15</text>
</g>
<g transform="translate(519.0,339.0) scale(1.0,1.0)"><text x="0.0" y="14.0" font-family="Courier New, monospace" font-size="15.93" font-style="" font-weight="bold" xml:space="preserve" fill="#008080">4</text>
</g>
<g transform="translate(474.0,144.0) scale(1.0,1.0)"><text x="0.0" y="14.0" font-family="Courier New, monospace" font-size="15.93" font-style="" font-weight="bold" xml:space="preserve" fill="#008080">14</text>
</g>
<g transform="translate(369.0,165.0) scale(1.0,1.0)"><text x="0.0" y="14.0" font-family="Courier New, monospace" font-size="15.93" font-style="" font-weight="bold" xml:space="preserve" fill="#008080">+Vdd</text>
</g>
<g transform="translate(687.0,318.0) scale(1.0,1.0)"><text x="0.0" y="14.0" font-family="Courier New, monospace" font-size="15.93" font-style="" font-weight="bold" xml:space="preserve" fill="#008080">Gnd</text>
</g>
<g transform="translate(489.0,228.0) scale(1.0,1.0)"><text x="0.0" y="35.0" font-family="Courier New, monospace" font-size="41.64" font-style="" font-weight="bold" xml:space="preserve" fill="#008080">4060B</text>
</g>
<g transform="translate(555.0,318.0) scale(1.0,1.0)"><text x="0.0" y="14.0" font-family="Courier New, monospace" font-size="15.93" font-style="" font-weight="bold" xml:space="preserve" fill="#008080">Q5</text>
</g>
<g transform="translate(603.0,318.0) scale(1.0,1.0)"><text x="0.0" y="14.0" font-family="Courier New, monospace" font-size="15.93" font-style="" font-weight="bold" xml:space="preserve" fill="#008080">Q7</text>
</g>
<g transform="translate(648.0,318.0) scale(1.0,1.0)"><text x="0.0" y="14.0" font-family="Courier New, monospace" font-size="15.93" font-style="" font-weight="bold" xml:space="preserve" fill="#008080">Q4</text>
</g>
<g transform="translate(423.0,318.0) scale(1.0,1.0)"><text x="0.0" y="14.0" font-family="Courier New, monospace" font-size="15.93" font-style="" font-weight="bold" xml:space="preserve" fill="#008080">Q13</text>
</g>
<g transform="translate(378.0,318.0) scale(1.0,1.0)"><text x="0.0" y="14.0" font-family="Courier New, monospace" font-size="15.93" font-style="" font-weight="bold" xml:space="preserve" fill="#008080">Q12</text>
</g>
<g transform="translate(465.0,318.0) scale(1.0,1.0)"><text x="0.0" y="14.0" font-family="Courier New, monospace" font-size="15.93" font-style="" font-weight="bold" xml:space="preserve" fill="#008080">Q14</text>
</g>
<g transform="translate(510.0,318.0) scale(1.0,1.0)"><text x="0.0" y="14.0" font-family="Courier New, monospace" font-size="15.93" font-style="" font-weight="bold" xml:space="preserve" fill="#008080">Q6</text>
</g>
<g transform="translate(510.0,165.0) scale(1.0,1.0)"><text x="0.0" y="14.0" font-family="Courier New, monospace" font-size="15.93" font-style="" font-weight="bold" xml:space="preserve" fill="#008080">Q9</text>
</g>
<g transform="translate(465.0,165.0) scale(1.0,1.0)"><text x="0.0" y="14.0" font-family="Courier New, monospace" font-size="15.93" font-style="" font-weight="bold" xml:space="preserve" fill="#008080">Q8</text>
</g>
<g transform="translate(420.0,165.0) scale(1.0,1.0)"><text x="0.0" y="14.0" font-family="Courier New, monospace" font-size="15.93" font-style="" font-weight="bold" xml:space="preserve" fill="#008080">Q10</text>
</g>
<g transform="translate(555.0,165.0) scale(1.0,1.0)"><text x="0.0" y="14.0" font-family="Courier New, monospace" font-size="15.93" font-style="" font-weight="bold" xml:space="preserve" fill="#008080">Res</text>
</g>
<g transform="translate(585.0,165.0) scale(1.0,1.0)"><text x="0.0" y="14.0" font-family="Courier New, monospace" font-size="15.93" font-style="" font-weight="bold" xml:space="preserve" fill="#008080">Osc in</text>
</g>
<g transform="translate(645.0,165.0) scale(1.0,1.0)"><text x="0.0" y="14.0" font-family="Courier New, monospace" font-size="15.93" font-style="" font-weight="bold" xml:space="preserve" fill="#008080">Osc</text>
</g>
<g transform="translate(690.0,165.0) scale(1.0,1.0)"><text x="0.0" y="14.0" font-family="Courier New, monospace" font-size="15.93" font-style="" font-weight="bold" xml:space="preserve" fill="#008080">Osc</text>
</g>
<line x1="645.0" y1="165.0" x2="666.0" y2="165.0" style="stroke:#008080;stroke-width:1.5;stroke-linejoin:round;stroke-linecap:round;fill-rule: evenodd;" fill="none"/>
</svg>