<?xml version="1.0" encoding="UTF-8" standalone="no"?> 
<!DOCTYPE svg PUBLIC "-//W3C//Dtd SVG 1.1//EN" "http://www.w3.org/Graphics/SVG/1.1/Dtd/svg11.dtd">
<svg width="693.0" height="480.0" version="1.1" xmlns="http://www.w3.org/2000/svg" xmlns:xlink="http://www.w3.org/1999/xlink">
<!-- Created by FidoCadJ ver. 0.24.9 gamma, export filter by Davide Bucci -->
<g transform="translate(30.0,48.0) scale(1.2954545454545456,1) "><text x="0.0" y="12.0" font-family="Courier New" font-size="12.0" font-style="" font-weigth="bold" fill="#000000">E IL  BIMBO RISPOSE:</text>
</g>
<g transform="translate(39.0,72.0) scale(1.2954545454545456,1) "><text x="0.0" y="12.0" font-family="Courier New" font-size="12.0" font-style="" font-weigth="bold" fill="#000000">&amp;quot;FARO&apos; IL MASSIMO</text>
</g>
<g transform="translate(39.0,99.0) scale(1.2954545454545456,1) "><text x="0.0" y="12.0" font-family="Courier New" font-size="12.0" font-style="" font-weigth="bold" fill="#000000">ESPERTO DI POWER CENTER&amp;quot;</text>
</g>
<g transform="translate(42.0,21.0) scale(1.2954545454545456,1) "><text x="0.0" y="12.0" font-family="Courier New" font-size="12.0" font-style="" font-weigth="bold" fill="#000000">&amp;quot;CHE FARAI DA GRANDE?&amp;quot;</text>
</g>
<ellipse cx="105.0" cy="18.0" rx="0.0" ry="0.0" style="stroke:#000000;stroke-dashoffset: 0.0;stroke-width:1.2000000000000002;fill-rule: evenodd;" fill="none"/>
<path d="M 162.0,231.0 C 144.0,249.0 123.0,237.0 126.0,207.0" style="stroke:#000000;stroke-width:1.2000000000000002;fill-rule: evenodd;" fill="none"/>
<path d="M 126.0,207.0 C 135.0,162.0 162.0,171.0 159.0,144.0" style="stroke:#000000;stroke-width:1.2000000000000002;fill-rule: evenodd;" fill="none"/>
<path d="M 159.0,144.0 C 153.0,117.0 204.0,114.0 222.0,153.0" style="stroke:#000000;stroke-width:1.2000000000000002;fill-rule: evenodd;" fill="none"/>
<path d="M 222.0,153.0 C 249.0,210.0 213.0,222.0 195.0,177.0" style="stroke:#000000;stroke-width:1.2000000000000002;fill-rule: evenodd;" fill="none"/>
<path d="M 162.0,231.0 C 168.0,222.0 186.0,216.0 189.0,234.0" style="stroke:#000000;stroke-width:1.2000000000000002;fill-rule: evenodd;" fill="none"/>
<path d="M 189.0,234.0 C 195.0,249.0 186.0,252.0 171.0,258.0" style="stroke:#000000;stroke-width:1.2000000000000002;fill-rule: evenodd;" fill="none"/>
<path d="M 162.0,255.0 C 150.0,246.0 150.0,264.0 162.0,264.0" style="stroke:#000000;stroke-width:1.2000000000000002;fill-rule: evenodd;" fill="none"/>
<path d="M 159.0,264.0 C 153.0,270.0 165.0,276.0 165.0,270.0" style="stroke:#000000;stroke-width:1.2000000000000002;fill-rule: evenodd;" fill="none"/>
<path d="M 180.0,273.0 C 168.0,327.0 168.0,327.0 189.0,324.0" style="stroke:#000000;stroke-width:1.2000000000000002;fill-rule: evenodd;" fill="none"/>
<path d="M 189.0,324.0 C 207.0,327.0 243.0,330.0 234.0,282.0" style="stroke:#000000;stroke-width:1.2000000000000002;fill-rule: evenodd;" fill="none"/>
<path d="M 201.0,192.0 C 186.0,246.0 228.0,222.0 234.0,285.0" style="stroke:#000000;stroke-width:1.2000000000000002;fill-rule: evenodd;" fill="none"/>
<path d="M 159.0,264.0 C 159.0,270.0 156.0,276.0 156.0,261.0" style="stroke:#000000;stroke-width:1.2000000000000002;fill-rule: evenodd;" fill="none"/>
<path d="M 171.0,309.0 C 81.0,285.0 102.0,294.0 84.0,279.0" style="stroke:#000000;stroke-width:1.2000000000000002;fill-rule: evenodd;" fill="none"/>
<ellipse cx="100.5" cy="297.0" rx="7.5" ry="6.0" style="stroke:#000000;stroke-width:1.2000000000000002;fill-rule: evenodd;" fill="none"/>
<path d="M 93.0,300.0 C 72.0,297.0 84.0,306.0 96.0,303.0" style="stroke:#000000;stroke-width:1.2000000000000002;fill-rule: evenodd;" fill="none"/>
<path d="M 99.0,303.0 C 96.0,324.0 108.0,324.0 129.0,324.0" style="stroke:#000000;stroke-width:1.2000000000000002;fill-rule: evenodd;" fill="none"/>
<path d="M 129.0,324.0 C 153.0,324.0 177.0,327.0 174.0,324.0" style="stroke:#000000;stroke-width:1.2000000000000002;fill-rule: evenodd;" fill="none"/>
<circle cx="132.0" cy="297.0" r="2.25" style="stroke:#000000;stroke-width:0.33" fill="#000000"/>
<circle cx="141.0" cy="300.0" r="2.25" style="stroke:#000000;stroke-width:0.33" fill="#000000"/>
<circle cx="150.0" cy="303.0" r="2.25" style="stroke:#000000;stroke-width:0.33" fill="#000000"/>
<circle cx="159.0" cy="303.0" r="2.25" style="stroke:#000000;stroke-width:0.33" fill="#000000"/>
<path d="M 180.0,273.0 C 195.0,243.0 201.0,285.0 195.0,306.0" style="stroke:#000000;stroke-width:1.2000000000000002;fill-rule: evenodd;" fill="none"/>
<path d="M 195.0,306.0 C 207.0,309.0 216.0,309.0 219.0,306.0" style="stroke:#000000;stroke-width:1.2000000000000002;fill-rule: evenodd;" fill="none"/>
<path d="M 135.0,237.0 C 132.0,246.0 141.0,249.0 147.0,240.0" style="stroke:#000000;stroke-width:1.2000000000000002;fill-rule: evenodd;" fill="none"/>
<path d="M 159.0,171.0 C 165.0,174.0 165.0,177.0 159.0,171.0" style="stroke:#000000;stroke-width:1.2000000000000002;fill-rule: evenodd;" fill="none"/>
<path d="M 153.0,150.0 C 165.0,147.0 171.0,156.0 168.0,153.0" style="stroke:#000000;stroke-width:1.2000000000000002;fill-rule: evenodd;" fill="none"/>
<path d="M 165.0,270.0 C 168.0,273.0 171.0,270.0 174.0,267.0" style="stroke:#000000;stroke-width:1.2000000000000002;fill-rule: evenodd;" fill="none"/>
<path d="M 174.0,267.0 C 183.0,267.0 186.0,267.0 177.0,267.0" style="stroke:#000000;stroke-width:1.2000000000000002;fill-rule: evenodd;" fill="none"/>
<path d="M 174.0,267.0 C 183.0,264.0 186.0,264.0 186.0,264.0" style="stroke:#000000;stroke-width:1.2000000000000002;fill-rule: evenodd;" fill="none"/>
<path d="M 162.0,255.0 C 162.0,258.0 168.0,258.0 171.0,258.0" style="stroke:#000000;stroke-width:1.2000000000000002;fill-rule: evenodd;" fill="none"/>
<path d="M 153.0,255.0 C 147.0,258.0 150.0,261.0 156.0,261.0" style="stroke:#000000;stroke-width:1.2000000000000002;fill-rule: evenodd;" fill="none"/>
<line x1="180.0" y1="279.0" x2="186.0" y2="282.0" style="stroke:#000000;stroke-width:1.2000000000000002;fill-rule: evenodd;" fill="none"/>
<line x1="186.0" y1="282.0" x2="186.0" y2="282.0" style="stroke:#000000;stroke-width:1.2000000000000002;fill-rule: evenodd;" fill="none"/>
<line x1="180.0" y1="273.0" x2="186.0" y2="276.0" style="stroke:#000000;stroke-width:1.2000000000000002;fill-rule: evenodd;" fill="none"/>
<line x1="183.0" y1="234.0" x2="204.0" y2="225.0" style="stroke:#000000;stroke-linejoin:round;stroke-linecap:round;stroke-width:9"/>
<line x1="222.0" y1="198.0" x2="222.0" y2="180.0" style="stroke:#000000;stroke-linejoin:round;stroke-linecap:round;stroke-width:15"/>
<line x1="222.0" y1="180.0" x2="216.0" y2="162.0" style="stroke:#000000;stroke-linejoin:round;stroke-linecap:round;stroke-width:15"/>
<line x1="216.0" y1="162.0" x2="210.0" y2="150.0" style="stroke:#000000;stroke-linejoin:round;stroke-linecap:round;stroke-width:15"/>
<line x1="210.0" y1="150.0" x2="216.0" y2="192.0" style="stroke:#000000;stroke-linejoin:round;stroke-linecap:round;stroke-width:15"/>
<line x1="216.0" y1="192.0" x2="207.0" y2="180.0" style="stroke:#000000;stroke-linejoin:round;stroke-linecap:round;stroke-width:15"/>
<line x1="207.0" y1="180.0" x2="204.0" y2="156.0" style="stroke:#000000;stroke-linejoin:round;stroke-linecap:round;stroke-width:15"/>
<line x1="204.0" y1="156.0" x2="204.0" y2="156.0" style="stroke:#000000;stroke-linejoin:round;stroke-linecap:round;stroke-width:15"/>
<circle cx="138.0" cy="240.0" r="2.25" style="stroke:#000000;stroke-width:0.33" fill="#000000"/>
<circle cx="141.0" cy="240.0" r="2.25" style="stroke:#000000;stroke-width:0.33" fill="#000000"/>
<circle cx="141.0" cy="240.0" r="2.25" style="stroke:#000000;stroke-width:0.33" fill="#000000"/>
<circle cx="138.0" cy="243.0" r="2.25" style="stroke:#000000;stroke-width:0.33" fill="#000000"/>
<circle cx="141.0" cy="243.0" r="2.25" style="stroke:#000000;stroke-width:0.33" fill="#000000"/>
<path d="M 228.0,264.0 C 228.0,282.0 234.0,294.0 234.0,297.0" style="stroke:#000000;stroke-width:1.2000000000000002;fill-rule: evenodd;" fill="none"/>
<path d="M 228.0,270.0 C 231.0,285.0 231.0,291.0 234.0,291.0" style="stroke:#000000;stroke-width:1.2000000000000002;fill-rule: evenodd;" fill="none"/>
<path d="M 234.0,291.0 C 231.0,288.0 231.0,276.0 228.0,270.0" style="stroke:#000000;stroke-width:1.2000000000000002;fill-rule: evenodd;" fill="none"/>
<path d="M 228.0,267.0 C 231.0,270.0 234.0,285.0 234.0,288.0" style="stroke:#000000;stroke-width:1.2000000000000002;fill-rule: evenodd;" fill="none"/>
<path d="M 225.0,318.0 C 243.0,327.0 261.0,327.0 252.0,324.0" style="stroke:#000000;stroke-width:1.2000000000000002;fill-rule: evenodd;" fill="none"/>
<path d="M 252.0,324.0 C 246.0,318.0 234.0,312.0 231.0,312.0" style="stroke:#000000;stroke-width:1.2000000000000002;fill-rule: evenodd;" fill="none"/>
<line x1="93.0" y1="321.0" x2="84.0" y2="321.0" style="stroke:#000000;stroke-width:1.2000000000000002;fill-rule: evenodd;" fill="none"/>
<line x1="84.0" y1="321.0" x2="102.0" y2="321.0" style="stroke:#000000;stroke-width:1.2000000000000002;fill-rule: evenodd;" fill="none"/>
<line x1="102.0" y1="321.0" x2="105.0" y2="321.0" style="stroke:#000000;stroke-width:1.2000000000000002;fill-rule: evenodd;" fill="none"/>
<line x1="222.0" y1="321.0" x2="234.0" y2="321.0" style="stroke:#000000;stroke-width:1.2000000000000002;fill-rule: evenodd;" fill="none"/>
<line x1="234.0" y1="321.0" x2="234.0" y2="321.0" style="stroke:#000000;stroke-width:1.2000000000000002;fill-rule: evenodd;" fill="none"/>
<line x1="252.0" y1="321.0" x2="288.0" y2="321.0" style="stroke:#000000;stroke-width:1.2000000000000002;fill-rule: evenodd;" fill="none"/>
<line x1="288.0" y1="321.0" x2="288.0" y2="321.0" style="stroke:#000000;stroke-width:1.2000000000000002;fill-rule: evenodd;" fill="none"/>
<line x1="288.0" y1="321.0" x2="309.0" y2="405.0" style="stroke:#000000;stroke-width:1.2000000000000002;fill-rule: evenodd;" fill="none"/>
<line x1="309.0" y1="405.0" x2="60.0" y2="405.0" style="stroke:#000000;stroke-width:1.2000000000000002;fill-rule: evenodd;" fill="none"/>
<line x1="60.0" y1="405.0" x2="87.0" y2="321.0" style="stroke:#000000;stroke-width:1.2000000000000002;fill-rule: evenodd;" fill="none"/>
<line x1="87.0" y1="321.0" x2="87.0" y2="321.0" style="stroke:#000000;stroke-width:1.2000000000000002;fill-rule: evenodd;" fill="none"/>
<line x1="93.0" y1="345.0" x2="279.0" y2="345.0" style="stroke:#000000;stroke-width:1.2000000000000002;fill-rule: evenodd;" fill="none"/>
<line x1="279.0" y1="345.0" x2="276.0" y2="345.0" style="stroke:#000000;stroke-width:1.2000000000000002;fill-rule: evenodd;" fill="none"/>
<line x1="90.0" y1="375.0" x2="273.0" y2="375.0" style="stroke:#000000;stroke-width:1.2000000000000002;fill-rule: evenodd;" fill="none"/>
<rect x="12.0" y="12.0" rx="0" ry="0" width="330.0" height="393.0" style="stroke:#000000;stroke-width:1.2000000000000002;fill-rule: evenodd;" fill="none"/>
<path d="M 534.0,204.0 C 504.0,207.0 489.0,183.0 510.0,153.0" style="stroke:#000000;stroke-width:1.2000000000000002;fill-rule: evenodd;" fill="none"/>
<path d="M 510.0,153.0 C 528.0,132.0 564.0,150.0 579.0,129.0" style="stroke:#000000;stroke-width:1.2000000000000002;fill-rule: evenodd;" fill="none"/>
<path d="M 579.0,129.0 C 597.0,102.0 618.0,102.0 639.0,129.0" style="stroke:#000000;stroke-width:1.2000000000000002;fill-rule: evenodd;" fill="none"/>
<path d="M 639.0,129.0 C 672.0,174.0 660.0,231.0 633.0,228.0" style="stroke:#000000;stroke-width:1.2000000000000002;fill-rule: evenodd;" fill="none"/>
<path d="M 633.0,228.0 C 609.0,234.0 612.0,180.0 621.0,156.0" style="stroke:#000000;stroke-width:1.2000000000000002;fill-rule: evenodd;" fill="none"/>
<path d="M 531.0,204.0 C 564.0,201.0 573.0,222.0 579.0,234.0" style="stroke:#000000;stroke-width:1.2000000000000002;fill-rule: evenodd;" fill="none"/>
<path d="M 615.0,216.0 C 585.0,219.0 594.0,243.0 594.0,243.0" style="stroke:#000000;stroke-width:1.2000000000000002;fill-rule: evenodd;" fill="none"/>
<path d="M 597.0,243.0 C 612.0,285.0 654.0,351.0 618.0,351.0" style="stroke:#000000;stroke-width:1.2000000000000002;fill-rule: evenodd;" fill="none"/>
<path d="M 579.0,234.0 C 582.0,249.0 582.0,258.0 579.0,264.0" style="stroke:#000000;stroke-width:1.2000000000000002;fill-rule: evenodd;" fill="none"/>
<ellipse cx="531.0" cy="174.0" rx="9.0" ry="3.0" style="stroke:#000000;stroke-width:1.2000000000000002;fill-rule: evenodd;" fill="#000000"/>
<path d="M 573.0,279.0 C 558.0,318.0 555.0,354.0 570.0,354.0" style="stroke:#000000;stroke-width:1.2000000000000002;fill-rule: evenodd;" fill="none"/>
<path d="M 570.0,354.0 C 585.0,351.0 609.0,351.0 621.0,351.0" style="stroke:#000000;stroke-width:1.2000000000000002;fill-rule: evenodd;" fill="none"/>
<path d="M 573.0,279.0 C 591.0,270.0 591.0,312.0 588.0,327.0" style="stroke:#000000;stroke-width:1.2000000000000002;fill-rule: evenodd;" fill="none"/>
<path d="M 588.0,327.0 C 597.0,333.0 606.0,330.0 609.0,327.0" style="stroke:#000000;stroke-width:1.2000000000000002;fill-rule: evenodd;" fill="none"/>
<path d="M 567.0,273.0 C 552.0,270.0 543.0,279.0 552.0,285.0" style="stroke:#000000;stroke-width:1.2000000000000002;fill-rule: evenodd;" fill="none"/>
<path d="M 552.0,282.0 C 549.0,291.0 558.0,291.0 561.0,285.0" style="stroke:#000000;stroke-width:1.2000000000000002;fill-rule: evenodd;" fill="none"/>
<path d="M 561.0,285.0 C 567.0,291.0 567.0,285.0 570.0,282.0" style="stroke:#000000;stroke-width:1.2000000000000002;fill-rule: evenodd;" fill="none"/>
<path d="M 552.0,267.0 C 537.0,270.0 540.0,276.0 546.0,276.0" style="stroke:#000000;stroke-width:1.2000000000000002;fill-rule: evenodd;" fill="none"/>
<path d="M 606.0,267.0 C 600.0,279.0 621.0,297.0 615.0,294.0" style="stroke:#000000;stroke-width:1.2000000000000002;fill-rule: evenodd;" fill="none"/>
<path d="M 552.0,267.0 C 567.0,270.0 573.0,270.0 579.0,264.0" style="stroke:#000000;stroke-width:1.2000000000000002;fill-rule: evenodd;" fill="none"/>
<path d="M 468.0,306.0 C 501.0,327.0 561.0,333.0 561.0,339.0" style="stroke:#000000;stroke-width:1.2000000000000002;fill-rule: evenodd;" fill="none"/>
<ellipse cx="481.5" cy="324.0" rx="7.5" ry="6.0" style="stroke:#000000;stroke-width:1.2000000000000002;fill-rule: evenodd;" fill="none"/>
<ellipse cx="106.5" cy="306.0" rx="7.5" ry="0.0" style="stroke:#000000;stroke-width:1.2000000000000002;fill-rule: evenodd;" fill="none"/>
<path d="M 99.0,306.0 C 111.0,306.0 120.0,303.0 114.0,294.0" style="stroke:#000000;stroke-width:1.2000000000000002;fill-rule: evenodd;" fill="none"/>
<circle cx="99.0" cy="297.0" r="2.25" style="stroke:#000000;stroke-width:0.33" fill="#000000"/>
<circle cx="483.0" cy="324.0" r="2.25" style="stroke:#000000;stroke-width:0.33" fill="#000000"/>
<path d="M 480.0,318.0 C 492.0,309.0 513.0,339.0 477.0,336.0" style="stroke:#000000;stroke-width:1.2000000000000002;fill-rule: evenodd;" fill="none"/>
<path d="M 474.0,333.0 C 474.0,342.0 468.0,354.0 492.0,348.0" style="stroke:#000000;stroke-width:1.2000000000000002;fill-rule: evenodd;" fill="none"/>
<path d="M 486.0,357.0 C 519.0,357.0 540.0,357.0 564.0,357.0" style="stroke:#000000;stroke-width:1.2000000000000002;fill-rule: evenodd;" fill="none"/>
<path d="M 561.0,348.0 C 543.0,345.0 507.0,348.0 489.0,348.0" style="stroke:#000000;stroke-width:1.2000000000000002;fill-rule: evenodd;" fill="none"/>
<path d="M 570.0,153.0 C 573.0,171.0 564.0,165.0 570.0,159.0" style="stroke:#000000;stroke-width:1.2000000000000002;fill-rule: evenodd;" fill="none"/>
<path d="M 579.0,153.0 C 585.0,162.0 582.0,165.0 582.0,159.0" style="stroke:#000000;stroke-width:1.2000000000000002;fill-rule: evenodd;" fill="none"/>
<path d="M 567.0,216.0 C 588.0,216.0 588.0,195.0 588.0,198.0" style="stroke:#000000;stroke-width:1.2000000000000002;fill-rule: evenodd;" fill="none"/>
<circle cx="570.0" cy="162.0" r="2.25" style="stroke:#000000;stroke-width:0.33" fill="#000000"/>
<circle cx="582.0" cy="162.0" r="2.25" style="stroke:#000000;stroke-width:0.33" fill="#000000"/>
<circle cx="525.0" cy="324.0" r="2.25" style="stroke:#000000;stroke-width:0.33" fill="#000000"/>
<circle cx="531.0" cy="327.0" r="2.25" style="stroke:#000000;stroke-width:0.33" fill="#000000"/>
<circle cx="537.0" cy="327.0" r="2.25" style="stroke:#000000;stroke-width:0.33" fill="#000000"/>
<circle cx="543.0" cy="330.0" r="2.25" style="stroke:#000000;stroke-width:0.33" fill="#000000"/>
<path d="M 474.0,330.0 C 456.0,327.0 447.0,333.0 462.0,333.0" style="stroke:#000000;stroke-width:1.2000000000000002;fill-rule: evenodd;" fill="none"/>
<path d="M 462.0,333.0 C 471.0,333.0 477.0,333.0 480.0,330.0" style="stroke:#000000;stroke-width:1.2000000000000002;fill-rule: evenodd;" fill="none"/>
<line x1="621.0" y1="165.0" x2="624.0" y2="207.0" style="stroke:#000000;stroke-linejoin:round;stroke-linecap:round;stroke-width:15"/>
<line x1="624.0" y1="207.0" x2="630.0" y2="219.0" style="stroke:#000000;stroke-linejoin:round;stroke-linecap:round;stroke-width:15"/>
<line x1="630.0" y1="219.0" x2="636.0" y2="219.0" style="stroke:#000000;stroke-linejoin:round;stroke-linecap:round;stroke-width:15"/>
<line x1="636.0" y1="219.0" x2="642.0" y2="216.0" style="stroke:#000000;stroke-linejoin:round;stroke-linecap:round;stroke-width:15"/>
<line x1="642.0" y1="216.0" x2="648.0" y2="207.0" style="stroke:#000000;stroke-linejoin:round;stroke-linecap:round;stroke-width:15"/>
<line x1="648.0" y1="207.0" x2="648.0" y2="198.0" style="stroke:#000000;stroke-linejoin:round;stroke-linecap:round;stroke-width:15"/>
<line x1="648.0" y1="198.0" x2="651.0" y2="183.0" style="stroke:#000000;stroke-linejoin:round;stroke-linecap:round;stroke-width:15"/>
<line x1="651.0" y1="183.0" x2="648.0" y2="165.0" style="stroke:#000000;stroke-linejoin:round;stroke-linecap:round;stroke-width:15"/>
<line x1="648.0" y1="165.0" x2="642.0" y2="156.0" style="stroke:#000000;stroke-linejoin:round;stroke-linecap:round;stroke-width:15"/>
<line x1="642.0" y1="156.0" x2="636.0" y2="147.0" style="stroke:#000000;stroke-linejoin:round;stroke-linecap:round;stroke-width:15"/>
<line x1="636.0" y1="147.0" x2="639.0" y2="192.0" style="stroke:#000000;stroke-linejoin:round;stroke-linecap:round;stroke-width:15"/>
<line x1="639.0" y1="192.0" x2="636.0" y2="207.0" style="stroke:#000000;stroke-linejoin:round;stroke-linecap:round;stroke-width:15"/>
<line x1="636.0" y1="207.0" x2="627.0" y2="150.0" style="stroke:#000000;stroke-linejoin:round;stroke-linecap:round;stroke-width:15"/>
<line x1="627.0" y1="150.0" x2="627.0" y2="150.0" style="stroke:#000000;stroke-linejoin:round;stroke-linecap:round;stroke-width:15"/>
<line x1="576.0" y1="240.0" x2="600.0" y2="237.0" style="stroke:#000000;stroke-linejoin:round;stroke-linecap:round;stroke-width:9"/>
<line x1="567.0" y1="294.0" x2="576.0" y2="297.0" style="stroke:#000000;stroke-width:1.2000000000000002;fill-rule: evenodd;" fill="none"/>
<line x1="576.0" y1="297.0" x2="576.0" y2="297.0" style="stroke:#000000;stroke-width:1.2000000000000002;fill-rule: evenodd;" fill="none"/>
<line x1="567.0" y1="300.0" x2="576.0" y2="303.0" style="stroke:#000000;stroke-width:1.2000000000000002;fill-rule: evenodd;" fill="none"/>
<line x1="564.0" y1="288.0" x2="555.0" y2="333.0" style="stroke:#000000;stroke-width:1.2000000000000002;fill-rule: evenodd;" fill="none"/>
<line x1="555.0" y1="333.0" x2="555.0" y2="333.0" style="stroke:#000000;stroke-width:1.2000000000000002;fill-rule: evenodd;" fill="none"/>
<line x1="615.0" y1="291.0" x2="606.0" y2="276.0" style="stroke:#000000;stroke-width:1.2000000000000002;fill-rule: evenodd;" fill="none"/>
<line x1="567.0" y1="288.0" x2="567.0" y2="288.0" style="stroke:#000000;stroke-width:1.2000000000000002;fill-rule: evenodd;" fill="none"/>
<line x1="618.0" y1="294.0" x2="606.0" y2="273.0" style="stroke:#000000;stroke-width:1.2000000000000002;fill-rule: evenodd;" fill="none"/>
<line x1="606.0" y1="273.0" x2="606.0" y2="273.0" style="stroke:#000000;stroke-width:1.2000000000000002;fill-rule: evenodd;" fill="none"/>
<line x1="606.0" y1="273.0" x2="606.0" y2="273.0" style="stroke:#000000;stroke-width:1.2000000000000002;fill-rule: evenodd;" fill="none"/>
<line x1="450.0" y1="348.0" x2="471.0" y2="348.0" style="stroke:#000000;stroke-width:1.2000000000000002;fill-rule: evenodd;" fill="none"/>
<line x1="630.0" y1="348.0" x2="636.0" y2="348.0" style="stroke:#000000;stroke-width:1.2000000000000002;fill-rule: evenodd;" fill="none"/>
<line x1="450.0" y1="348.0" x2="438.0" y2="405.0" style="stroke:#000000;stroke-width:1.2000000000000002;fill-rule: evenodd;" fill="none"/>
<line x1="438.0" y1="402.0" x2="438.0" y2="402.0" style="stroke:#000000;stroke-width:1.2000000000000002;fill-rule: evenodd;" fill="none"/>
<line x1="654.0" y1="348.0" x2="678.0" y2="348.0" style="stroke:#000000;stroke-width:1.2000000000000002;fill-rule: evenodd;" fill="none"/>
<line x1="675.0" y1="405.0" x2="675.0" y2="405.0" style="stroke:#000000;stroke-width:1.2000000000000002;fill-rule: evenodd;" fill="none"/>
<line x1="453.0" y1="372.0" x2="672.0" y2="372.0" style="stroke:#000000;stroke-width:1.2000000000000002;fill-rule: evenodd;" fill="none"/>
<line x1="468.0" y1="393.0" x2="669.0" y2="393.0" style="stroke:#000000;stroke-width:1.2000000000000002;fill-rule: evenodd;" fill="none"/>
<line x1="588.0" y1="111.0" x2="594.0" y2="114.0" style="stroke:#000000;stroke-width:1.2000000000000002;fill-rule: evenodd;" fill="none"/>
<line x1="582.0" y1="114.0" x2="594.0" y2="120.0" style="stroke:#000000;stroke-width:1.2000000000000002;fill-rule: evenodd;" fill="none"/>
<line x1="588.0" y1="120.0" x2="588.0" y2="120.0" style="stroke:#000000;stroke-width:1.2000000000000002;fill-rule: evenodd;" fill="none"/>
<g transform="translate(384.0,45.0) scale(1.2954545454545456,1) "><text x="0.0" y="12.0" font-family="Courier New" font-size="12.0" font-style="" font-weigth="bold" fill="#000000">BEH, NIENTE DI STRANO</text>
</g>
<g transform="translate(387.0,93.0) scale(1.2954545454545456,1) "><text x="0.0" y="12.0" font-family="Courier New" font-size="12.0" font-style="" font-weigth="bold" fill="#000000">QUEL BIMBO ERA</text>
</g>
<g transform="translate(402.0,117.0) scale(1.2954545454545456,1) "><text x="0.0" y="12.0" font-family="Courier New" font-size="12.0" font-style="" font-weigth="bold" fill="#000000">MASSIMO-G!</text>
</g>
<g transform="translate(399.0,69.0) scale(1.2954545454545456,1) "><text x="0.0" y="12.0" font-family="Courier New" font-size="12.0" font-style="" font-weigth="bold" fill="#000000">POTEVA DIRLO:</text>
</g>
<path d="M 564.0,273.0 C 573.0,273.0 582.0,273.0 585.0,270.0" style="stroke:#000000;stroke-width:1.2000000000000002;fill-rule: evenodd;" fill="none"/>
<path d="M 378.0,42.0 C 360.0,57.0 360.0,114.0 384.0,135.0" style="stroke:#000000;stroke-width:1.2000000000000002;fill-rule: evenodd;" fill="none"/>
<path d="M 582.0,39.0 C 660.0,84.0 444.0,180.0 384.0,135.0" style="stroke:#000000;stroke-width:1.2000000000000002;fill-rule: evenodd;" fill="none"/>
<path d="M 378.0,42.0 C 396.0,24.0 537.0,15.0 582.0,39.0" style="stroke:#000000;stroke-width:1.2000000000000002;fill-rule: evenodd;" fill="none"/>
<ellipse cx="606.0" cy="64.5" rx="6.0" ry="7.5" style="stroke:#000000;stroke-width:1.2000000000000002;fill-rule: evenodd;" fill="none"/>
<ellipse cx="609.0" cy="76.5" rx="6.0" ry="4.5" style="stroke:#000000;stroke-width:1.2000000000000002;fill-rule: evenodd;" fill="none"/>
<rect x="345.0" y="12.0" rx="0" ry="0" width="336.0" height="393.0" style="stroke:#000000;stroke-width:1.2000000000000002;fill-rule: evenodd;" fill="none"/>
<path d="M 582.0,198.0 C 588.0,195.0 591.0,201.0 591.0,201.0" style="stroke:#000000;stroke-width:1.2000000000000002;fill-rule: evenodd;" fill="none"/>
<rect x="12.0" y="408.0" rx="0" ry="0" width="669.0" height="60.0" style="stroke:#000000;stroke-width:1.2000000000000002;fill-rule: evenodd;" fill="none"/>
<rect x="9.0" y="9.0" rx="0" ry="0" width="675.0" height="462.0" style="stroke:#000000;stroke-width:1.2000000000000002;fill-rule: evenodd;" fill="none"/>
<path d="M 654.0,351.0 C 648.0,345.0 636.0,339.0 633.0,339.0" style="stroke:#000000;stroke-width:1.2000000000000002;fill-rule: evenodd;" fill="none"/>
<path d="M 633.0,345.0 C 636.0,351.0 654.0,351.0 654.0,351.0" style="stroke:#000000;stroke-width:1.2000000000000002;fill-rule: evenodd;" fill="none"/>
<g transform="translate(93.0,420.0) scale(1.2954545454545456,1) "><text x="0.0" y="24.0" font-family="Courier New" font-size="24.0" font-style="" font-weigth="bold" fill="#ff0000">BUON COMPLEANNO MASSIMO-G!</text>
</g>
</svg>