<?xml version="1.0" encoding="UTF-8" standalone="no"?> 
<!DOCTYPE svg PUBLIC "-//W3C//Dtd SVG 1.1//EN" "http://www.w3.org/Graphics/SVG/1.1/Dtd/svg11.dtd">
<svg width="756.0" height="363.0" version="1.1" xmlns="http://www.w3.org/2000/svg" xmlns:xlink="http://www.w3.org/1999/xlink">
<!-- Created by FidoCadJ ver. 0.24.9 gamma, export filter by Davide Bucci -->
<line x1="174.0" y1="249.0" x2="174.0" y2="261.0" style="stroke:#000000;stroke-dashoffset: 0.0;stroke-width:1.5;fill-rule: evenodd;" fill="none"/>
<line x1="174.0" y1="267.0" x2="174.0" y2="279.0" style="stroke:#000000;stroke-width:1.5;fill-rule: evenodd;" fill="none"/>
<line x1="180.0" y1="261.0" x2="168.0" y2="261.0" style="stroke:#000000;stroke-width:1.5;fill-rule: evenodd;" fill="none"/>
<line x1="180.0" y1="267.0" x2="168.0" y2="267.0" style="stroke:#000000;stroke-width:1.5;fill-rule: evenodd;" fill="none"/>
<line x1="114.0" y1="249.0" x2="114.0" y2="255.0" style="stroke:#000000;stroke-width:1.5;fill-rule: evenodd;" fill="none"/>
<line x1="114.0" y1="273.0" x2="114.0" y2="279.0" style="stroke:#000000;stroke-width:1.5;fill-rule: evenodd;" fill="none"/>
<polygon points="120.0,264.0 126.0,261.0 126.0,267.0 " style="stroke:#000000;stroke-width:1.5;fill-rule: evenodd;" fill="#000000"/>
<line x1="120.0" y1="264.0" x2="129.0" y2="264.0" style="stroke:#000000;stroke-width:1.5;fill-rule: evenodd;" fill="none"/>
<rect x="108.0" y="255.0" rx="0" ry="0" width="12.0" height="18.0" style="stroke:#000000;stroke-width:1.5;fill-rule: evenodd;" fill="none"/>
<line x1="114.0" y1="84.0" x2="114.0" y2="96.0" style="stroke:#000000;stroke-width:1.5;fill-rule: evenodd;" fill="none"/>
<line x1="108.0" y1="102.0" x2="120.0" y2="102.0" style="stroke:#000000;stroke-width:1.5;fill-rule: evenodd;" fill="none"/>
<line x1="114.0" y1="102.0" x2="114.0" y2="114.0" style="stroke:#000000;stroke-width:1.5;fill-rule: evenodd;" fill="none"/>
<line x1="120.0" y1="87.0" x2="120.0" y2="93.0" style="stroke:#000000;stroke-width:1.5;fill-rule: evenodd;" fill="none"/>
<line x1="117.0" y1="90.0" x2="123.0" y2="90.0" style="stroke:#000000;stroke-width:1.5;fill-rule: evenodd;" fill="none"/>
<rect x="108.0" y="96.0" rx="0" ry="0" width="12.0" height="3.0" style="stroke:#000000;stroke-width:1.5;fill-rule: evenodd;" fill="none"/>
<line x1="114.0" y1="114.0" x2="114.0" y2="129.0" style="stroke:#000000;stroke-width:1.5;fill-rule: evenodd;" fill="none"/>
<line x1="105.0" y1="129.0" x2="123.0" y2="129.0" style="stroke:#000000;stroke-width:1.5;fill-rule: evenodd;" fill="none"/>
<line x1="108.0" y1="132.0" x2="120.0" y2="132.0" style="stroke:#000000;stroke-width:1.5;fill-rule: evenodd;" fill="none"/>
<line x1="111.0" y1="135.0" x2="117.0" y2="135.0" style="stroke:#000000;stroke-width:1.5;fill-rule: evenodd;" fill="none"/>
<line x1="39.0" y1="249.0" x2="33.0" y2="249.0" style="stroke:#000000;stroke-width:1.5;fill-rule: evenodd;" fill="none"/>
<ellipse cx="27.0" cy="249.0" rx="6.0" ry="6.0" style="stroke:#000000;stroke-width:1.5;fill-rule: evenodd;" fill="none"/>
<line x1="39.0" y1="294.0" x2="33.0" y2="294.0" style="stroke:#000000;stroke-width:1.5;fill-rule: evenodd;" fill="none"/>
<ellipse cx="27.0" cy="294.0" rx="6.0" ry="6.0" style="stroke:#000000;stroke-width:1.5;fill-rule: evenodd;" fill="none"/>
<line x1="39.0" y1="249.0" x2="114.0" y2="249.0" style="stroke:#000000;stroke-width:1.5;fill-rule: evenodd;" fill="none"/>
<line x1="114.0" y1="249.0" x2="114.0" y2="249.0" style="stroke:#000000;stroke-width:1.5;fill-rule: evenodd;" fill="none"/>
<line x1="114.0" y1="249.0" x2="114.0" y2="249.0" style="stroke:#000000;stroke-width:1.5;fill-rule: evenodd;" fill="none"/>
<line x1="39.0" y1="294.0" x2="114.0" y2="294.0" style="stroke:#000000;stroke-width:1.5;fill-rule: evenodd;" fill="none"/>
<line x1="114.0" y1="294.0" x2="114.0" y2="279.0" style="stroke:#000000;stroke-width:1.5;fill-rule: evenodd;" fill="none"/>
<line x1="129.0" y1="264.0" x2="144.0" y2="264.0" style="stroke:#000000;stroke-width:1.5;fill-rule: evenodd;" fill="none"/>
<line x1="144.0" y1="264.0" x2="144.0" y2="249.0" style="stroke:#000000;stroke-width:1.5;fill-rule: evenodd;" fill="none"/>
<line x1="144.0" y1="249.0" x2="174.0" y2="249.0" style="stroke:#000000;stroke-width:1.5;fill-rule: evenodd;" fill="none"/>
<line x1="114.0" y1="294.0" x2="174.0" y2="294.0" style="stroke:#000000;stroke-width:1.5;fill-rule: evenodd;" fill="none"/>
<line x1="174.0" y1="279.0" x2="174.0" y2="294.0" style="stroke:#000000;stroke-width:1.5;fill-rule: evenodd;" fill="none"/>
<line x1="279.0" y1="114.0" x2="384.0" y2="114.0" style="stroke:#000000;stroke-width:1.5;fill-rule: evenodd;" fill="none"/>
<line x1="384.0" y1="114.0" x2="384.0" y2="159.0" style="stroke:#000000;stroke-width:1.5;fill-rule: evenodd;" fill="none"/>
<line x1="384.0" y1="159.0" x2="279.0" y2="159.0" style="stroke:#000000;stroke-width:1.5;fill-rule: evenodd;" fill="none"/>
<line x1="279.0" y1="159.0" x2="264.0" y2="159.0" style="stroke:#000000;stroke-width:1.5;fill-rule: evenodd;" fill="none"/>
<line x1="264.0" y1="159.0" x2="264.0" y2="114.0" style="stroke:#000000;stroke-width:1.5;fill-rule: evenodd;" fill="none"/>
<line x1="264.0" y1="114.0" x2="279.0" y2="114.0" style="stroke:#000000;stroke-width:1.5;fill-rule: evenodd;" fill="none"/>
<line x1="279.0" y1="159.0" x2="279.0" y2="174.0" style="stroke:#000000;stroke-width:1.5;fill-rule: evenodd;" fill="none"/>
<line x1="279.0" y1="174.0" x2="279.0" y2="174.0" style="stroke:#000000;stroke-width:1.5;fill-rule: evenodd;" fill="none"/>
<line x1="294.0" y1="174.0" x2="294.0" y2="159.0" style="stroke:#000000;stroke-width:1.5;fill-rule: evenodd;" fill="none"/>
<line x1="309.0" y1="159.0" x2="309.0" y2="174.0" style="stroke:#000000;stroke-width:1.5;fill-rule: evenodd;" fill="none"/>
<line x1="324.0" y1="174.0" x2="324.0" y2="159.0" style="stroke:#000000;stroke-width:1.5;fill-rule: evenodd;" fill="none"/>
<line x1="339.0" y1="159.0" x2="339.0" y2="174.0" style="stroke:#000000;stroke-width:1.5;fill-rule: evenodd;" fill="none"/>
<line x1="354.0" y1="174.0" x2="354.0" y2="159.0" style="stroke:#000000;stroke-width:1.5;fill-rule: evenodd;" fill="none"/>
<line x1="369.0" y1="159.0" x2="369.0" y2="174.0" style="stroke:#000000;stroke-width:1.5;fill-rule: evenodd;" fill="none"/>
<line x1="369.0" y1="114.0" x2="369.0" y2="99.0" style="stroke:#000000;stroke-width:1.5;fill-rule: evenodd;" fill="none"/>
<line x1="354.0" y1="99.0" x2="354.0" y2="114.0" style="stroke:#000000;stroke-width:1.5;fill-rule: evenodd;" fill="none"/>
<line x1="339.0" y1="99.0" x2="339.0" y2="114.0" style="stroke:#000000;stroke-width:1.5;fill-rule: evenodd;" fill="none"/>
<line x1="324.0" y1="114.0" x2="324.0" y2="99.0" style="stroke:#000000;stroke-width:1.5;fill-rule: evenodd;" fill="none"/>
<line x1="309.0" y1="99.0" x2="309.0" y2="114.0" style="stroke:#000000;stroke-width:1.5;fill-rule: evenodd;" fill="none"/>
<line x1="294.0" y1="99.0" x2="294.0" y2="114.0" style="stroke:#000000;stroke-width:1.5;fill-rule: evenodd;" fill="none"/>
<line x1="279.0" y1="114.0" x2="279.0" y2="99.0" style="stroke:#000000;stroke-width:1.5;fill-rule: evenodd;" fill="none"/>
<line x1="174.0" y1="249.0" x2="369.0" y2="249.0" style="stroke:#000000;stroke-width:1.5;fill-rule: evenodd;" fill="none"/>
<line x1="369.0" y1="249.0" x2="369.0" y2="174.0" style="stroke:#000000;stroke-width:1.5;fill-rule: evenodd;" fill="none"/>
<line x1="174.0" y1="294.0" x2="414.0" y2="294.0" style="stroke:#000000;stroke-width:1.5;fill-rule: evenodd;" fill="none"/>
<line x1="414.0" y1="294.0" x2="414.0" y2="69.0" style="stroke:#000000;stroke-width:1.5;fill-rule: evenodd;" fill="none"/>
<line x1="414.0" y1="69.0" x2="369.0" y2="69.0" style="stroke:#000000;stroke-width:1.5;fill-rule: evenodd;" fill="none"/>
<line x1="369.0" y1="69.0" x2="369.0" y2="99.0" style="stroke:#000000;stroke-width:1.5;fill-rule: evenodd;" fill="none"/>
<line x1="339.0" y1="99.0" x2="339.0" y2="69.0" style="stroke:#000000;stroke-width:1.5;fill-rule: evenodd;" fill="none"/>
<line x1="339.0" y1="69.0" x2="369.0" y2="69.0" style="stroke:#000000;stroke-width:1.5;fill-rule: evenodd;" fill="none"/>
<line x1="369.0" y1="69.0" x2="369.0" y2="69.0" style="stroke:#000000;stroke-width:1.5;fill-rule: evenodd;" fill="none"/>
<line x1="369.0" y1="69.0" x2="369.0" y2="69.0" style="stroke:#000000;stroke-width:1.5;fill-rule: evenodd;" fill="none"/>
<line x1="339.0" y1="174.0" x2="339.0" y2="186.0" style="stroke:#000000;stroke-width:1.5;fill-rule: evenodd;" fill="none"/>
<line x1="339.0" y1="192.0" x2="339.0" y2="204.0" style="stroke:#000000;stroke-width:1.5;fill-rule: evenodd;" fill="none"/>
<line x1="345.0" y1="186.0" x2="333.0" y2="186.0" style="stroke:#000000;stroke-width:1.5;fill-rule: evenodd;" fill="none"/>
<line x1="345.0" y1="192.0" x2="333.0" y2="192.0" style="stroke:#000000;stroke-width:1.5;fill-rule: evenodd;" fill="none"/>
<line x1="339.0" y1="264.0" x2="339.0" y2="255.0" style="stroke:#000000;stroke-width:1.5;fill-rule: evenodd;" fill="none"/>
<line x1="339.0" y1="234.0" x2="339.0" y2="243.0" style="stroke:#000000;stroke-width:1.5;fill-rule: evenodd;" fill="none"/>
<path d="M 339.0,255.0 C 333.0,252.0 333.0,246.0 339.0,243.0" style="stroke:#000000;stroke-width:1.5;fill-rule: evenodd;" fill="none"/>
<line x1="339.0" y1="264.0" x2="339.0" y2="294.0" style="stroke:#000000;stroke-width:1.5;fill-rule: evenodd;" fill="none"/>
<line x1="309.0" y1="174.0" x2="309.0" y2="186.0" style="stroke:#000000;stroke-width:1.5;fill-rule: evenodd;" fill="none"/>
<line x1="309.0" y1="192.0" x2="309.0" y2="204.0" style="stroke:#000000;stroke-width:1.5;fill-rule: evenodd;" fill="none"/>
<line x1="315.0" y1="186.0" x2="303.0" y2="186.0" style="stroke:#000000;stroke-width:1.5;fill-rule: evenodd;" fill="none"/>
<line x1="315.0" y1="192.0" x2="303.0" y2="192.0" style="stroke:#000000;stroke-width:1.5;fill-rule: evenodd;" fill="none"/>
<line x1="309.0" y1="264.0" x2="309.0" y2="255.0" style="stroke:#000000;stroke-width:1.5;fill-rule: evenodd;" fill="none"/>
<line x1="309.0" y1="234.0" x2="309.0" y2="243.0" style="stroke:#000000;stroke-width:1.5;fill-rule: evenodd;" fill="none"/>
<path d="M 309.0,255.0 C 303.0,252.0 303.0,246.0 309.0,243.0" style="stroke:#000000;stroke-width:1.5;fill-rule: evenodd;" fill="none"/>
<line x1="309.0" y1="204.0" x2="309.0" y2="234.0" style="stroke:#000000;stroke-width:1.5;fill-rule: evenodd;" fill="none"/>
<line x1="309.0" y1="264.0" x2="309.0" y2="294.0" style="stroke:#000000;stroke-width:1.5;fill-rule: evenodd;" fill="none"/>
<line x1="564.0" y1="159.0" x2="558.0" y2="159.0" style="stroke:#000000;stroke-width:1.5;fill-rule: evenodd;" fill="none"/>
<rect x="540.0" y="156.0" rx="0" ry="0" width="18.0" height="6.0" style="stroke:#000000;stroke-width:1.5;fill-rule: evenodd;" fill="none"/>
<line x1="540.0" y1="159.0" x2="534.0" y2="159.0" style="stroke:#000000;stroke-width:1.5;fill-rule: evenodd;" fill="none"/>
<line x1="324.0" y1="234.0" x2="324.0" y2="228.0" style="stroke:#000000;stroke-width:1.5;fill-rule: evenodd;" fill="none"/>
<rect x="321.0" y="210.0" rx="0" ry="0" width="6.0" height="18.0" style="stroke:#000000;stroke-width:1.5;fill-rule: evenodd;" fill="none"/>
<line x1="324.0" y1="210.0" x2="324.0" y2="204.0" style="stroke:#000000;stroke-width:1.5;fill-rule: evenodd;" fill="none"/>
<line x1="324.0" y1="174.0" x2="324.0" y2="186.0" style="stroke:#000000;stroke-width:1.5;fill-rule: evenodd;" fill="none"/>
<line x1="324.0" y1="192.0" x2="324.0" y2="204.0" style="stroke:#000000;stroke-width:1.5;fill-rule: evenodd;" fill="none"/>
<line x1="330.0" y1="186.0" x2="318.0" y2="186.0" style="stroke:#000000;stroke-width:1.5;fill-rule: evenodd;" fill="none"/>
<line x1="330.0" y1="192.0" x2="318.0" y2="192.0" style="stroke:#000000;stroke-width:1.5;fill-rule: evenodd;" fill="none"/>
<line x1="474.0" y1="69.0" x2="474.0" y2="81.0" style="stroke:#000000;stroke-width:1.5;fill-rule: evenodd;" fill="none"/>
<line x1="474.0" y1="87.0" x2="474.0" y2="99.0" style="stroke:#000000;stroke-width:1.5;fill-rule: evenodd;" fill="none"/>
<line x1="480.0" y1="81.0" x2="468.0" y2="81.0" style="stroke:#000000;stroke-width:1.5;fill-rule: evenodd;" fill="none"/>
<line x1="480.0" y1="87.0" x2="468.0" y2="87.0" style="stroke:#000000;stroke-width:1.5;fill-rule: evenodd;" fill="none"/>
<line x1="339.0" y1="324.0" x2="333.0" y2="324.0" style="stroke:#000000;stroke-width:1.5;fill-rule: evenodd;" fill="none"/>
<rect x="315.0" y="321.0" rx="0" ry="0" width="18.0" height="6.0" style="stroke:#000000;stroke-width:1.5;fill-rule: evenodd;" fill="none"/>
<line x1="315.0" y1="324.0" x2="309.0" y2="324.0" style="stroke:#000000;stroke-width:1.5;fill-rule: evenodd;" fill="none"/>
<line x1="549.0" y1="105.0" x2="564.0" y2="114.0" style="stroke:#000000;stroke-width:1.5;fill-rule: evenodd;" fill="none"/>
<line x1="519.0" y1="99.0" x2="549.0" y2="99.0" style="stroke:#000000;stroke-width:1.5;fill-rule: evenodd;" fill="none"/>
<line x1="549.0" y1="84.0" x2="549.0" y2="114.0" style="stroke:#000000;stroke-width:1.5;fill-rule: evenodd;" fill="none"/>
<line x1="564.0" y1="84.0" x2="564.0" y2="69.0" style="stroke:#000000;stroke-width:1.5;fill-rule: evenodd;" fill="none"/>
<line x1="549.0" y1="93.0" x2="564.0" y2="84.0" style="stroke:#000000;stroke-width:1.5;fill-rule: evenodd;" fill="none"/>
<line x1="564.0" y1="114.0" x2="564.0" y2="129.0" style="stroke:#000000;stroke-width:1.5;fill-rule: evenodd;" fill="none"/>
<ellipse cx="555.0" cy="99.0" rx="18.0" ry="18.0" style="stroke:#000000;stroke-width:1.5;fill-rule: evenodd;" fill="none"/>
<polygon points="558.0,114.0 561.0,108.0 564.0,114.0 " style="stroke:#000000;stroke-width:1.5;fill-rule: evenodd;" fill="#000000"/>
<polygon points="555.0,213.0 552.0,207.0 549.0,213.0 " style="stroke:#000000;stroke-width:1.5;fill-rule: evenodd;" fill="#000000"/>
<line x1="549.0" y1="225.0" x2="564.0" y2="234.0" style="stroke:#000000;stroke-width:1.5;fill-rule: evenodd;" fill="none"/>
<line x1="519.0" y1="219.0" x2="549.0" y2="219.0" style="stroke:#000000;stroke-width:1.5;fill-rule: evenodd;" fill="none"/>
<line x1="549.0" y1="204.0" x2="549.0" y2="234.0" style="stroke:#000000;stroke-width:1.5;fill-rule: evenodd;" fill="none"/>
<line x1="564.0" y1="204.0" x2="564.0" y2="189.0" style="stroke:#000000;stroke-width:1.5;fill-rule: evenodd;" fill="none"/>
<line x1="549.0" y1="213.0" x2="564.0" y2="204.0" style="stroke:#000000;stroke-width:1.5;fill-rule: evenodd;" fill="none"/>
<line x1="564.0" y1="234.0" x2="564.0" y2="249.0" style="stroke:#000000;stroke-width:1.5;fill-rule: evenodd;" fill="none"/>
<ellipse cx="555.0" cy="219.0" rx="18.0" ry="18.0" style="stroke:#000000;stroke-width:1.5;fill-rule: evenodd;" fill="none"/>
<line x1="609.0" y1="144.0" x2="609.0" y2="156.0" style="stroke:#000000;stroke-width:1.5;fill-rule: evenodd;" fill="none"/>
<line x1="603.0" y1="162.0" x2="615.0" y2="162.0" style="stroke:#000000;stroke-width:1.5;fill-rule: evenodd;" fill="none"/>
<line x1="609.0" y1="162.0" x2="609.0" y2="174.0" style="stroke:#000000;stroke-width:1.5;fill-rule: evenodd;" fill="none"/>
<line x1="615.0" y1="147.0" x2="615.0" y2="153.0" style="stroke:#000000;stroke-width:1.5;fill-rule: evenodd;" fill="none"/>
<line x1="612.0" y1="150.0" x2="618.0" y2="150.0" style="stroke:#000000;stroke-width:1.5;fill-rule: evenodd;" fill="none"/>
<rect x="603.0" y="156.0" rx="0" ry="0" width="12.0" height="3.0" style="stroke:#000000;stroke-width:1.5;fill-rule: evenodd;" fill="none"/>
<line x1="339.0" y1="204.0" x2="339.0" y2="210.0" style="stroke:#000000;stroke-width:1.5;fill-rule: evenodd;" fill="none"/>
<rect x="336.0" y="210.0" rx="0" ry="0" width="6.0" height="18.0" style="stroke:#000000;stroke-width:1.5;fill-rule: evenodd;" fill="none"/>
<line x1="339.0" y1="228.0" x2="339.0" y2="234.0" style="stroke:#000000;stroke-width:1.5;fill-rule: evenodd;" fill="none"/>
<line x1="324.0" y1="264.0" x2="324.0" y2="255.0" style="stroke:#000000;stroke-width:1.5;fill-rule: evenodd;" fill="none"/>
<line x1="324.0" y1="234.0" x2="324.0" y2="243.0" style="stroke:#000000;stroke-width:1.5;fill-rule: evenodd;" fill="none"/>
<path d="M 324.0,255.0 C 318.0,252.0 318.0,246.0 324.0,243.0" style="stroke:#000000;stroke-width:1.5;fill-rule: evenodd;" fill="none"/>
<line x1="324.0" y1="264.0" x2="324.0" y2="294.0" style="stroke:#000000;stroke-width:1.5;fill-rule: evenodd;" fill="none"/>
<line x1="324.0" y1="294.0" x2="324.0" y2="294.0" style="stroke:#000000;stroke-width:1.5;fill-rule: evenodd;" fill="none"/>
<line x1="519.0" y1="99.0" x2="504.0" y2="99.0" style="stroke:#000000;stroke-width:1.5;fill-rule: evenodd;" fill="none"/>
<line x1="504.0" y1="99.0" x2="504.0" y2="219.0" style="stroke:#000000;stroke-width:1.5;fill-rule: evenodd;" fill="none"/>
<line x1="504.0" y1="219.0" x2="519.0" y2="219.0" style="stroke:#000000;stroke-width:1.5;fill-rule: evenodd;" fill="none"/>
<line x1="519.0" y1="219.0" x2="519.0" y2="219.0" style="stroke:#000000;stroke-width:1.5;fill-rule: evenodd;" fill="none"/>
<line x1="564.0" y1="129.0" x2="564.0" y2="189.0" style="stroke:#000000;stroke-width:1.5;fill-rule: evenodd;" fill="none"/>
<line x1="534.0" y1="159.0" x2="504.0" y2="159.0" style="stroke:#000000;stroke-width:1.5;fill-rule: evenodd;" fill="none"/>
<line x1="279.0" y1="174.0" x2="279.0" y2="189.0" style="stroke:#000000;stroke-width:1.5;fill-rule: evenodd;" fill="none"/>
<line x1="279.0" y1="189.0" x2="234.0" y2="189.0" style="stroke:#000000;stroke-width:1.5;fill-rule: evenodd;" fill="none"/>
<line x1="234.0" y1="189.0" x2="234.0" y2="39.0" style="stroke:#000000;stroke-width:1.5;fill-rule: evenodd;" fill="none"/>
<line x1="564.0" y1="24.0" x2="564.0" y2="33.0" style="stroke:#000000;stroke-width:1.5;fill-rule: evenodd;" fill="none"/>
<line x1="564.0" y1="54.0" x2="564.0" y2="45.0" style="stroke:#000000;stroke-width:1.5;fill-rule: evenodd;" fill="none"/>
<path d="M 564.0,33.0 C 570.0,36.0 570.0,42.0 564.0,45.0" style="stroke:#000000;stroke-width:1.5;fill-rule: evenodd;" fill="none"/>
<line x1="564.0" y1="54.0" x2="564.0" y2="69.0" style="stroke:#000000;stroke-width:1.5;fill-rule: evenodd;" fill="none"/>
<line x1="564.0" y1="24.0" x2="114.0" y2="24.0" style="stroke:#000000;stroke-width:1.5;fill-rule: evenodd;" fill="none"/>
<line x1="114.0" y1="24.0" x2="114.0" y2="84.0" style="stroke:#000000;stroke-width:1.5;fill-rule: evenodd;" fill="none"/>
<line x1="279.0" y1="99.0" x2="279.0" y2="99.0" style="stroke:#000000;stroke-width:1.5;fill-rule: evenodd;" fill="none"/>
<line x1="279.0" y1="24.0" x2="279.0" y2="33.0" style="stroke:#000000;stroke-width:1.5;fill-rule: evenodd;" fill="none"/>
<line x1="279.0" y1="54.0" x2="279.0" y2="45.0" style="stroke:#000000;stroke-width:1.5;fill-rule: evenodd;" fill="none"/>
<path d="M 279.0,33.0 C 285.0,36.0 285.0,42.0 279.0,45.0" style="stroke:#000000;stroke-width:1.5;fill-rule: evenodd;" fill="none"/>
<line x1="279.0" y1="54.0" x2="279.0" y2="99.0" style="stroke:#000000;stroke-width:1.5;fill-rule: evenodd;" fill="none"/>
<line x1="474.0" y1="24.0" x2="474.0" y2="33.0" style="stroke:#000000;stroke-width:1.5;fill-rule: evenodd;" fill="none"/>
<line x1="474.0" y1="54.0" x2="474.0" y2="45.0" style="stroke:#000000;stroke-width:1.5;fill-rule: evenodd;" fill="none"/>
<path d="M 474.0,33.0 C 480.0,36.0 480.0,42.0 474.0,45.0" style="stroke:#000000;stroke-width:1.5;fill-rule: evenodd;" fill="none"/>
<line x1="474.0" y1="54.0" x2="474.0" y2="69.0" style="stroke:#000000;stroke-width:1.5;fill-rule: evenodd;" fill="none"/>
<line x1="309.0" y1="99.0" x2="309.0" y2="54.0" style="stroke:#000000;stroke-width:1.5;fill-rule: evenodd;" fill="none"/>
<line x1="309.0" y1="54.0" x2="429.0" y2="54.0" style="stroke:#000000;stroke-width:1.5;fill-rule: evenodd;" fill="none"/>
<line x1="429.0" y1="54.0" x2="429.0" y2="114.0" style="stroke:#000000;stroke-width:1.5;fill-rule: evenodd;" fill="none"/>
<line x1="429.0" y1="114.0" x2="474.0" y2="114.0" style="stroke:#000000;stroke-width:1.5;fill-rule: evenodd;" fill="none"/>
<line x1="474.0" y1="114.0" x2="474.0" y2="99.0" style="stroke:#000000;stroke-width:1.5;fill-rule: evenodd;" fill="none"/>
<line x1="474.0" y1="99.0" x2="474.0" y2="99.0" style="stroke:#000000;stroke-width:1.5;fill-rule: evenodd;" fill="none"/>
<line x1="474.0" y1="114.0" x2="474.0" y2="159.0" style="stroke:#000000;stroke-width:1.5;fill-rule: evenodd;" fill="none"/>
<line x1="474.0" y1="159.0" x2="504.0" y2="159.0" style="stroke:#000000;stroke-width:1.5;fill-rule: evenodd;" fill="none"/>
<line x1="504.0" y1="159.0" x2="504.0" y2="159.0" style="stroke:#000000;stroke-width:1.5;fill-rule: evenodd;" fill="none"/>
<line x1="414.0" y1="294.0" x2="564.0" y2="294.0" style="stroke:#000000;stroke-width:1.5;fill-rule: evenodd;" fill="none"/>
<line x1="564.0" y1="294.0" x2="564.0" y2="249.0" style="stroke:#000000;stroke-width:1.5;fill-rule: evenodd;" fill="none"/>
<line x1="354.0" y1="264.0" x2="354.0" y2="255.0" style="stroke:#000000;stroke-width:1.5;fill-rule: evenodd;" fill="none"/>
<line x1="354.0" y1="234.0" x2="354.0" y2="243.0" style="stroke:#000000;stroke-width:1.5;fill-rule: evenodd;" fill="none"/>
<path d="M 354.0,255.0 C 348.0,252.0 348.0,246.0 354.0,243.0" style="stroke:#000000;stroke-width:1.5;fill-rule: evenodd;" fill="none"/>
<line x1="354.0" y1="309.0" x2="354.0" y2="300.0" style="stroke:#000000;stroke-width:1.5;fill-rule: evenodd;" fill="none"/>
<line x1="354.0" y1="279.0" x2="354.0" y2="288.0" style="stroke:#000000;stroke-width:1.5;fill-rule: evenodd;" fill="none"/>
<path d="M 354.0,300.0 C 348.0,297.0 348.0,291.0 354.0,288.0" style="stroke:#000000;stroke-width:1.5;fill-rule: evenodd;" fill="none"/>
<line x1="354.0" y1="174.0" x2="354.0" y2="234.0" style="stroke:#000000;stroke-width:1.5;fill-rule: evenodd;" fill="none"/>
<line x1="354.0" y1="264.0" x2="354.0" y2="279.0" style="stroke:#000000;stroke-width:1.5;fill-rule: evenodd;" fill="none"/>
<line x1="354.0" y1="309.0" x2="294.0" y2="309.0" style="stroke:#000000;stroke-width:1.5;fill-rule: evenodd;" fill="none"/>
<line x1="294.0" y1="309.0" x2="294.0" y2="324.0" style="stroke:#000000;stroke-width:1.5;fill-rule: evenodd;" fill="none"/>
<line x1="294.0" y1="324.0" x2="309.0" y2="324.0" style="stroke:#000000;stroke-width:1.5;fill-rule: evenodd;" fill="none"/>
<line x1="339.0" y1="324.0" x2="609.0" y2="324.0" style="stroke:#000000;stroke-width:1.5;fill-rule: evenodd;" fill="none"/>
<line x1="609.0" y1="324.0" x2="609.0" y2="174.0" style="stroke:#000000;stroke-width:1.5;fill-rule: evenodd;" fill="none"/>
<line x1="609.0" y1="174.0" x2="609.0" y2="174.0" style="stroke:#000000;stroke-width:1.5;fill-rule: evenodd;" fill="none"/>
<line x1="609.0" y1="174.0" x2="564.0" y2="174.0" style="stroke:#000000;stroke-width:1.5;fill-rule: evenodd;" fill="none"/>
<line x1="699.0" y1="39.0" x2="705.0" y2="39.0" style="stroke:#000000;stroke-width:1.5;fill-rule: evenodd;" fill="none"/>
<ellipse cx="711.0" cy="39.0" rx="6.0" ry="6.0" style="stroke:#000000;stroke-width:1.5;fill-rule: evenodd;" fill="none"/>
<line x1="639.0" y1="69.0" x2="645.0" y2="69.0" style="stroke:#000000;stroke-width:1.5;fill-rule: evenodd;" fill="none"/>
<ellipse cx="651.0" cy="69.0" rx="6.0" ry="6.0" style="stroke:#000000;stroke-width:1.5;fill-rule: evenodd;" fill="none"/>
<line x1="609.0" y1="144.0" x2="609.0" y2="69.0" style="stroke:#000000;stroke-width:1.5;fill-rule: evenodd;" fill="none"/>
<line x1="234.0" y1="39.0" x2="609.0" y2="39.0" style="stroke:#000000;stroke-width:1.5;fill-rule: evenodd;" fill="none"/>
<line x1="609.0" y1="39.0" x2="609.0" y2="69.0" style="stroke:#000000;stroke-width:1.5;fill-rule: evenodd;" fill="none"/>
<line x1="564.0" y1="24.0" x2="654.0" y2="24.0" style="stroke:#000000;stroke-width:1.5;fill-rule: evenodd;" fill="none"/>
<line x1="699.0" y1="24.0" x2="699.0" y2="39.0" style="stroke:#000000;stroke-width:1.5;fill-rule: evenodd;" fill="none"/>
<line x1="249.0" y1="294.0" x2="249.0" y2="309.0" style="stroke:#000000;stroke-width:1.5;fill-rule: evenodd;" fill="none"/>
<line x1="240.0" y1="309.0" x2="258.0" y2="309.0" style="stroke:#000000;stroke-width:1.5;fill-rule: evenodd;" fill="none"/>
<line x1="243.0" y1="312.0" x2="255.0" y2="312.0" style="stroke:#000000;stroke-width:1.5;fill-rule: evenodd;" fill="none"/>
<line x1="246.0" y1="315.0" x2="252.0" y2="315.0" style="stroke:#000000;stroke-width:1.5;fill-rule: evenodd;" fill="none"/>
<circle cx="279.0" cy="24.0" r="3.0" style="stroke:#000000;stroke-width:0.33" fill="#000000"/>
<circle cx="474.0" cy="24.0" r="3.0" style="stroke:#000000;stroke-width:0.33" fill="#000000"/>
<circle cx="564.0" cy="24.0" r="3.0" style="stroke:#000000;stroke-width:0.33" fill="#000000"/>
<circle cx="609.0" cy="69.0" r="3.0" style="stroke:#000000;stroke-width:0.33" fill="#000000"/>
<circle cx="564.0" cy="174.0" r="3.0" style="stroke:#000000;stroke-width:0.33" fill="#000000"/>
<circle cx="564.0" cy="159.0" r="3.0" style="stroke:#000000;stroke-width:0.33" fill="#000000"/>
<circle cx="504.0" cy="159.0" r="3.0" style="stroke:#000000;stroke-width:0.33" fill="#000000"/>
<circle cx="474.0" cy="114.0" r="3.0" style="stroke:#000000;stroke-width:0.33" fill="#000000"/>
<circle cx="369.0" cy="69.0" r="3.0" style="stroke:#000000;stroke-width:0.33" fill="#000000"/>
<circle cx="309.0" cy="294.0" r="3.0" style="stroke:#000000;stroke-width:0.33" fill="#000000"/>
<circle cx="324.0" cy="294.0" r="3.0" style="stroke:#000000;stroke-width:0.33" fill="#000000"/>
<circle cx="339.0" cy="294.0" r="3.0" style="stroke:#000000;stroke-width:0.33" fill="#000000"/>
<circle cx="609.0" cy="174.0" r="3.0" style="stroke:#000000;stroke-width:0.33" fill="#000000"/>
<circle cx="174.0" cy="294.0" r="3.0" style="stroke:#000000;stroke-width:0.33" fill="#000000"/>
<circle cx="249.0" cy="294.0" r="3.0" style="stroke:#000000;stroke-width:0.33" fill="#000000"/>
<circle cx="174.0" cy="249.0" r="3.0" style="stroke:#000000;stroke-width:0.33" fill="#000000"/>
<circle cx="114.0" cy="294.0" r="3.0" style="stroke:#000000;stroke-width:0.33" fill="#000000"/>
<g transform="translate(129.0,99.0) scale(1.2954545454545456,1) "><text x="0.0" y="12.0" font-family="Courier New" font-size="12.0" font-style="" font-weigth="" fill="#000000">c5</text>
</g>
<g transform="translate(279.0,144.0) scale(1.2954545454545456,1) "><text x="0.0" y="12.0" font-family="Courier New" font-size="12.0" font-style="" font-weigth="" fill="#000000">1</text>
</g>
<g transform="translate(309.0,144.0) scale(1.2954545454545456,1) "><text x="0.0" y="12.0" font-family="Courier New" font-size="12.0" font-style="" font-weigth="" fill="#000000">3</text>
</g>
<g transform="translate(324.0,144.0) scale(1.2954545454545456,1) "><text x="0.0" y="12.0" font-family="Courier New" font-size="12.0" font-style="" font-weigth="" fill="#000000">4</text>
</g>
<g transform="translate(339.0,144.0) scale(1.2954545454545456,1) "><text x="0.0" y="12.0" font-family="Courier New" font-size="12.0" font-style="" font-weigth="" fill="#000000">5</text>
</g>
<g transform="translate(354.0,144.0) scale(1.2954545454545456,1) "><text x="0.0" y="12.0" font-family="Courier New" font-size="12.0" font-style="" font-weigth="" fill="#000000">6</text>
</g>
<g transform="translate(369.0,144.0) scale(1.2954545454545456,1) "><text x="0.0" y="12.0" font-family="Courier New" font-size="12.0" font-style="" font-weigth="" fill="#000000">7</text>
</g>
<g transform="translate(369.0,114.0) scale(1.2954545454545456,1) "><text x="0.0" y="12.0" font-family="Courier New" font-size="12.0" font-style="" font-weigth="" fill="#000000">8</text>
</g>
<g transform="translate(339.0,114.0) scale(1.2954545454545456,1) "><text x="0.0" y="12.0" font-family="Courier New" font-size="12.0" font-style="" font-weigth="" fill="#000000">10</text>
</g>
<g transform="translate(309.0,114.0) scale(1.2954545454545456,1) "><text x="0.0" y="12.0" font-family="Courier New" font-size="12.0" font-style="" font-weigth="" fill="#000000">12</text>
</g>
<g transform="translate(279.0,114.0) scale(1.2954545454545456,1) "><text x="0.0" y="12.0" font-family="Courier New" font-size="12.0" font-style="" font-weigth="" fill="#000000">14</text>
</g>
<g transform="translate(489.0,84.0) scale(1.2954545454545456,1) "><text x="0.0" y="12.0" font-family="Courier New" font-size="12.0" font-style="" font-weigth="" fill="#000000">c7</text>
</g>
<g transform="translate(534.0,159.0) scale(1.2954545454545456,1) "><text x="0.0" y="12.0" font-family="Courier New" font-size="12.0" font-style="" font-weigth="" fill="#000000">r5</text>
</g>
<g transform="translate(519.0,249.0) scale(1.2954545454545456,1) "><text x="0.0" y="12.0" font-family="Courier New" font-size="12.0" font-style="" font-weigth="" fill="#000000">tr1</text>
</g>
<g transform="translate(519.0,129.0) scale(1.2954545454545456,1) "><text x="0.0" y="12.0" font-family="Courier New" font-size="12.0" font-style="" font-weigth="" fill="#000000">tr2</text>
</g>
<g transform="translate(624.0,159.0) scale(1.2954545454545456,1) "><text x="0.0" y="12.0" font-family="Courier New" font-size="12.0" font-style="" font-weigth="" fill="#000000">c6</text>
</g>
<g transform="translate(324.0,339.0) scale(1.2954545454545456,1) "><text x="0.0" y="12.0" font-family="Courier New" font-size="12.0" font-style="" font-weigth="" fill="#000000">r3</text>
</g>
<g transform="translate(249.0,324.0) scale(1.2954545454545456,1) "><text x="0.0" y="12.0" font-family="Courier New" font-size="12.0" font-style="" font-weigth="" fill="#000000">gnd</text>
</g>
<g transform="translate(84.0,264.0) scale(1.2954545454545456,1) "><text x="0.0" y="12.0" font-family="Courier New" font-size="12.0" font-style="" font-weigth="" fill="#000000">r1</text>
</g>
<g transform="translate(189.0,264.0) scale(1.2954545454545456,1) "><text x="0.0" y="12.0" font-family="Courier New" font-size="12.0" font-style="" font-weigth="" fill="#000000">c1</text>
</g>
<g transform="translate(279.0,204.0) scale(1.2954545454545456,1) "><text x="0.0" y="12.0" font-family="Courier New" font-size="12.0" font-style="" font-weigth="" fill="#000000">c4</text>
</g>
<g transform="translate(309.0,219.0) scale(1.1515151515151514,1) "><text x="0.0" y="9.0" font-family="Courier New" font-size="9.0" font-style="" font-weigth="" fill="#000000">r4</text>
</g>
<g transform="translate(309.0,174.0) scale(1.1515151515151514,1) "><text x="0.0" y="9.0" font-family="Courier New" font-size="9.0" font-style="" font-weigth="" fill="#000000">c2</text>
</g>
<g transform="translate(324.0,174.0) scale(1.1515151515151514,1) "><text x="0.0" y="9.0" font-family="Courier New" font-size="9.0" font-style="" font-weigth="" fill="#000000">c3</text>
</g>
<g transform="translate(324.0,234.0) scale(1.1515151515151514,1) "><text x="0.0" y="9.0" font-family="Courier New" font-size="9.0" font-style="" font-weigth="" fill="#000000">r2</text>
</g>
<line x1="699.0" y1="324.0" x2="705.0" y2="324.0" style="stroke:#000000;stroke-width:1.5;fill-rule: evenodd;" fill="none"/>
<ellipse cx="711.0" cy="324.0" rx="6.0" ry="6.0" style="stroke:#000000;stroke-width:1.5;fill-rule: evenodd;" fill="none"/>
<g transform="translate(714.0,339.0) scale(1.2954545454545456,1) "><text x="0.0" y="12.0" font-family="Courier New" font-size="12.0" font-style="" font-weigth="" fill="#000000">-</text>
</g>
<g transform="translate(714.0,9.0) scale(1.2954545454545456,1) "><text x="0.0" y="12.0" font-family="Courier New" font-size="12.0" font-style="" font-weigth="" fill="#000000">+</text>
</g>
<g transform="translate(9.0,279.0) scale(1.2954545454545456,1) "><text x="0.0" y="12.0" font-family="Courier New" font-size="12.0" font-style="" font-weigth="" fill="#000000">in</text>
</g>
<line x1="654.0" y1="24.0" x2="654.0" y2="30.0" style="stroke:#000000;stroke-width:1.5;fill-rule: evenodd;" fill="none"/>
<ellipse cx="654.0" cy="36.0" rx="6.0" ry="6.0" style="stroke:#000000;stroke-width:1.5;fill-rule: evenodd;" fill="none"/>
<line x1="609.0" y1="69.0" x2="639.0" y2="69.0" style="stroke:#000000;stroke-width:1.5;fill-rule: evenodd;" fill="none"/>
<line x1="609.0" y1="324.0" x2="699.0" y2="324.0" style="stroke:#000000;stroke-width:1.5;fill-rule: evenodd;" fill="none"/>
<line x1="654.0" y1="24.0" x2="699.0" y2="24.0" style="stroke:#000000;stroke-width:1.5;fill-rule: evenodd;" fill="none"/>
<g transform="translate(624.0,84.0) scale(1.2954545454545456,1) "><text x="0.0" y="12.0" font-family="Courier New" font-size="12.0" font-style="" font-weigth="" fill="#000000">altoparlante</text>
</g>
<circle cx="654.0" cy="24.0" r="3.0" style="stroke:#000000;stroke-width:0.33" fill="#000000"/>
<circle cx="609.0" cy="324.0" r="3.0" style="stroke:#000000;stroke-width:0.33" fill="#000000"/>
</svg>