<?xml version="1.0" encoding="UTF-8" standalone="no"?> 
<!DOCTYPE svg PUBLIC "-//W3C//Dtd SVG 1.1//EN" "http://www.w3.org/Graphics/SVG/1.1/Dtd/svg11.dtd">
<svg width="765.0" height="963.0" version="1.1" xmlns="http://www.w3.org/2000/svg" xmlns:xlink="http://www.w3.org/1999/xlink">
<!-- Created by FidoCadJ ver. 0.24.9 gamma, export filter by Davide Bucci -->
<line x1="54.0" y1="159.0" x2="189.0" y2="159.0" style="stroke:#000000;stroke-dashoffset: 0.0;stroke-width:1.5;stroke-linejoin:round;stroke-linecap:round;fill-rule: evenodd;" fill="none"/>
<line x1="159.0" y1="234.0" x2="159.0" y2="219.0" style="stroke:#000000;stroke-width:1.5;stroke-linejoin:round;stroke-linecap:round;fill-rule: evenodd;" fill="none"/>
<line x1="159.0" y1="204.0" x2="159.0" y2="189.0" style="stroke:#000000;stroke-width:1.5;stroke-linejoin:round;stroke-linecap:round;fill-rule: evenodd;" fill="none"/>
<line x1="159.0" y1="219.0" x2="150.0" y2="204.0" style="stroke:#000000;stroke-width:1.5;stroke-linejoin:round;stroke-linecap:round;fill-rule: evenodd;" fill="none"/>
<line x1="84.0" y1="402.0" x2="84.0" y2="414.0" style="stroke:#000000;stroke-width:1.5;stroke-linejoin:round;stroke-linecap:round;fill-rule: evenodd;" fill="none"/>
<line x1="84.0" y1="369.0" x2="84.0" y2="381.0" style="stroke:#000000;stroke-width:1.5;stroke-linejoin:round;stroke-linecap:round;fill-rule: evenodd;" fill="none"/>
<rect x="63.0" y="381.0" rx="0" ry="0" width="42.0" height="21.0" style="stroke:#000000;stroke-width:1.5;stroke-linejoin:round;stroke-linecap:round;fill-rule: evenodd;" fill="none"/>
<line x1="84.0" y1="354.0" x2="84.0" y2="369.0" style="stroke:#000000;stroke-width:1.5;stroke-linejoin:round;stroke-linecap:round;fill-rule: evenodd;" fill="none"/>
<line x1="84.0" y1="429.0" x2="84.0" y2="414.0" style="stroke:#000000;stroke-width:1.5;stroke-linejoin:round;stroke-linecap:round;fill-rule: evenodd;" fill="none"/>
<line x1="54.0" y1="444.0" x2="189.0" y2="444.0" style="stroke:#000000;stroke-width:1.5;stroke-linejoin:round;stroke-linecap:round;fill-rule: evenodd;" fill="none"/>
<line x1="84.0" y1="159.0" x2="84.0" y2="189.0" style="stroke:#000000;stroke-width:1.5;stroke-linejoin:round;stroke-linecap:round;fill-rule: evenodd;" fill="none"/>
<line x1="159.0" y1="159.0" x2="159.0" y2="189.0" style="stroke:#000000;stroke-width:1.5;stroke-linejoin:round;stroke-linecap:round;fill-rule: evenodd;" fill="none"/>
<line x1="84.0" y1="234.0" x2="84.0" y2="279.0" style="stroke:#000000;stroke-width:1.5;stroke-linejoin:round;stroke-linecap:round;fill-rule: evenodd;" fill="none"/>
<line x1="84.0" y1="354.0" x2="84.0" y2="324.0" style="stroke:#000000;stroke-width:1.5;stroke-linejoin:round;stroke-linecap:round;fill-rule: evenodd;" fill="none"/>
<line x1="159.0" y1="234.0" x2="159.0" y2="264.0" style="stroke:#000000;stroke-width:1.5;stroke-linejoin:round;stroke-linecap:round;fill-rule: evenodd;" fill="none"/>
<line x1="159.0" y1="264.0" x2="84.0" y2="264.0" style="stroke:#000000;stroke-width:1.5;stroke-linejoin:round;stroke-linecap:round;fill-rule: evenodd;" fill="none"/>
<line x1="84.0" y1="429.0" x2="84.0" y2="444.0" style="stroke:#000000;stroke-width:1.5;stroke-linejoin:round;stroke-linecap:round;fill-rule: evenodd;" fill="none"/>
<g transform="translate(48.0,474.0) scale(1.0,1.0)"><text x="0.0" y="14.0" font-family="Courier New, monospace" font-size="15.93" font-style="" font-weight="bold" xml:space="preserve" fill="#000000">Fig.1.a. schema funzionale</text>
</g>
<g transform="translate(321.0,336.0) scale(1.0,1.0)"><text x="0.0" y="14.0" font-family="Courier New, monospace" font-size="15.93" font-style="" font-weight="bold" xml:space="preserve" fill="#000000">Fig.1.b. schema ladder di programmazione</text>
</g>
<g transform="translate(84.0,54.0) scale(1.0,1.0)"><text x="0.0" y="18.0" font-family="Courier New, monospace" font-size="21.07" font-style="" font-weight="bold" xml:space="preserve" fill="#000000">Fig.1.</text>
</g>
<g transform="translate(174.0,54.0) scale(1.0,1.0)"><text x="0.0" y="18.0" font-family="Courier New, monospace" font-size="21.07" font-style="italic" font-weight="" xml:space="preserve" fill="#000000">Esempio di utilizzo dei simboli ladder</text>
</g>
<g transform="translate(54.0,84.0) scale(1.0,1.0)"><text x="0.0" y="18.0" font-family="Courier New, monospace" font-size="21.07" font-style="italic" font-weight="" xml:space="preserve" fill="#000000">per raffigurare un semplice circuito di autoritenuta.</text>
</g>
<g transform="translate(594.0,234.0) scale(1.0,1.0)"><text x="0.0" y="14.0" font-family="Courier New, monospace" font-size="15.93" font-style="" font-weight="" xml:space="preserve" fill="#000000">K</text>
</g>
<line x1="369.0" y1="189.0" x2="369.0" y2="249.0" style="stroke:#000000;stroke-width:1.5;stroke-linejoin:round;stroke-linecap:round;fill-rule: evenodd;" fill="none"/>
<line x1="369.0" y1="219.0" x2="399.0" y2="219.0" style="stroke:#000000;stroke-width:1.5;stroke-linejoin:round;stroke-linecap:round;fill-rule: evenodd;" fill="none"/>
<line x1="399.0" y1="234.0" x2="399.0" y2="204.0" style="stroke:#000000;stroke-width:1.5;stroke-linejoin:round;stroke-linecap:round;fill-rule: evenodd;" fill="none"/>
<line x1="459.0" y1="219.0" x2="429.0" y2="219.0" style="stroke:#000000;stroke-width:1.5;stroke-linejoin:round;stroke-linecap:round;fill-rule: evenodd;" fill="none"/>
<line x1="429.0" y1="204.0" x2="429.0" y2="234.0" style="stroke:#000000;stroke-width:1.5;stroke-linejoin:round;stroke-linecap:round;fill-rule: evenodd;" fill="none"/>
<g transform="translate(414.0,234.0) scale(1.0,1.0)"><text x="0.0" y="14.0" font-family="Courier New, monospace" font-size="15.93" font-style="" font-weight="" xml:space="preserve" fill="#000000">1</text>
</g>
<line x1="369.0" y1="279.0" x2="399.0" y2="279.0" style="stroke:#000000;stroke-width:1.5;stroke-linejoin:round;stroke-linecap:round;fill-rule: evenodd;" fill="none"/>
<line x1="399.0" y1="294.0" x2="399.0" y2="264.0" style="stroke:#000000;stroke-width:1.5;stroke-linejoin:round;stroke-linecap:round;fill-rule: evenodd;" fill="none"/>
<line x1="459.0" y1="279.0" x2="429.0" y2="279.0" style="stroke:#000000;stroke-width:1.5;stroke-linejoin:round;stroke-linecap:round;fill-rule: evenodd;" fill="none"/>
<line x1="429.0" y1="264.0" x2="429.0" y2="294.0" style="stroke:#000000;stroke-width:1.5;stroke-linejoin:round;stroke-linecap:round;fill-rule: evenodd;" fill="none"/>
<g transform="translate(408.0,291.0) scale(1.0,1.0)"><text x="0.0" y="14.0" font-family="Courier New, monospace" font-size="15.93" font-style="" font-weight="" xml:space="preserve" fill="#000000">K</text>
</g>
<line x1="459.0" y1="219.0" x2="489.0" y2="219.0" style="stroke:#000000;stroke-width:1.5;stroke-linejoin:round;stroke-linecap:round;fill-rule: evenodd;" fill="none"/>
<line x1="489.0" y1="234.0" x2="489.0" y2="204.0" style="stroke:#000000;stroke-width:1.5;stroke-linejoin:round;stroke-linecap:round;fill-rule: evenodd;" fill="none"/>
<line x1="549.0" y1="219.0" x2="519.0" y2="219.0" style="stroke:#000000;stroke-width:1.5;stroke-linejoin:round;stroke-linecap:round;fill-rule: evenodd;" fill="none"/>
<line x1="519.0" y1="204.0" x2="519.0" y2="234.0" style="stroke:#000000;stroke-width:1.5;stroke-linejoin:round;stroke-linecap:round;fill-rule: evenodd;" fill="none"/>
<g transform="translate(504.0,234.0) scale(1.0,1.0)"><text x="0.0" y="14.0" font-family="Courier New, monospace" font-size="15.93" font-style="" font-weight="" xml:space="preserve" fill="#000000">2</text>
</g>
<line x1="549.0" y1="219.0" x2="573.0" y2="219.0" style="stroke:#000000;stroke-width:1.5;stroke-linejoin:round;stroke-linecap:round;fill-rule: evenodd;" fill="none"/>
<line x1="639.0" y1="219.0" x2="615.0" y2="219.0" style="stroke:#000000;stroke-width:1.5;stroke-linejoin:round;stroke-linecap:round;fill-rule: evenodd;" fill="none"/>
<path d="M 609.0,231.0 C 615.0,225.0 615.0,213.0 609.0,207.0" style="stroke:#000000;stroke-width:1.5;stroke-linejoin:round;stroke-linecap:round;fill-rule: evenodd;" fill="none"/>
<path d="M 579.0,231.0 C 573.0,225.0 573.0,213.0 579.0,207.0" style="stroke:#000000;stroke-width:1.5;stroke-linejoin:round;stroke-linecap:round;fill-rule: evenodd;" fill="none"/>
<line x1="639.0" y1="189.0" x2="639.0" y2="249.0" style="stroke:#000000;stroke-width:1.5;stroke-linejoin:round;stroke-linecap:round;fill-rule: evenodd;" fill="none"/>
<line x1="459.0" y1="219.0" x2="459.0" y2="279.0" style="stroke:#000000;stroke-width:1.5;stroke-linejoin:round;stroke-linecap:round;fill-rule: evenodd;" fill="none"/>
<line x1="369.0" y1="249.0" x2="369.0" y2="309.0" style="stroke:#000000;stroke-width:1.5;stroke-linejoin:round;stroke-linecap:round;fill-rule: evenodd;" fill="none"/>
<line x1="639.0" y1="249.0" x2="639.0" y2="309.0" style="stroke:#000000;stroke-width:1.5;stroke-linejoin:round;stroke-linecap:round;fill-rule: evenodd;" fill="none"/>
<line x1="342.0" y1="597.0" x2="342.0" y2="600.0" style="stroke:#000000;stroke-width:1.5;stroke-linejoin:round;stroke-linecap:round;fill-rule: evenodd;" fill="none"/>
<line x1="333.0" y1="600.0" x2="333.0" y2="585.0" style="stroke:#000000;stroke-width:1.5;stroke-linejoin:round;stroke-linecap:round;fill-rule: evenodd;" fill="none"/>
<line x1="330.0" y1="600.0" x2="342.0" y2="600.0" style="stroke:#000000;stroke-width:1.5;stroke-linejoin:round;stroke-linecap:round;fill-rule: evenodd;" fill="none"/>
<line x1="330.0" y1="585.0" x2="336.0" y2="585.0" style="stroke:#000000;stroke-width:1.5;stroke-linejoin:round;stroke-linecap:round;fill-rule: evenodd;" fill="none"/>
<rect x="249.0" y="564.0" rx="0" ry="0" width="420.0" height="210.0" style="stroke:#000000;stroke-width:1.5;stroke-linejoin:round;stroke-linecap:round;fill-rule: evenodd;" fill="none"/>
<line x1="609.0" y1="774.0" x2="609.0" y2="714.0" style="stroke:#000000;stroke-width:1.5;stroke-linejoin:round;stroke-linecap:round;fill-rule: evenodd;" fill="none"/>
<line x1="609.0" y1="714.0" x2="669.0" y2="714.0" style="stroke:#000000;stroke-width:1.5;stroke-linejoin:round;stroke-linecap:round;fill-rule: evenodd;" fill="none"/>
<line x1="309.0" y1="624.0" x2="309.0" y2="564.0" style="stroke:#000000;stroke-width:1.5;stroke-linejoin:round;stroke-linecap:round;fill-rule: evenodd;" fill="none"/>
<line x1="549.0" y1="714.0" x2="609.0" y2="714.0" style="stroke:#000000;stroke-width:1.5;stroke-linejoin:round;stroke-linecap:round;fill-rule: evenodd;" fill="none"/>
<line x1="489.0" y1="714.0" x2="549.0" y2="714.0" style="stroke:#000000;stroke-width:1.5;stroke-linejoin:round;stroke-linecap:round;fill-rule: evenodd;" fill="none"/>
<line x1="429.0" y1="774.0" x2="429.0" y2="714.0" style="stroke:#000000;stroke-width:1.5;stroke-linejoin:round;stroke-linecap:round;fill-rule: evenodd;" fill="none"/>
<line x1="429.0" y1="714.0" x2="489.0" y2="714.0" style="stroke:#000000;stroke-width:1.5;stroke-linejoin:round;stroke-linecap:round;fill-rule: evenodd;" fill="none"/>
<line x1="309.0" y1="774.0" x2="309.0" y2="714.0" style="stroke:#000000;stroke-width:1.5;stroke-linejoin:round;stroke-linecap:round;fill-rule: evenodd;" fill="none"/>
<line x1="369.0" y1="714.0" x2="429.0" y2="714.0" style="stroke:#000000;stroke-width:1.5;stroke-linejoin:round;stroke-linecap:round;fill-rule: evenodd;" fill="none"/>
<line x1="429.0" y1="564.0" x2="429.0" y2="624.0" style="stroke:#000000;stroke-width:1.5;stroke-linejoin:round;stroke-linecap:round;fill-rule: evenodd;" fill="none"/>
<line x1="489.0" y1="624.0" x2="429.0" y2="624.0" style="stroke:#000000;stroke-width:1.5;stroke-linejoin:round;stroke-linecap:round;fill-rule: evenodd;" fill="none"/>
<line x1="489.0" y1="564.0" x2="489.0" y2="774.0" style="stroke:#000000;stroke-dasharray: 3.0,7.5,7.5,7.5;stroke-width:1.5;stroke-linejoin:round;stroke-linecap:round;fill-rule: evenodd;" fill="none"/>
<line x1="429.0" y1="624.0" x2="369.0" y2="624.0" style="stroke:#000000;stroke-width:1.5;stroke-linejoin:round;stroke-linecap:round;fill-rule: evenodd;" fill="none"/>
<line x1="549.0" y1="564.0" x2="549.0" y2="624.0" style="stroke:#000000;stroke-width:1.5;stroke-linejoin:round;stroke-linecap:round;fill-rule: evenodd;" fill="none"/>
<line x1="549.0" y1="624.0" x2="489.0" y2="624.0" style="stroke:#000000;stroke-width:1.5;stroke-linejoin:round;stroke-linecap:round;fill-rule: evenodd;" fill="none"/>
<line x1="609.0" y1="564.0" x2="609.0" y2="624.0" style="stroke:#000000;stroke-width:1.5;stroke-linejoin:round;stroke-linecap:round;fill-rule: evenodd;" fill="none"/>
<line x1="609.0" y1="624.0" x2="549.0" y2="624.0" style="stroke:#000000;stroke-width:1.5;stroke-linejoin:round;stroke-linecap:round;fill-rule: evenodd;" fill="none"/>
<line x1="669.0" y1="624.0" x2="609.0" y2="624.0" style="stroke:#000000;stroke-width:1.5;stroke-linejoin:round;stroke-linecap:round;fill-rule: evenodd;" fill="none"/>
<g transform="translate(552.0,660.0) scale(1.0,1.0)"><text x="0.0" y="18.0" font-family="Courier New, monospace" font-size="21.07" font-style="" font-weight="bold" xml:space="preserve" fill="#000000">P L C</text>
</g>
<g transform="translate(573.0,585.0) scale(1.0,1.0)"><text x="0.0" y="18.0" font-family="Courier New, monospace" font-size="21.07" font-style="" font-weight="" xml:space="preserve" fill="#000000">1</text>
</g>
<g transform="translate(636.0,585.0) scale(1.0,1.0)"><text x="0.0" y="18.0" font-family="Courier New, monospace" font-size="21.07" font-style="" font-weight="" xml:space="preserve" fill="#000000">2</text>
</g>
<line x1="549.0" y1="714.0" x2="549.0" y2="774.0" style="stroke:#000000;stroke-width:1.5;stroke-linejoin:round;stroke-linecap:round;fill-rule: evenodd;" fill="none"/>
<line x1="399.0" y1="585.0" x2="399.0" y2="603.0" style="stroke:#000000;stroke-width:1.5;stroke-linejoin:round;stroke-linecap:round;fill-rule: evenodd;" fill="none"/>
<line x1="408.0" y1="594.0" x2="390.0" y2="594.0" style="stroke:#000000;stroke-width:1.5;stroke-linejoin:round;stroke-linecap:round;fill-rule: evenodd;" fill="none"/>
<line x1="468.0" y1="594.0" x2="450.0" y2="594.0" style="stroke:#000000;stroke-width:1.5;stroke-linejoin:round;stroke-linecap:round;fill-rule: evenodd;" fill="none"/>
<g transform="translate(516.0,585.0) scale(1.0,1.0)"><text x="0.0" y="18.0" font-family="Courier New, monospace" font-size="21.07" font-style="" font-weight="" xml:space="preserve" fill="#000000">C</text>
</g>
<line x1="519.0" y1="564.0" x2="519.0" y2="519.0" style="stroke:#000000;stroke-width:1.5;stroke-linejoin:round;stroke-linecap:round;fill-rule: evenodd;" fill="none"/>
<line x1="519.0" y1="519.0" x2="459.0" y2="519.0" style="stroke:#000000;stroke-width:1.5;stroke-linejoin:round;stroke-linecap:round;fill-rule: evenodd;" fill="none"/>
<line x1="459.0" y1="519.0" x2="459.0" y2="564.0" style="stroke:#000000;stroke-width:1.5;stroke-linejoin:round;stroke-linecap:round;fill-rule: evenodd;" fill="none"/>
<line x1="579.0" y1="537.0" x2="579.0" y2="522.0" style="stroke:#000000;stroke-width:1.5;stroke-linejoin:round;stroke-linecap:round;fill-rule: evenodd;" fill="none"/>
<line x1="579.0" y1="489.0" x2="579.0" y2="507.0" style="stroke:#000000;stroke-width:1.5;stroke-linejoin:round;stroke-linecap:round;fill-rule: evenodd;" fill="none"/>
<line x1="579.0" y1="522.0" x2="573.0" y2="507.0" style="stroke:#000000;stroke-width:1.5;stroke-linejoin:round;stroke-linecap:round;fill-rule: evenodd;" fill="none"/>
<line x1="576.0" y1="516.0" x2="558.0" y2="516.0" style="stroke:#000000;stroke-width:1.5;stroke-linejoin:round;stroke-linecap:round;fill-rule: evenodd;" fill="none"/>
<line x1="558.0" y1="516.0" x2="558.0" y2="522.0" style="stroke:#000000;stroke-width:1.5;stroke-linejoin:round;stroke-linecap:round;fill-rule: evenodd;" fill="none"/>
<line x1="558.0" y1="516.0" x2="558.0" y2="510.0" style="stroke:#000000;stroke-width:1.5;stroke-linejoin:round;stroke-linecap:round;fill-rule: evenodd;" fill="none"/>
<line x1="558.0" y1="510.0" x2="564.0" y2="510.0" style="stroke:#000000;stroke-width:1.5;stroke-linejoin:round;stroke-linecap:round;fill-rule: evenodd;" fill="none"/>
<line x1="558.0" y1="522.0" x2="564.0" y2="522.0" style="stroke:#000000;stroke-width:1.5;stroke-linejoin:round;stroke-linecap:round;fill-rule: evenodd;" fill="none"/>
<line x1="639.0" y1="534.0" x2="639.0" y2="519.0" style="stroke:#000000;stroke-width:1.5;stroke-linejoin:round;stroke-linecap:round;fill-rule: evenodd;" fill="none"/>
<line x1="639.0" y1="489.0" x2="639.0" y2="504.0" style="stroke:#000000;stroke-width:1.5;stroke-linejoin:round;stroke-linecap:round;fill-rule: evenodd;" fill="none"/>
<line x1="639.0" y1="504.0" x2="651.0" y2="504.0" style="stroke:#000000;stroke-width:1.5;stroke-linejoin:round;stroke-linecap:round;fill-rule: evenodd;" fill="none"/>
<line x1="639.0" y1="519.0" x2="648.0" y2="501.0" style="stroke:#000000;stroke-width:1.5;stroke-linejoin:round;stroke-linecap:round;fill-rule: evenodd;" fill="none"/>
<line x1="642.0" y1="513.0" x2="624.0" y2="513.0" style="stroke:#000000;stroke-width:1.5;stroke-linejoin:round;stroke-linecap:round;fill-rule: evenodd;" fill="none"/>
<line x1="624.0" y1="513.0" x2="624.0" y2="519.0" style="stroke:#000000;stroke-width:1.5;stroke-linejoin:round;stroke-linecap:round;fill-rule: evenodd;" fill="none"/>
<line x1="624.0" y1="519.0" x2="630.0" y2="519.0" style="stroke:#000000;stroke-width:1.5;stroke-linejoin:round;stroke-linecap:round;fill-rule: evenodd;" fill="none"/>
<line x1="624.0" y1="513.0" x2="624.0" y2="507.0" style="stroke:#000000;stroke-width:1.5;stroke-linejoin:round;stroke-linecap:round;fill-rule: evenodd;" fill="none"/>
<line x1="630.0" y1="507.0" x2="624.0" y2="507.0" style="stroke:#000000;stroke-width:1.5;stroke-linejoin:round;stroke-linecap:round;fill-rule: evenodd;" fill="none"/>
<line x1="639.0" y1="489.0" x2="639.0" y2="459.0" style="stroke:#000000;stroke-width:1.5;stroke-linejoin:round;stroke-linecap:round;fill-rule: evenodd;" fill="none"/>
<line x1="579.0" y1="459.0" x2="579.0" y2="489.0" style="stroke:#000000;stroke-width:1.5;stroke-linejoin:round;stroke-linecap:round;fill-rule: evenodd;" fill="none"/>
<line x1="639.0" y1="534.0" x2="639.0" y2="564.0" style="stroke:#000000;stroke-width:1.5;stroke-linejoin:round;stroke-linecap:round;fill-rule: evenodd;" fill="none"/>
<line x1="639.0" y1="459.0" x2="399.0" y2="459.0" style="stroke:#000000;stroke-width:1.5;stroke-linejoin:round;stroke-linecap:round;fill-rule: evenodd;" fill="none"/>
<line x1="399.0" y1="564.0" x2="399.0" y2="459.0" style="stroke:#000000;stroke-width:1.5;stroke-linejoin:round;stroke-linecap:round;fill-rule: evenodd;" fill="none"/>
<line x1="579.0" y1="564.0" x2="579.0" y2="534.0" style="stroke:#000000;stroke-width:1.5;stroke-linejoin:round;stroke-linecap:round;fill-rule: evenodd;" fill="none"/>
<g transform="translate(537.0,528.0) scale(1.0,1.0)"><text x="0.0" y="18.0" font-family="Courier New, monospace" font-size="21.07" font-style="" font-weight="" xml:space="preserve" fill="#000000">SB1</text>
</g>
<g transform="translate(594.0,528.0) scale(1.0,1.0)"><text x="0.0" y="18.0" font-family="Courier New, monospace" font-size="21.07" font-style="" font-weight="" xml:space="preserve" fill="#000000">SB2</text>
</g>
<line x1="579.0" y1="801.0" x2="579.0" y2="789.0" style="stroke:#000000;stroke-width:1.5;stroke-linejoin:round;stroke-linecap:round;fill-rule: evenodd;" fill="none"/>
<line x1="579.0" y1="834.0" x2="579.0" y2="822.0" style="stroke:#000000;stroke-width:1.5;stroke-linejoin:round;stroke-linecap:round;fill-rule: evenodd;" fill="none"/>
<rect x="558.0" y="801.0" rx="0" ry="0" width="42.0" height="21.0" style="stroke:#000000;stroke-width:1.5;stroke-linejoin:round;stroke-linecap:round;fill-rule: evenodd;" fill="none"/>
<line x1="579.0" y1="849.0" x2="579.0" y2="834.0" style="stroke:#000000;stroke-width:1.5;stroke-linejoin:round;stroke-linecap:round;fill-rule: evenodd;" fill="none"/>
<line x1="579.0" y1="774.0" x2="579.0" y2="789.0" style="stroke:#000000;stroke-width:1.5;stroke-linejoin:round;stroke-linecap:round;fill-rule: evenodd;" fill="none"/>
<line x1="459.0" y1="774.0" x2="459.0" y2="819.0" style="stroke:#000000;stroke-width:1.5;stroke-linejoin:round;stroke-linecap:round;fill-rule: evenodd;" fill="none"/>
<line x1="459.0" y1="819.0" x2="519.0" y2="819.0" style="stroke:#000000;stroke-width:1.5;stroke-linejoin:round;stroke-linecap:round;fill-rule: evenodd;" fill="none"/>
<line x1="519.0" y1="819.0" x2="519.0" y2="774.0" style="stroke:#000000;stroke-width:1.5;stroke-linejoin:round;stroke-linecap:round;fill-rule: evenodd;" fill="none"/>
<line x1="399.0" y1="774.0" x2="399.0" y2="909.0" style="stroke:#000000;stroke-width:1.5;stroke-linejoin:round;stroke-linecap:round;fill-rule: evenodd;" fill="none"/>
<g transform="translate(555.0,825.0) scale(1.0,1.0)"><text x="0.0" y="18.0" font-family="Courier New, monospace" font-size="21.07" font-style="" font-weight="" xml:space="preserve" fill="#000000">K</text>
</g>
<g transform="translate(513.0,735.0) scale(1.0,1.0)"><text x="0.0" y="18.0" font-family="Courier New, monospace" font-size="21.07" font-style="" font-weight="" xml:space="preserve" fill="#000000">C</text>
</g>
<g transform="translate(393.0,642.0) scale(1.0,1.0)"><text x="0.0" y="14.0" font-family="Courier New, monospace" font-size="15.93" font-style="" font-weight="" xml:space="preserve" fill="#000000">INGRESSI</text>
</g>
<g transform="translate(564.0,738.0) scale(1.0,1.0)"><text x="0.0" y="14.0" font-family="Courier New, monospace" font-size="15.93" font-style="" font-weight="" xml:space="preserve" fill="#000000">OUT</text>
</g>
<line x1="249.0" y1="624.0" x2="369.0" y2="624.0" style="stroke:#000000;stroke-width:1.5;stroke-linejoin:round;stroke-linecap:round;fill-rule: evenodd;" fill="none"/>
<line x1="249.0" y1="714.0" x2="309.0" y2="714.0" style="stroke:#000000;stroke-width:1.5;stroke-linejoin:round;stroke-linecap:round;fill-rule: evenodd;" fill="none"/>
<g transform="translate(267.0,630.0) scale(1.0,1.0)"><text x="0.0" y="9.0" font-family="Courier New, monospace" font-size="10.79" font-style="" font-weight="" xml:space="preserve" fill="#000000">Alimentazione</text>
</g>
<g transform="translate(291.0,642.0) scale(1.0,1.0)"><text x="0.0" y="14.0" font-family="Courier New, monospace" font-size="15.93" font-style="" font-weight="" xml:space="preserve" fill="#000000">PLC</text>
</g>
<line x1="369.0" y1="564.0" x2="369.0" y2="774.0" style="stroke:#000000;stroke-dasharray: 3.0,7.5,7.5,7.5;stroke-width:1.5;stroke-linejoin:round;stroke-linecap:round;fill-rule: evenodd;" fill="none"/>
<g transform="translate(387.0,630.0) scale(1.0,1.0)"><text x="0.0" y="9.0" font-family="Courier New, monospace" font-size="10.79" font-style="" font-weight="" xml:space="preserve" fill="#000000">Alimentazioni</text>
</g>
<g transform="translate(387.0,699.0) scale(1.0,1.0)"><text x="0.0" y="9.0" font-family="Courier New, monospace" font-size="10.79" font-style="" font-weight="" xml:space="preserve" fill="#000000">Alimentazioni</text>
</g>
<g transform="translate(399.0,681.0) scale(1.0,1.0)"><text x="0.0" y="14.0" font-family="Courier New, monospace" font-size="15.93" font-style="" font-weight="" xml:space="preserve" fill="#000000">USCITE</text>
</g>
<path d="M 444.0,747.0 C 444.0,741.0 453.0,735.0 459.0,744.0" style="stroke:#000000;stroke-width:1.5;stroke-linejoin:round;stroke-linecap:round;fill-rule: evenodd;" fill="none"/>
<path d="M 474.0,741.0 C 474.0,747.0 465.0,753.0 459.0,744.0" style="stroke:#000000;stroke-width:1.5;stroke-linejoin:round;stroke-linecap:round;fill-rule: evenodd;" fill="none"/>
<line x1="273.0" y1="585.0" x2="285.0" y2="600.0" style="stroke:#000000;stroke-width:1.5;stroke-linejoin:round;stroke-linecap:round;fill-rule: evenodd;" fill="none"/>
<line x1="273.0" y1="600.0" x2="273.0" y2="585.0" style="stroke:#000000;stroke-width:1.5;stroke-linejoin:round;stroke-linecap:round;fill-rule: evenodd;" fill="none"/>
<line x1="270.0" y1="600.0" x2="276.0" y2="600.0" style="stroke:#000000;stroke-width:1.5;stroke-linejoin:round;stroke-linecap:round;fill-rule: evenodd;" fill="none"/>
<line x1="270.0" y1="585.0" x2="273.0" y2="585.0" style="stroke:#000000;stroke-width:1.5;stroke-linejoin:round;stroke-linecap:round;fill-rule: evenodd;" fill="none"/>
<line x1="285.0" y1="600.0" x2="285.0" y2="585.0" style="stroke:#000000;stroke-width:1.5;stroke-linejoin:round;stroke-linecap:round;fill-rule: evenodd;" fill="none"/>
<line x1="282.0" y1="585.0" x2="288.0" y2="585.0" style="stroke:#000000;stroke-width:1.5;stroke-linejoin:round;stroke-linecap:round;fill-rule: evenodd;" fill="none"/>
<line x1="279.0" y1="732.0" x2="279.0" y2="747.0" style="stroke:#000000;stroke-width:1.5;stroke-linejoin:round;stroke-linecap:round;fill-rule: evenodd;" fill="none"/>
<line x1="270.0" y1="747.0" x2="288.0" y2="747.0" style="stroke:#000000;stroke-width:1.5;stroke-linejoin:round;stroke-linecap:round;fill-rule: evenodd;" fill="none"/>
<line x1="273.0" y1="750.0" x2="285.0" y2="750.0" style="stroke:#000000;stroke-width:1.5;stroke-linejoin:round;stroke-linecap:round;fill-rule: evenodd;" fill="none"/>
<line x1="276.0" y1="753.0" x2="282.0" y2="753.0" style="stroke:#000000;stroke-width:1.5;stroke-linejoin:round;stroke-linecap:round;fill-rule: evenodd;" fill="none"/>
<path d="M 384.0,747.0 C 384.0,741.0 393.0,735.0 399.0,744.0" style="stroke:#000000;stroke-width:1.5;stroke-linejoin:round;stroke-linecap:round;fill-rule: evenodd;" fill="none"/>
<path d="M 414.0,741.0 C 414.0,747.0 405.0,753.0 399.0,744.0" style="stroke:#000000;stroke-width:1.5;stroke-linejoin:round;stroke-linecap:round;fill-rule: evenodd;" fill="none"/>
<line x1="579.0" y1="849.0" x2="579.0" y2="855.0" style="stroke:#000000;stroke-width:1.5;stroke-linejoin:round;stroke-linecap:round;fill-rule: evenodd;" fill="none"/>
<ellipse cx="579.0" cy="861.0" rx="6.0" ry="6.0" style="stroke:#000000;stroke-width:1.5;stroke-linejoin:round;stroke-linecap:round;fill-rule: evenodd;" fill="none"/>
<line x1="399.0" y1="909.0" x2="579.0" y2="909.0" style="stroke:#000000;stroke-width:1.5;stroke-linejoin:round;stroke-linecap:round;fill-rule: evenodd;" fill="none"/>
<line x1="579.0" y1="909.0" x2="579.0" y2="903.0" style="stroke:#000000;stroke-width:1.5;stroke-linejoin:round;stroke-linecap:round;fill-rule: evenodd;" fill="none"/>
<ellipse cx="579.0" cy="897.0" rx="6.0" ry="6.0" style="stroke:#000000;stroke-width:1.5;stroke-linejoin:round;stroke-linecap:round;fill-rule: evenodd;" fill="none"/>
<g transform="translate(48.0,819.0) scale(1.0,1.0)"><text x="0.0" y="14.0" font-family="Courier New, monospace" font-size="15.93" font-style="" font-weight="bold" xml:space="preserve" fill="#000000">Fig.1.c. collegamenti al PLC</text>
</g>
<g transform="translate(99.0,219.0) scale(1.0,1.0)"><text x="0.0" y="18.0" font-family="Courier New, monospace" font-size="21.07" font-style="" font-weight="" xml:space="preserve" fill="#000000">SB1</text>
</g>
<g transform="translate(99.0,303.0) scale(1.0,1.0)"><text x="0.0" y="18.0" font-family="Courier New, monospace" font-size="21.07" font-style="" font-weight="" xml:space="preserve" fill="#000000">SB2</text>
</g>
<line x1="84.0" y1="237.0" x2="84.0" y2="222.0" style="stroke:#000000;stroke-width:1.5;stroke-linejoin:round;stroke-linecap:round;fill-rule: evenodd;" fill="none"/>
<line x1="84.0" y1="189.0" x2="84.0" y2="207.0" style="stroke:#000000;stroke-width:1.5;stroke-linejoin:round;stroke-linecap:round;fill-rule: evenodd;" fill="none"/>
<line x1="84.0" y1="222.0" x2="78.0" y2="207.0" style="stroke:#000000;stroke-width:1.5;stroke-linejoin:round;stroke-linecap:round;fill-rule: evenodd;" fill="none"/>
<line x1="81.0" y1="216.0" x2="63.0" y2="216.0" style="stroke:#000000;stroke-width:1.5;stroke-linejoin:round;stroke-linecap:round;fill-rule: evenodd;" fill="none"/>
<line x1="63.0" y1="216.0" x2="63.0" y2="222.0" style="stroke:#000000;stroke-width:1.5;stroke-linejoin:round;stroke-linecap:round;fill-rule: evenodd;" fill="none"/>
<line x1="63.0" y1="216.0" x2="63.0" y2="210.0" style="stroke:#000000;stroke-width:1.5;stroke-linejoin:round;stroke-linecap:round;fill-rule: evenodd;" fill="none"/>
<line x1="63.0" y1="210.0" x2="69.0" y2="210.0" style="stroke:#000000;stroke-width:1.5;stroke-linejoin:round;stroke-linecap:round;fill-rule: evenodd;" fill="none"/>
<line x1="63.0" y1="222.0" x2="69.0" y2="222.0" style="stroke:#000000;stroke-width:1.5;stroke-linejoin:round;stroke-linecap:round;fill-rule: evenodd;" fill="none"/>
<line x1="84.0" y1="324.0" x2="84.0" y2="309.0" style="stroke:#000000;stroke-width:1.5;stroke-linejoin:round;stroke-linecap:round;fill-rule: evenodd;" fill="none"/>
<line x1="84.0" y1="279.0" x2="84.0" y2="294.0" style="stroke:#000000;stroke-width:1.5;stroke-linejoin:round;stroke-linecap:round;fill-rule: evenodd;" fill="none"/>
<line x1="84.0" y1="294.0" x2="96.0" y2="294.0" style="stroke:#000000;stroke-width:1.5;stroke-linejoin:round;stroke-linecap:round;fill-rule: evenodd;" fill="none"/>
<line x1="84.0" y1="309.0" x2="93.0" y2="291.0" style="stroke:#000000;stroke-width:1.5;stroke-linejoin:round;stroke-linecap:round;fill-rule: evenodd;" fill="none"/>
<line x1="87.0" y1="303.0" x2="69.0" y2="303.0" style="stroke:#000000;stroke-width:1.5;stroke-linejoin:round;stroke-linecap:round;fill-rule: evenodd;" fill="none"/>
<line x1="69.0" y1="303.0" x2="69.0" y2="309.0" style="stroke:#000000;stroke-width:1.5;stroke-linejoin:round;stroke-linecap:round;fill-rule: evenodd;" fill="none"/>
<line x1="69.0" y1="309.0" x2="75.0" y2="309.0" style="stroke:#000000;stroke-width:1.5;stroke-linejoin:round;stroke-linecap:round;fill-rule: evenodd;" fill="none"/>
<line x1="69.0" y1="303.0" x2="69.0" y2="297.0" style="stroke:#000000;stroke-width:1.5;stroke-linejoin:round;stroke-linecap:round;fill-rule: evenodd;" fill="none"/>
<line x1="75.0" y1="297.0" x2="69.0" y2="297.0" style="stroke:#000000;stroke-width:1.5;stroke-linejoin:round;stroke-linecap:round;fill-rule: evenodd;" fill="none"/>
<g transform="translate(117.0,381.0) scale(1.0,1.0)"><text x="0.0" y="18.0" font-family="Courier New, monospace" font-size="21.07" font-style="" font-weight="" xml:space="preserve" fill="#000000">K</text>
</g>
<g transform="translate(174.0,219.0) scale(1.0,1.0)"><text x="0.0" y="18.0" font-family="Courier New, monospace" font-size="21.07" font-style="" font-weight="" xml:space="preserve" fill="#000000">K</text>
</g>
<rect x="9.0" y="9.0" rx="0" ry="0" width="735.0" height="945.0" style="stroke:#a2a2a2;stroke-width:1.5;stroke-linejoin:round;stroke-linecap:round;fill-rule: evenodd;" opacity="0.9" fill="none"/>
</svg>