<?xml version="1.0" encoding="UTF-8" standalone="no"?> 
<!DOCTYPE svg PUBLIC "-//W3C//Dtd SVG 1.1//EN" "http://www.w3.org/Graphics/SVG/1.1/Dtd/svg11.dtd">
<svg width="558.0" height="522.0" version="1.1" xmlns="http://www.w3.org/2000/svg" xmlns:xlink="http://www.w3.org/1999/xlink">
<!-- Created by FidoCadJ ver. 0.24.9 gamma, export filter by Davide Bucci -->
<path d="M 318.0,285.0 C 303.0,273.0 270.0,273.0 258.0,261.0" style="stroke:#000000;stroke-dashoffset: 0.0;stroke-width:1.0499999999999998;fill-rule: evenodd;" fill="none"/>
<path d="M 258.0,261.0 C 225.0,225.0 252.0,186.0 291.0,198.0" style="stroke:#000000;stroke-width:1.0499999999999998;fill-rule: evenodd;" fill="none"/>
<path d="M 291.0,198.0 C 315.0,207.0 336.0,201.0 339.0,186.0" style="stroke:#000000;stroke-width:1.0499999999999998;fill-rule: evenodd;" fill="none"/>
<path d="M 339.0,186.0 C 351.0,159.0 396.0,156.0 411.0,177.0" style="stroke:#000000;stroke-width:1.0499999999999998;fill-rule: evenodd;" fill="none"/>
<path d="M 408.0,174.0 C 444.0,216.0 447.0,243.0 432.0,267.0" style="stroke:#000000;stroke-width:1.0499999999999998;fill-rule: evenodd;" fill="none"/>
<path d="M 402.0,243.0 C 354.0,258.0 348.0,285.0 366.0,300.0" style="stroke:#000000;stroke-width:1.0499999999999998;fill-rule: evenodd;" fill="none"/>
<path d="M 366.0,300.0 C 384.0,306.0 417.0,306.0 432.0,267.0" style="stroke:#000000;stroke-width:1.0499999999999998;fill-rule: evenodd;" fill="none"/>
<path d="M 306.0,303.0 C 294.0,282.0 309.0,276.0 318.0,288.0" style="stroke:#000000;stroke-width:1.0499999999999998;fill-rule: evenodd;" fill="none"/>
<path d="M 318.0,288.0 C 318.0,276.0 336.0,285.0 327.0,294.0" style="stroke:#000000;stroke-width:1.0499999999999998;fill-rule: evenodd;" fill="none"/>
<path d="M 330.0,294.0 C 342.0,300.0 333.0,309.0 324.0,306.0" style="stroke:#000000;stroke-width:1.0499999999999998;fill-rule: evenodd;" fill="none"/>
<path d="M 306.0,303.0 C 294.0,306.0 291.0,315.0 294.0,321.0" style="stroke:#000000;stroke-width:1.0499999999999998;fill-rule: evenodd;" fill="none"/>
<path d="M 303.0,321.0 C 294.0,318.0 288.0,333.0 303.0,339.0" style="stroke:#000000;stroke-width:1.0499999999999998;fill-rule: evenodd;" fill="none"/>
<path d="M 297.0,336.0 C 288.0,342.0 291.0,348.0 306.0,345.0" style="stroke:#000000;stroke-width:1.0499999999999998;fill-rule: evenodd;" fill="none"/>
<path d="M 303.0,321.0 C 315.0,333.0 303.0,315.0 318.0,318.0" style="stroke:#000000;stroke-width:1.0499999999999998;fill-rule: evenodd;" fill="none"/>
<path d="M 318.0,318.0 C 327.0,321.0 327.0,327.0 321.0,330.0" style="stroke:#000000;stroke-width:1.0499999999999998;fill-rule: evenodd;" fill="none"/>
<path d="M 312.0,339.0 C 288.0,363.0 276.0,432.0 309.0,414.0" style="stroke:#000000;stroke-width:1.0499999999999998;fill-rule: evenodd;" fill="none"/>
<path d="M 336.0,315.0 C 333.0,321.0 327.0,327.0 321.0,330.0" style="stroke:#000000;stroke-width:1.0499999999999998;fill-rule: evenodd;" fill="none"/>
<path d="M 309.0,414.0 C 321.0,414.0 330.0,417.0 363.0,417.0" style="stroke:#000000;stroke-width:1.0499999999999998;fill-rule: evenodd;" fill="none"/>
<path d="M 324.0,321.0 C 327.0,315.0 327.0,306.0 327.0,306.0" style="stroke:#000000;stroke-width:1.0499999999999998;fill-rule: evenodd;" fill="none"/>
<path d="M 312.0,339.0 C 354.0,309.0 327.0,390.0 327.0,390.0" style="stroke:#000000;stroke-width:1.0499999999999998;fill-rule: evenodd;" fill="none"/>
<path d="M 324.0,390.0 C 339.0,387.0 348.0,384.0 360.0,384.0" style="stroke:#000000;stroke-width:1.0499999999999998;fill-rule: evenodd;" fill="none"/>
<path d="M 357.0,291.0 C 339.0,303.0 351.0,321.0 354.0,324.0" style="stroke:#000000;stroke-width:1.0499999999999998;fill-rule: evenodd;" fill="none"/>
<path d="M 354.0,324.0 C 369.0,351.0 378.0,375.0 381.0,396.0" style="stroke:#000000;stroke-width:1.0499999999999998;fill-rule: evenodd;" fill="none"/>
<path d="M 381.0,396.0 C 381.0,408.0 378.0,411.0 363.0,417.0" style="stroke:#000000;stroke-width:1.0499999999999998;fill-rule: evenodd;" fill="none"/>
<path d="M 378.0,411.0 C 393.0,417.0 405.0,414.0 417.0,411.0" style="stroke:#000000;stroke-width:1.0499999999999998;fill-rule: evenodd;" fill="none"/>
<path d="M 381.0,405.0 C 399.0,402.0 408.0,405.0 417.0,411.0" style="stroke:#000000;stroke-width:1.0499999999999998;fill-rule: evenodd;" fill="none"/>
<line x1="147.0" y1="303.0" x2="180.0" y2="414.0" style="stroke:#000000;stroke-width:1.0499999999999998;fill-rule: evenodd;" fill="none"/>
<line x1="180.0" y1="414.0" x2="270.0" y2="414.0" style="stroke:#000000;stroke-width:1.0499999999999998;fill-rule: evenodd;" fill="none"/>
<line x1="270.0" y1="414.0" x2="267.0" y2="405.0" style="stroke:#000000;stroke-width:1.0499999999999998;fill-rule: evenodd;" fill="none"/>
<line x1="267.0" y1="405.0" x2="186.0" y2="405.0" style="stroke:#000000;stroke-width:1.0499999999999998;fill-rule: evenodd;" fill="none"/>
<line x1="186.0" y1="405.0" x2="156.0" y2="303.0" style="stroke:#000000;stroke-width:1.0499999999999998;fill-rule: evenodd;" fill="none"/>
<line x1="156.0" y1="303.0" x2="147.0" y2="303.0" style="stroke:#000000;stroke-width:1.0499999999999998;fill-rule: evenodd;" fill="none"/>
<rect x="195.0" y="402.0" rx="0" ry="0" width="9.0" height="3.0" style="stroke:#000000;stroke-width:1.0499999999999998;fill-rule: evenodd;" fill="#000000"/>
<rect x="213.0" y="402.0" rx="0" ry="0" width="9.0" height="3.0" style="stroke:#000000;stroke-width:1.0499999999999998;fill-rule: evenodd;" fill="#000000"/>
<rect x="228.0" y="402.0" rx="0" ry="0" width="12.0" height="3.0" style="stroke:#000000;stroke-width:1.0499999999999998;fill-rule: evenodd;" fill="#000000"/>
<rect x="249.0" y="402.0" rx="0" ry="0" width="9.0" height="3.0" style="stroke:#000000;stroke-width:1.0499999999999998;fill-rule: evenodd;" fill="#000000"/>
<g transform="translate(21.0,15.0) scale(1.2954545454545456,1) "><text x="0.0" y="12.0" font-family="Courier New" font-size="12.0" font-style="" font-weigth="" fill="#000000">MMM...</text>
</g>
<g transform="translate(99.0,18.0) scale(1.2954545454545456,1) "><text x="0.0" y="12.0" font-family="Courier New" font-size="12.0" font-style="" font-weigth="" fill="#000000">TORRE EOLICA COMPLETA DI ALTERNATORE,</text>
</g>
<g transform="translate(162.0,90.0) scale(1.2954545454545456,1) "><text x="0.0" y="12.0" font-family="Courier New" font-size="12.0" font-style="" font-weigth="" fill="#000000">SUPERALIMENTATORE DA LABORATORIO,</text>
</g>
<g transform="translate(24.0,51.0) scale(1.2954545454545456,1) "><text x="0.0" y="12.0" font-family="Courier New" font-size="12.0" font-style="" font-weigth="" fill="#000000">CHOPPER NON CHOPPER,</text>
</g>
<g transform="translate(228.0,48.0) scale(1.2954545454545456,1) "><text x="0.0" y="12.0" font-family="Courier New" font-size="12.0" font-style="" font-weigth="" fill="#000000">REGOLATORE MOTORE MONOFASE,</text>
</g>
<g transform="translate(21.0,69.0) scale(1.2954545454545456,1) "><text x="0.0" y="12.0" font-family="Courier New" font-size="12.0" font-style="" font-weigth="" fill="#000000">ILLUMINATORE A LED PER AUTO, ALIMENTATORE CARPUTING,</text>
</g>
<g transform="translate(24.0,108.0) scale(1.2954545454545456,1) "><text x="0.0" y="12.0" font-family="Courier New" font-size="12.0" font-style="" font-weigth="" fill="#000000">SISTEMA DI CONTROLLO TOTALE CON ARDUINO,</text>
</g>
<g transform="translate(24.0,135.0) scale(1.2954545454545456,1) "><text x="0.0" y="12.0" font-family="Courier New" font-size="12.0" font-style="" font-weigth="" fill="#000000">GIA&apos; PROGETTATI E COSTRUITI...</text>
</g>
<g transform="translate(21.0,165.0) scale(1.2954545454545456,1) "><text x="0.0" y="12.0" font-family="Courier New" font-size="12.0" font-style="" font-weigth="" fill="#000000">COSA PROGETTARE OGGI?</text>
</g>
<path d="M 243.0,225.0 C 228.0,231.0 231.0,249.0 249.0,249.0" style="stroke:#000000;stroke-width:1.0499999999999998;fill-rule: evenodd;" fill="none"/>
<path d="M 336.0,345.0 C 345.0,345.0 348.0,342.0 351.0,339.0" style="stroke:#000000;stroke-width:1.0499999999999998;fill-rule: evenodd;" fill="none"/>
<g transform="translate(24.0,87.0) scale(1.2954545454545456,1) "><text x="0.0" y="12.0" font-family="Courier New" font-size="12.0" font-style="" font-weigth="" fill="#000000">VIDEOCITOFONO,</text>
</g>
<g transform="translate(21.0,33.0) scale(1.2954545454545456,1) "><text x="0.0" y="12.0" font-family="Courier New" font-size="12.0" font-style="" font-weigth="" fill="#000000">INVERTER DA 5 kW, MONTACARICHI (PICCOLO),</text>
</g>
<ellipse cx="348.0" cy="208.5" rx="3.0" ry="7.5" style="stroke:#000000;stroke-width:1.0499999999999998;fill-rule: evenodd;" fill="#000000"/>
<path d="M 339.0,180.0 C 348.0,183.0 348.0,186.0 351.0,186.0" style="stroke:#000000;stroke-width:1.0499999999999998;fill-rule: evenodd;" fill="none"/>
<line x1="336.0" y1="306.0" x2="348.0" y2="306.0" style="stroke:#000000;stroke-linejoin:round;stroke-linecap:round;stroke-width:9"/>
<line x1="399.0" y1="252.0" x2="390.0" y2="255.0" style="stroke:#000000;stroke-linejoin:round;stroke-linecap:round;stroke-width:15"/>
<line x1="390.0" y1="255.0" x2="378.0" y2="264.0" style="stroke:#000000;stroke-linejoin:round;stroke-linecap:round;stroke-width:15"/>
<line x1="378.0" y1="264.0" x2="369.0" y2="270.0" style="stroke:#000000;stroke-linejoin:round;stroke-linecap:round;stroke-width:15"/>
<line x1="369.0" y1="270.0" x2="366.0" y2="279.0" style="stroke:#000000;stroke-linejoin:round;stroke-linecap:round;stroke-width:15"/>
<line x1="366.0" y1="279.0" x2="369.0" y2="288.0" style="stroke:#000000;stroke-linejoin:round;stroke-linecap:round;stroke-width:15"/>
<line x1="369.0" y1="288.0" x2="375.0" y2="294.0" style="stroke:#000000;stroke-linejoin:round;stroke-linecap:round;stroke-width:15"/>
<line x1="375.0" y1="294.0" x2="384.0" y2="294.0" style="stroke:#000000;stroke-linejoin:round;stroke-linecap:round;stroke-width:15"/>
<line x1="384.0" y1="294.0" x2="396.0" y2="294.0" style="stroke:#000000;stroke-linejoin:round;stroke-linecap:round;stroke-width:15"/>
<line x1="396.0" y1="294.0" x2="405.0" y2="291.0" style="stroke:#000000;stroke-linejoin:round;stroke-linecap:round;stroke-width:15"/>
<line x1="405.0" y1="291.0" x2="414.0" y2="282.0" style="stroke:#000000;stroke-linejoin:round;stroke-linecap:round;stroke-width:15"/>
<line x1="414.0" y1="282.0" x2="420.0" y2="270.0" style="stroke:#000000;stroke-linejoin:round;stroke-linecap:round;stroke-width:15"/>
<line x1="420.0" y1="270.0" x2="429.0" y2="252.0" style="stroke:#000000;stroke-linejoin:round;stroke-linecap:round;stroke-width:15"/>
<line x1="429.0" y1="252.0" x2="387.0" y2="285.0" style="stroke:#000000;stroke-linejoin:round;stroke-linecap:round;stroke-width:15"/>
<line x1="387.0" y1="285.0" x2="381.0" y2="276.0" style="stroke:#000000;stroke-linejoin:round;stroke-linecap:round;stroke-width:15"/>
<line x1="381.0" y1="276.0" x2="420.0" y2="243.0" style="stroke:#000000;stroke-linejoin:round;stroke-linecap:round;stroke-width:15"/>
<line x1="420.0" y1="243.0" x2="429.0" y2="243.0" style="stroke:#000000;stroke-linejoin:round;stroke-linecap:round;stroke-width:15"/>
<line x1="429.0" y1="243.0" x2="429.0" y2="243.0" style="stroke:#000000;stroke-linejoin:round;stroke-linecap:round;stroke-width:15"/>
<line x1="309.0" y1="342.0" x2="318.0" y2="348.0" style="stroke:#000000;stroke-width:1.0499999999999998;fill-rule: evenodd;" fill="none"/>
<line x1="303.0" y1="354.0" x2="312.0" y2="357.0" style="stroke:#000000;stroke-width:1.0499999999999998;fill-rule: evenodd;" fill="none"/>
<path d="M 330.0,306.0 C 327.0,318.0 321.0,321.0 324.0,321.0" style="stroke:#000000;stroke-width:1.0499999999999998;fill-rule: evenodd;" fill="none"/>
<path d="M 363.0,342.0 C 366.0,363.0 372.0,375.0 375.0,381.0" style="stroke:#000000;stroke-width:1.0499999999999998;fill-rule: evenodd;" fill="none"/>
<path d="M 378.0,381.0 C 372.0,369.0 369.0,363.0 369.0,357.0" style="stroke:#000000;stroke-width:1.0499999999999998;fill-rule: evenodd;" fill="none"/>
<path d="M 366.0,348.0 C 366.0,348.0 369.0,357.0 369.0,363.0" style="stroke:#000000;stroke-width:1.0499999999999998;fill-rule: evenodd;" fill="none"/>
<path d="M 372.0,369.0 C 375.0,375.0 375.0,378.0 375.0,378.0" style="stroke:#000000;stroke-width:1.0499999999999998;fill-rule: evenodd;" fill="none"/>
<circle cx="240.0" cy="228.0" r="2.25" style="stroke:#000000;stroke-width:0.33" fill="#000000"/>
<circle cx="237.0" cy="234.0" r="2.25" style="stroke:#000000;stroke-width:0.33" fill="#000000"/>
<circle cx="240.0" cy="231.0" r="2.25" style="stroke:#000000;stroke-width:0.33" fill="#000000"/>
<circle cx="240.0" cy="234.0" r="2.25" style="stroke:#000000;stroke-width:0.33" fill="#000000"/>
<circle cx="240.0" cy="237.0" r="2.25" style="stroke:#000000;stroke-width:0.33" fill="#000000"/>
<circle cx="240.0" cy="240.0" r="2.25" style="stroke:#000000;stroke-width:0.33" fill="#000000"/>
<circle cx="237.0" cy="237.0" r="2.25" style="stroke:#000000;stroke-width:0.33" fill="#000000"/>
<circle cx="240.0" cy="240.0" r="2.25" style="stroke:#000000;stroke-width:0.33" fill="#000000"/>
<circle cx="240.0" cy="243.0" r="2.25" style="stroke:#000000;stroke-width:0.33" fill="#000000"/>
<circle cx="240.0" cy="243.0" r="2.25" style="stroke:#000000;stroke-width:0.33" fill="#000000"/>
<circle cx="243.0" cy="246.0" r="2.25" style="stroke:#000000;stroke-width:0.33" fill="#000000"/>
<circle cx="240.0" cy="246.0" r="2.25" style="stroke:#000000;stroke-width:0.33" fill="#000000"/>
<circle cx="243.0" cy="243.0" r="2.25" style="stroke:#000000;stroke-width:0.33" fill="#000000"/>
<circle cx="243.0" cy="243.0" r="2.25" style="stroke:#000000;stroke-width:0.33" fill="#000000"/>
<circle cx="243.0" cy="240.0" r="2.25" style="stroke:#000000;stroke-width:0.33" fill="#000000"/>
<rect x="9.0" y="9.0" rx="0" ry="0" width="519.0" height="471.0" style="stroke:#000000;stroke-width:1.0499999999999998;fill-rule: evenodd;" fill="none"/>
<path d="M 12.0,189.0 C 144.0,186.0 234.0,204.0 348.0,153.0" style="stroke:#000000;stroke-width:1.0499999999999998;fill-rule: evenodd;" fill="none"/>
<path d="M 348.0,153.0 C 354.0,138.0 513.0,165.0 528.0,120.0" style="stroke:#000000;stroke-width:1.0499999999999998;fill-rule: evenodd;" fill="none"/>
<ellipse cx="469.5" cy="157.5" rx="10.5" ry="7.5" style="stroke:#000000;stroke-width:1.0499999999999998;fill-rule: evenodd;" fill="none"/>
<ellipse cx="451.5" cy="174.0" rx="7.5" ry="6.0" style="stroke:#000000;stroke-width:1.0499999999999998;fill-rule: evenodd;" fill="none"/>
<path d="M 300.0,348.0 C 288.0,366.0 285.0,390.0 288.0,405.0" style="stroke:#000000;stroke-width:1.0499999999999998;fill-rule: evenodd;" fill="none"/>
<path d="M 381.0,408.0 C 384.0,408.0 384.0,405.0 384.0,408.0" style="stroke:#000000;stroke-width:1.0499999999999998;fill-rule: evenodd;" fill="none"/>
<path d="M 381.0,411.0 C 387.0,408.0 384.0,405.0 384.0,405.0" style="stroke:#000000;stroke-width:1.0499999999999998;fill-rule: evenodd;" fill="none"/>
<line x1="108.0" y1="411.0" x2="180.0" y2="411.0" style="stroke:#000000;stroke-width:1.0499999999999998;fill-rule: evenodd;" fill="none"/>
<line x1="270.0" y1="411.0" x2="291.0" y2="411.0" style="stroke:#000000;stroke-width:1.0499999999999998;fill-rule: evenodd;" fill="none"/>
<line x1="417.0" y1="411.0" x2="468.0" y2="411.0" style="stroke:#000000;stroke-width:1.0499999999999998;fill-rule: evenodd;" fill="none"/>
<line x1="108.0" y1="411.0" x2="93.0" y2="477.0" style="stroke:#000000;stroke-width:1.0499999999999998;fill-rule: evenodd;" fill="none"/>
<line x1="468.0" y1="411.0" x2="489.0" y2="477.0" style="stroke:#000000;stroke-width:1.0499999999999998;fill-rule: evenodd;" fill="none"/>
<line x1="123.0" y1="456.0" x2="441.0" y2="456.0" style="stroke:#000000;stroke-width:1.0499999999999998;fill-rule: evenodd;" fill="none"/>
<rect x="9.0" y="480.0" rx="0" ry="0" width="519.0" height="33.0" style="stroke:#000000;stroke-width:1.0499999999999998;fill-rule: evenodd;" fill="none"/>
<g transform="translate(132.0,486.0) scale(1.1515151515151514,1) "><text x="0.0" y="18.0" font-family="Courier New" font-size="18.0" font-style="" font-weigth="bold" fill="#000000">CONCORSO</text>
</g>
<g transform="translate(240.0,486.0) scale(1.1515151515151514,1) "><text x="0.0" y="18.0" font-family="Courier New" font-size="18.0" font-style="" font-weigth="bold" fill="#000000">&quot;E  M M E &quot;</text>
</g>
<g transform="translate(264.0,486.0) scale(1.1515151515151514,1) "><text x="0.0" y="18.0" font-family="Courier New" font-size="18.0" font-style="" font-weigth="bold" fill="#ffc800">Y  E B R</text>
</g>
</svg>