<?xml version="1.0" encoding="UTF-8" standalone="no"?> 
<!DOCTYPE svg PUBLIC "-//W3C//Dtd SVG 1.1//EN" "http://www.w3.org/Graphics/SVG/1.1/Dtd/svg11.dtd">
<svg width="282.0" height="351.0" version="1.1" xmlns="http://www.w3.org/2000/svg" xmlns:xlink="http://www.w3.org/1999/xlink">
<!-- Created by FidoCadJ ver. 0.24.9 gamma, export filter by Davide Bucci -->
<ellipse cx="154.5" cy="154.5" rx="106.5" ry="100.5" style="stroke:#333333;stroke-dashoffset: 0.0;stroke-width:1.5;stroke-linejoin:round;stroke-linecap:round;fill-rule: evenodd;" fill="none"/>
<g transform="translate(135.0,321.0) scale(1.0,1.0)"><text x="0.0" y="18.0" font-family="Comic Sans MS, sans-serif" font-size="15.93" font-style="" font-weight="" xml:space="preserve" fill="#333333">fig. 4</text>
</g>
<ellipse cx="153.0" cy="154.5" rx="36.0" ry="34.5" style="stroke:#996600;stroke-width:1.5;stroke-linejoin:round;stroke-linecap:round;fill-rule: evenodd;" fill="#996600"/>
<ellipse cx="153.0" cy="154.5" rx="21.0" ry="19.5" style="stroke:#ffffff;stroke-width:1.5;stroke-linejoin:round;stroke-linecap:round;fill-rule: evenodd;" fill="#ffffff"/>
<polygon points="60.0,108.0 81.0,123.0 90.0,111.0 66.0,96.0 " style="stroke:#ffffff;stroke-width:1.5;stroke-linejoin:round;stroke-linecap:round;fill-rule: evenodd;" fill="#ffffff"/>
<polygon points="63.0,207.0 87.0,195.0 81.0,186.0 57.0,198.0 " style="stroke:#ffffff;stroke-width:1.5;stroke-linejoin:round;stroke-linecap:round;fill-rule: evenodd;" fill="#ffffff"/>
<rect x="147.0" y="228.0" rx="0" ry="0" width="15.0" height="30.0" style="stroke:#ffffff;stroke-width:1.5;stroke-linejoin:round;stroke-linecap:round;fill-rule: evenodd;" fill="#ffffff"/>
<polygon points="243.0,102.0 222.0,114.0 231.0,126.0 255.0,114.0 246.0,102.0 " style="stroke:#ffffff;stroke-width:1.5;stroke-linejoin:round;stroke-linecap:round;fill-rule: evenodd;" fill="#ffffff"/>
<g transform="translate(150.0,120.0) scale(1.0,1.0)"><text x="0.0" y="12.0" font-family="Comic Sans MS, sans-serif" font-size="10.79" font-style="" font-weight="bold" xml:space="preserve" fill="#ffffff">1</text>
</g>
<g transform="translate(174.0,135.0) scale(1.0,1.0)"><text x="0.0" y="12.0" font-family="Comic Sans MS, sans-serif" font-size="10.79" font-style="" font-weight="bold" xml:space="preserve" fill="#ffffff">2</text>
</g>
<g transform="translate(171.0,159.0) scale(1.0,1.0)"><text x="0.0" y="12.0" font-family="Comic Sans MS, sans-serif" font-size="10.79" font-style="" font-weight="bold" xml:space="preserve" fill="#ffffff">3</text>
</g>
<g transform="translate(150.0,171.0) scale(1.0,1.0)"><text x="0.0" y="12.0" font-family="Comic Sans MS, sans-serif" font-size="10.79" font-style="" font-weight="bold" xml:space="preserve" fill="#ffffff">4</text>
</g>
<g transform="translate(126.0,159.0) scale(1.0,1.0)"><text x="0.0" y="12.0" font-family="Comic Sans MS, sans-serif" font-size="10.79" font-style="" font-weight="bold" xml:space="preserve" fill="#ffffff">5</text>
</g>
<g transform="translate(126.0,135.0) scale(1.0,1.0)"><text x="0.0" y="12.0" font-family="Comic Sans MS, sans-serif" font-size="10.79" font-style="" font-weight="bold" xml:space="preserve" fill="#ffffff">6</text>
</g>
<rect x="147.0" y="51.0" rx="0" ry="0" width="15.0" height="30.0" style="stroke:#ffffff;stroke-width:1.5;stroke-linejoin:round;stroke-linecap:round;fill-rule: evenodd;" fill="#ffffff"/>
<polygon points="249.0,204.0 228.0,192.0 222.0,201.0 240.0,216.0 243.0,213.0 " style="stroke:#ffffff;stroke-width:1.5;stroke-linejoin:round;stroke-linecap:round;fill-rule: evenodd;" fill="#ffffff"/>
<path d="M 69.0,105.0 C 99.0,72.0 156.0,99.0 153.0,114.0" style="stroke:#ff9900;stroke-width:1.5;stroke-linejoin:round;stroke-linecap:round;fill-rule: evenodd;" fill="none"/>
<path d="M 186.0,135.0 C 219.0,135.0 243.0,162.0 228.0,198.0" style="stroke:#ff9900;stroke-width:1.5;stroke-linejoin:round;stroke-linecap:round;fill-rule: evenodd;" fill="none"/>
<line x1="153.0" y1="123.0" x2="153.0" y2="111.0" style="stroke:#ff9900;stroke-width:1.5;stroke-linejoin:round;stroke-linecap:round;fill-rule: evenodd;" fill="none"/>
<line x1="180.0" y1="168.0" x2="189.0" y2="174.0" style="stroke:#ff9900;stroke-width:1.5;stroke-linejoin:round;stroke-linecap:round;fill-rule: evenodd;" fill="none"/>
<line x1="153.0" y1="186.0" x2="153.0" y2="192.0" style="stroke:#ff9900;stroke-width:1.5;stroke-linejoin:round;stroke-linecap:round;fill-rule: evenodd;" fill="none"/>
<line x1="126.0" y1="171.0" x2="117.0" y2="177.0" style="stroke:#ff9900;stroke-width:1.5;stroke-linejoin:round;stroke-linecap:round;fill-rule: evenodd;" fill="none"/>
<line x1="114.0" y1="135.0" x2="123.0" y2="141.0" style="stroke:#ff9900;stroke-width:1.5;stroke-linejoin:round;stroke-linecap:round;fill-rule: evenodd;" fill="none"/>
<path d="M 156.0,60.0 C 204.0,66.0 201.0,105.0 186.0,135.0" style="stroke:#ff9900;stroke-width:1.5;stroke-linejoin:round;stroke-linecap:round;fill-rule: evenodd;" fill="none"/>
<path d="M 189.0,174.0 C 207.0,183.0 201.0,228.0 156.0,234.0" style="stroke:#ff9900;stroke-width:1.5;stroke-linejoin:round;stroke-linecap:round;fill-rule: evenodd;" fill="none"/>
<path d="M 189.0,174.0 C 219.0,177.0 258.0,156.0 243.0,108.0" style="stroke:#ff9900;stroke-width:1.5;stroke-linejoin:round;stroke-linecap:round;fill-rule: evenodd;" fill="none"/>
<path d="M 153.0,192.0 C 156.0,219.0 108.0,237.0 75.0,195.0" style="stroke:#ff9900;stroke-width:1.5;stroke-linejoin:round;stroke-linecap:round;fill-rule: evenodd;" fill="none"/>
<path d="M 153.0,195.0 C 165.0,219.0 204.0,237.0 237.0,207.0" style="stroke:#ff9900;stroke-width:1.5;stroke-linejoin:round;stroke-linecap:round;fill-rule: evenodd;" fill="none"/>
<path d="M 117.0,177.0 C 84.0,171.0 63.0,153.0 78.0,114.0" style="stroke:#ff9900;stroke-width:1.5;stroke-linejoin:round;stroke-linecap:round;fill-rule: evenodd;" fill="none"/>
<path d="M 117.0,177.0 C 99.0,201.0 120.0,246.0 153.0,246.0" style="stroke:#ff9900;stroke-width:1.5;stroke-linejoin:round;stroke-linecap:round;fill-rule: evenodd;" fill="none"/>
<path d="M 114.0,135.0 C 93.0,117.0 105.0,69.0 153.0,75.0" style="stroke:#ff9900;stroke-width:1.5;stroke-linejoin:round;stroke-linecap:round;fill-rule: evenodd;" fill="none"/>
<path d="M 114.0,135.0 C 69.0,141.0 57.0,162.0 69.0,201.0" style="stroke:#ff9900;stroke-width:1.5;stroke-linejoin:round;stroke-linecap:round;fill-rule: evenodd;" fill="none"/>
<path d="M 153.0,108.0 C 180.0,69.0 228.0,93.0 234.0,114.0" style="stroke:#ff9900;stroke-width:1.5;stroke-linejoin:round;stroke-linecap:round;fill-rule: evenodd;" fill="none"/>
<circle cx="153.0" cy="108.0" r="3.0" style="stroke:#ff9900;stroke-width:0.33" fill="#ff9900"/>
<circle cx="189.0" cy="135.0" r="3.0" style="stroke:#ff9900;stroke-width:0.33" fill="#ff9900"/>
<circle cx="189.0" cy="174.0" r="3.0" style="stroke:#ff9900;stroke-width:0.33" fill="#ff9900"/>
<circle cx="153.0" cy="198.0" r="3.0" style="stroke:#ff9900;stroke-width:0.33" fill="#ff9900"/>
<circle cx="117.0" cy="177.0" r="3.0" style="stroke:#ff9900;stroke-width:0.33" fill="#ff9900"/>
<circle cx="114.0" cy="135.0" r="3.0" style="stroke:#ff9900;stroke-width:0.33" fill="#ff9900"/>
<line x1="153.0" y1="111.0" x2="153.0" y2="111.0" style="stroke:#ff9900;stroke-width:1.5;stroke-linejoin:round;stroke-linecap:round;fill-rule: evenodd;" fill="none"/>
<line x1="180.0" y1="138.0" x2="186.0" y2="135.0" style="stroke:#ff9900;stroke-width:1.5;stroke-linejoin:round;stroke-linecap:round;fill-rule: evenodd;" fill="none"/>
<rect x="51.0" y="156.0" rx="0" ry="0" width="204.0" height="153.0" style="stroke:#ffcccc;stroke-width:1.5;stroke-linejoin:round;stroke-linecap:round;fill-rule: evenodd;" opacity="0.15" fill="#ffcccc"/>
<g transform="translate(9.0,96.0) scale(1.0,1.0)"><text x="0.0" y="18.0" font-family="Comic Sans MS, sans-serif" font-size="15.93" font-style="" font-weight="" xml:space="preserve" fill="#008000">ωm</text>
</g>
<polygon points="57.0,87.0 52.98,92.37 50.29,87.0" style="stroke:#008000;stroke-width:1.5;stroke-linejoin:round;stroke-linecap:round;fill-rule: evenodd;" fill="#008000"/>
<path d="M 57.0,222.0 C 9.0,168.0 33.0,99.0 52.0,90.0" style="stroke:#008000;stroke-dasharray: 3.0,7.5;stroke-width:1.5;stroke-linejoin:round;stroke-linecap:round;fill-rule: evenodd;" fill="none"/>
<rect x="51.0" y="9.0" rx="0" ry="0" width="204.0" height="141.0" style="stroke:#0066ff;stroke-width:1.5;stroke-linejoin:round;stroke-linecap:round;fill-rule: evenodd;" opacity="0.1" fill="#0066ff"/>
<ellipse cx="76.5" cy="193.5" rx="4.5" ry="4.5" style="stroke:#ff1493;stroke-width:1.5;stroke-linejoin:round;stroke-linecap:round;fill-rule: evenodd;" fill="#ff1493"/>
<ellipse cx="154.5" cy="235.5" rx="4.5" ry="4.5" style="stroke:#ff1493;stroke-width:1.5;stroke-linejoin:round;stroke-linecap:round;fill-rule: evenodd;" fill="#ff1493"/>
<ellipse cx="154.5" cy="247.5" rx="4.5" ry="4.5" style="stroke:#ff1493;stroke-width:1.5;stroke-linejoin:round;stroke-linecap:round;fill-rule: evenodd;" fill="#ff1493"/>
<ellipse cx="67.5" cy="199.5" rx="4.5" ry="4.5" style="stroke:#ff1493;stroke-width:1.5;stroke-linejoin:round;stroke-linecap:round;fill-rule: evenodd;" fill="#ff1493"/>
<ellipse cx="238.5" cy="205.5" rx="4.5" ry="4.5" style="stroke:#ff1493;stroke-width:1.5;stroke-linejoin:round;stroke-linecap:round;fill-rule: evenodd;" fill="#ff1493"/>
<ellipse cx="229.5" cy="199.5" rx="4.5" ry="4.5" style="stroke:#ff1493;stroke-width:1.5;stroke-linejoin:round;stroke-linecap:round;fill-rule: evenodd;" fill="#ff1493"/>
<ellipse cx="241.5" cy="109.5" rx="4.5" ry="4.5" style="stroke:#0180ff;stroke-width:1.5;stroke-linejoin:round;stroke-linecap:round;fill-rule: evenodd;" fill="#0180ff"/>
<ellipse cx="70.5" cy="106.5" rx="4.5" ry="4.5" style="stroke:#0180ff;stroke-width:1.5;stroke-linejoin:round;stroke-linecap:round;fill-rule: evenodd;" fill="#0180ff"/>
<ellipse cx="79.5" cy="112.5" rx="4.5" ry="4.5" style="stroke:#0180ff;stroke-width:1.5;stroke-linejoin:round;stroke-linecap:round;fill-rule: evenodd;" fill="#0180ff"/>
<ellipse cx="154.5" cy="61.5" rx="4.5" ry="4.5" style="stroke:#0180ff;stroke-width:1.5;stroke-linejoin:round;stroke-linecap:round;fill-rule: evenodd;" fill="#0180ff"/>
<ellipse cx="154.5" cy="73.5" rx="4.5" ry="4.5" style="stroke:#0180ff;stroke-width:1.5;stroke-linejoin:round;stroke-linecap:round;fill-rule: evenodd;" fill="#0180ff"/>
<ellipse cx="232.5" cy="115.5" rx="4.5" ry="4.5" style="stroke:#0180ff;stroke-width:1.5;stroke-linejoin:round;stroke-linecap:round;fill-rule: evenodd;" fill="#0180ff"/>
<line x1="165.0" y1="138.0" x2="171.0" y2="129.0" style="stroke:#a2a2a2;stroke-width:1.5;stroke-linejoin:round;stroke-linecap:round;fill-rule: evenodd;" opacity="0.9" fill="none"/>
<line x1="135.0" y1="126.0" x2="144.0" y2="138.0" style="stroke:#a2a2a2;stroke-width:1.5;stroke-linejoin:round;stroke-linecap:round;fill-rule: evenodd;" opacity="0.9" fill="none"/>
<line x1="120.0" y1="153.0" x2="132.0" y2="153.0" style="stroke:#a2a2a2;stroke-width:1.5;stroke-linejoin:round;stroke-linecap:round;fill-rule: evenodd;" opacity="0.9" fill="none"/>
<line x1="174.0" y1="153.0" x2="186.0" y2="153.0" style="stroke:#a2a2a2;stroke-width:1.5;stroke-linejoin:round;stroke-linecap:round;fill-rule: evenodd;" opacity="0.9" fill="none"/>
<polygon points="36.0,153.0 45.0,147.0 45.0,159.0" style="stroke:#a2a2a2;stroke-width:1.5;stroke-linejoin:round;stroke-linecap:round;fill-rule: evenodd;" opacity="0.9" fill="#a2a2a2"/>
<polygon points="273.0,153.0 264.0,159.0 264.0,147.0" style="stroke:#a2a2a2;stroke-width:1.5;stroke-linejoin:round;stroke-linecap:round;fill-rule: evenodd;" opacity="0.9" fill="#a2a2a2"/>
<line x1="45.0" y1="153.0" x2="264.0" y2="153.0" style="stroke:#a2a2a2;stroke-dasharray: 3.0,7.5;stroke-width:1.5;stroke-linejoin:round;stroke-linecap:round;fill-rule: evenodd;" opacity="0.9" fill="none"/>
<line x1="135.0" y1="183.0" x2="144.0" y2="171.0" style="stroke:#a2a2a2;stroke-width:1.5;stroke-linejoin:round;stroke-linecap:round;fill-rule: evenodd;" opacity="0.9" fill="none"/>
<line x1="165.0" y1="171.0" x2="174.0" y2="183.0" style="stroke:#a2a2a2;stroke-width:1.5;stroke-linejoin:round;stroke-linecap:round;fill-rule: evenodd;" opacity="0.9" fill="none"/>
<g transform="translate(138.0,276.0) scale(1.0,1.0)"><text x="0.0" y="18.0" font-family="Comic Sans MS, sans-serif" font-size="15.93" font-style="" font-weight="" xml:space="preserve" fill="#5f5f5f">SUD</text>
</g>
<g transform="translate(129.0,15.0) scale(1.0,1.0)"><text x="0.0" y="18.0" font-family="Comic Sans MS, sans-serif" font-size="15.93" font-style="" font-weight="" xml:space="preserve" fill="#5f5f5f">NORD</text>
</g>
<path d="M 66.0,78.0 C 99.0,36.0 189.0,24.0 243.0,75.0" style="stroke:#000000;stroke-width:1.5;stroke-linejoin:round;stroke-linecap:round;fill-rule: evenodd;" fill="none"/>
<g transform="translate(60.0,111.0) scale(1.0,1.0)"><text x="0.0" y="12.0" font-family="Comic Sans MS, sans-serif" font-size="10.79" font-style="" font-weight="bold" xml:space="preserve" fill="#000000">1</text>
</g>
<g transform="translate(87.0,93.0) scale(1.0,1.0)"><text x="0.0" y="12.0" font-family="Comic Sans MS, sans-serif" font-size="10.79" font-style="" font-weight="bold" xml:space="preserve" fill="#000000">1&apos;</text>
</g>
<g transform="translate(135.0,54.0) scale(1.0,1.0)"><text x="0.0" y="12.0" font-family="Comic Sans MS, sans-serif" font-size="10.79" font-style="" font-weight="bold" xml:space="preserve" fill="#000000">2</text>
</g>
<g transform="translate(165.0,66.0) scale(1.0,1.0)"><text x="0.0" y="12.0" font-family="Comic Sans MS, sans-serif" font-size="10.79" font-style="" font-weight="bold" xml:space="preserve" fill="#000000">2&apos;</text>
</g>
<g transform="translate(231.0,90.0) scale(1.0,1.0)"><text x="0.0" y="12.0" font-family="Comic Sans MS, sans-serif" font-size="10.79" font-style="" font-weight="bold" xml:space="preserve" fill="#000000">3</text>
</g>
<g transform="translate(234.0,123.0) scale(1.0,1.0)"><text x="0.0" y="12.0" font-family="Comic Sans MS, sans-serif" font-size="10.79" font-style="" font-weight="bold" xml:space="preserve" fill="#000000">3&apos;</text>
</g>
<g transform="translate(240.0,186.0) scale(1.0,1.0)"><text x="0.0" y="12.0" font-family="Comic Sans MS, sans-serif" font-size="10.79" font-style="" font-weight="bold" xml:space="preserve" fill="#000000">4</text>
</g>
<g transform="translate(213.0,204.0) scale(1.0,1.0)"><text x="0.0" y="12.0" font-family="Comic Sans MS, sans-serif" font-size="10.79" font-style="" font-weight="bold" xml:space="preserve" fill="#000000">4&apos;</text>
</g>
<g transform="translate(165.0,240.0) scale(1.0,1.0)"><text x="0.0" y="12.0" font-family="Comic Sans MS, sans-serif" font-size="10.79" font-style="" font-weight="bold" xml:space="preserve" fill="#000000">5</text>
</g>
<g transform="translate(135.0,228.0) scale(1.0,1.0)"><text x="0.0" y="12.0" font-family="Comic Sans MS, sans-serif" font-size="10.79" font-style="" font-weight="bold" xml:space="preserve" fill="#000000">5&apos;</text>
</g>
<g transform="translate(69.0,204.0) scale(1.0,1.0)"><text x="0.0" y="12.0" font-family="Comic Sans MS, sans-serif" font-size="10.79" font-style="" font-weight="bold" xml:space="preserve" fill="#000000">6</text>
</g>
<g transform="translate(72.0,171.0) scale(1.0,1.0)"><text x="0.0" y="12.0" font-family="Comic Sans MS, sans-serif" font-size="10.79" font-style="" font-weight="bold" xml:space="preserve" fill="#000000">6&apos;</text>
</g>
<line x1="147.0" y1="54.0" x2="147.0" y2="81.0" style="stroke:#000000;stroke-width:1.5;stroke-linejoin:round;stroke-linecap:round;fill-rule: evenodd;" fill="none"/>
<line x1="147.0" y1="81.0" x2="162.0" y2="81.0" style="stroke:#000000;stroke-width:1.5;stroke-linejoin:round;stroke-linecap:round;fill-rule: evenodd;" fill="none"/>
<line x1="162.0" y1="81.0" x2="162.0" y2="54.0" style="stroke:#000000;stroke-width:1.5;stroke-linejoin:round;stroke-linecap:round;fill-rule: evenodd;" fill="none"/>
<line x1="147.0" y1="228.0" x2="147.0" y2="255.0" style="stroke:#000000;stroke-width:1.5;stroke-linejoin:round;stroke-linecap:round;fill-rule: evenodd;" fill="none"/>
<line x1="162.0" y1="228.0" x2="162.0" y2="255.0" style="stroke:#000000;stroke-width:1.5;stroke-linejoin:round;stroke-linecap:round;fill-rule: evenodd;" fill="none"/>
<line x1="147.0" y1="228.0" x2="162.0" y2="228.0" style="stroke:#000000;stroke-width:1.5;stroke-linejoin:round;stroke-linecap:round;fill-rule: evenodd;" fill="none"/>
<line x1="219.0" y1="114.0" x2="243.0" y2="102.0" style="stroke:#000000;stroke-width:1.5;stroke-linejoin:round;stroke-linecap:round;fill-rule: evenodd;" fill="none"/>
<line x1="228.0" y1="126.0" x2="252.0" y2="114.0" style="stroke:#000000;stroke-width:1.5;stroke-linejoin:round;stroke-linecap:round;fill-rule: evenodd;" fill="none"/>
<line x1="222.0" y1="114.0" x2="228.0" y2="126.0" style="stroke:#000000;stroke-width:1.5;stroke-linejoin:round;stroke-linecap:round;fill-rule: evenodd;" fill="none"/>
<line x1="219.0" y1="201.0" x2="240.0" y2="216.0" style="stroke:#000000;stroke-width:1.5;stroke-linejoin:round;stroke-linecap:round;fill-rule: evenodd;" fill="none"/>
<line x1="228.0" y1="189.0" x2="249.0" y2="204.0" style="stroke:#000000;stroke-width:1.5;stroke-linejoin:round;stroke-linecap:round;fill-rule: evenodd;" fill="none"/>
<line x1="219.0" y1="201.0" x2="228.0" y2="189.0" style="stroke:#000000;stroke-width:1.5;stroke-linejoin:round;stroke-linecap:round;fill-rule: evenodd;" fill="none"/>
<line x1="60.0" y1="108.0" x2="81.0" y2="123.0" style="stroke:#000000;stroke-width:1.5;stroke-linejoin:round;stroke-linecap:round;fill-rule: evenodd;" fill="none"/>
<line x1="69.0" y1="96.0" x2="90.0" y2="111.0" style="stroke:#000000;stroke-width:1.5;stroke-linejoin:round;stroke-linecap:round;fill-rule: evenodd;" fill="none"/>
<line x1="81.0" y1="123.0" x2="90.0" y2="111.0" style="stroke:#000000;stroke-width:1.5;stroke-linejoin:round;stroke-linecap:round;fill-rule: evenodd;" fill="none"/>
<line x1="57.0" y1="195.0" x2="81.0" y2="183.0" style="stroke:#000000;stroke-width:1.5;stroke-linejoin:round;stroke-linecap:round;fill-rule: evenodd;" fill="none"/>
<line x1="66.0" y1="207.0" x2="87.0" y2="195.0" style="stroke:#000000;stroke-width:1.5;stroke-linejoin:round;stroke-linecap:round;fill-rule: evenodd;" fill="none"/>
<line x1="81.0" y1="183.0" x2="87.0" y2="195.0" style="stroke:#000000;stroke-width:1.5;stroke-linejoin:round;stroke-linecap:round;fill-rule: evenodd;" fill="none"/>
<line x1="243.0" y1="75.0" x2="243.0" y2="15.0" style="stroke:#000000;stroke-width:1.5;stroke-linejoin:round;stroke-linecap:round;fill-rule: evenodd;" fill="none"/>
<line x1="243.0" y1="231.0" x2="243.0" y2="291.0" style="stroke:#000000;stroke-width:1.5;stroke-linejoin:round;stroke-linecap:round;fill-rule: evenodd;" fill="none"/>
<path d="M 243.0,231.0 C 210.0,273.0 120.0,285.0 66.0,234.0" style="stroke:#000000;stroke-width:1.5;stroke-linejoin:round;stroke-linecap:round;fill-rule: evenodd;" fill="none"/>
<line x1="66.0" y1="234.0" x2="66.0" y2="294.0" style="stroke:#000000;stroke-width:1.5;stroke-linejoin:round;stroke-linecap:round;fill-rule: evenodd;" fill="none"/>
<line x1="66.0" y1="78.0" x2="66.0" y2="18.0" style="stroke:#000000;stroke-width:1.5;stroke-linejoin:round;stroke-linecap:round;fill-rule: evenodd;" fill="none"/>
<polygon points="147.0,144.0 147.0,135.0 153.0,135.0 159.0,135.0 159.0,144.0 " style="stroke:#000000;stroke-width:1.5;stroke-linejoin:round;stroke-linecap:round;fill-rule: evenodd;" fill="#000000"/>
<polygon points="159.0,165.0 159.0,174.0 153.0,174.0 147.0,174.0 147.0,165.0 " style="stroke:#000000;stroke-width:1.5;stroke-linejoin:round;stroke-linecap:round;fill-rule: evenodd;" fill="#000000"/>
</svg>