<?xml version="1.0" encoding="UTF-8" standalone="no"?> 
<!DOCTYPE svg PUBLIC "-//W3C//Dtd SVG 1.1//EN" "http://www.w3.org/Graphics/SVG/1.1/Dtd/svg11.dtd">
<svg width="711.0" height="453.0" version="1.1" xmlns="http://www.w3.org/2000/svg" xmlns:xlink="http://www.w3.org/1999/xlink">
<!-- Created by FidoCadJ ver. 0.24.9 gamma, export filter by Davide Bucci -->
<line x1="9.0" y1="69.0" x2="9.0" y2="414.0" style="stroke:#000000;stroke-dashoffset: 0.0;stroke-width:1.5;fill-rule: evenodd;" fill="none"/>
<line x1="9.0" y1="414.0" x2="219.0" y2="414.0" style="stroke:#000000;stroke-width:1.5;fill-rule: evenodd;" fill="none"/>
<line x1="219.0" y1="414.0" x2="294.0" y2="354.0" style="stroke:#000000;stroke-width:1.5;fill-rule: evenodd;" fill="none"/>
<line x1="294.0" y1="354.0" x2="294.0" y2="324.0" style="stroke:#000000;stroke-width:1.5;fill-rule: evenodd;" fill="none"/>
<line x1="294.0" y1="324.0" x2="249.0" y2="324.0" style="stroke:#000000;stroke-width:1.5;fill-rule: evenodd;" fill="none"/>
<line x1="249.0" y1="324.0" x2="249.0" y2="339.0" style="stroke:#000000;stroke-width:1.5;fill-rule: evenodd;" fill="none"/>
<line x1="249.0" y1="339.0" x2="204.0" y2="399.0" style="stroke:#000000;stroke-width:1.5;fill-rule: evenodd;" fill="none"/>
<line x1="204.0" y1="399.0" x2="24.0" y2="399.0" style="stroke:#000000;stroke-width:1.5;fill-rule: evenodd;" fill="none"/>
<line x1="24.0" y1="399.0" x2="24.0" y2="129.0" style="stroke:#000000;stroke-width:1.5;fill-rule: evenodd;" fill="none"/>
<line x1="24.0" y1="129.0" x2="69.0" y2="129.0" style="stroke:#000000;stroke-width:1.5;fill-rule: evenodd;" fill="none"/>
<line x1="69.0" y1="129.0" x2="69.0" y2="54.0" style="stroke:#000000;stroke-width:1.5;fill-rule: evenodd;" fill="none"/>
<line x1="69.0" y1="54.0" x2="9.0" y2="54.0" style="stroke:#000000;stroke-width:1.5;fill-rule: evenodd;" fill="none"/>
<line x1="9.0" y1="54.0" x2="9.0" y2="69.0" style="stroke:#000000;stroke-width:1.5;fill-rule: evenodd;" fill="none"/>
<line x1="159.0" y1="324.0" x2="159.0" y2="354.0" style="stroke:#000000;stroke-width:1.5;fill-rule: evenodd;" fill="none"/>
<line x1="159.0" y1="354.0" x2="99.0" y2="354.0" style="stroke:#000000;stroke-width:1.5;fill-rule: evenodd;" fill="none"/>
<line x1="99.0" y1="354.0" x2="99.0" y2="309.0" style="stroke:#000000;stroke-width:1.5;fill-rule: evenodd;" fill="none"/>
<line x1="99.0" y1="309.0" x2="69.0" y2="264.0" style="stroke:#000000;stroke-width:1.5;fill-rule: evenodd;" fill="none"/>
<line x1="69.0" y1="264.0" x2="69.0" y2="219.0" style="stroke:#000000;stroke-width:1.5;fill-rule: evenodd;" fill="none"/>
<line x1="69.0" y1="219.0" x2="114.0" y2="219.0" style="stroke:#000000;stroke-width:1.5;fill-rule: evenodd;" fill="none"/>
<line x1="114.0" y1="219.0" x2="99.0" y2="279.0" style="stroke:#000000;stroke-width:1.5;fill-rule: evenodd;" fill="none"/>
<line x1="99.0" y1="279.0" x2="114.0" y2="294.0" style="stroke:#000000;stroke-width:1.5;fill-rule: evenodd;" fill="none"/>
<line x1="114.0" y1="294.0" x2="129.0" y2="309.0" style="stroke:#000000;stroke-width:1.5;fill-rule: evenodd;" fill="none"/>
<line x1="129.0" y1="309.0" x2="159.0" y2="309.0" style="stroke:#000000;stroke-width:1.5;fill-rule: evenodd;" fill="none"/>
<line x1="159.0" y1="309.0" x2="159.0" y2="324.0" style="stroke:#000000;stroke-width:1.5;fill-rule: evenodd;" fill="none"/>
<line x1="129.0" y1="69.0" x2="129.0" y2="159.0" style="stroke:#000000;stroke-width:1.5;fill-rule: evenodd;" fill="none"/>
<line x1="129.0" y1="159.0" x2="279.0" y2="159.0" style="stroke:#000000;stroke-width:1.5;fill-rule: evenodd;" fill="none"/>
<line x1="279.0" y1="159.0" x2="279.0" y2="69.0" style="stroke:#000000;stroke-width:1.5;fill-rule: evenodd;" fill="none"/>
<line x1="279.0" y1="69.0" x2="129.0" y2="69.0" style="stroke:#000000;stroke-width:1.5;fill-rule: evenodd;" fill="none"/>
<line x1="159.0" y1="189.0" x2="159.0" y2="219.0" style="stroke:#000000;stroke-width:1.5;fill-rule: evenodd;" fill="none"/>
<line x1="159.0" y1="219.0" x2="339.0" y2="219.0" style="stroke:#000000;stroke-width:1.5;fill-rule: evenodd;" fill="none"/>
<line x1="339.0" y1="219.0" x2="339.0" y2="24.0" style="stroke:#000000;stroke-width:1.5;fill-rule: evenodd;" fill="none"/>
<line x1="339.0" y1="24.0" x2="309.0" y2="24.0" style="stroke:#000000;stroke-width:1.5;fill-rule: evenodd;" fill="none"/>
<line x1="309.0" y1="24.0" x2="309.0" y2="189.0" style="stroke:#000000;stroke-width:1.5;fill-rule: evenodd;" fill="none"/>
<line x1="309.0" y1="189.0" x2="159.0" y2="189.0" style="stroke:#000000;stroke-width:1.5;fill-rule: evenodd;" fill="none"/>
<line x1="159.0" y1="234.0" x2="159.0" y2="279.0" style="stroke:#000000;stroke-width:1.5;fill-rule: evenodd;" fill="none"/>
<line x1="159.0" y1="279.0" x2="339.0" y2="279.0" style="stroke:#000000;stroke-width:1.5;fill-rule: evenodd;" fill="none"/>
<line x1="339.0" y1="279.0" x2="384.0" y2="354.0" style="stroke:#000000;stroke-width:1.5;fill-rule: evenodd;" fill="none"/>
<line x1="384.0" y1="354.0" x2="384.0" y2="414.0" style="stroke:#000000;stroke-width:1.5;fill-rule: evenodd;" fill="none"/>
<line x1="384.0" y1="414.0" x2="429.0" y2="414.0" style="stroke:#000000;stroke-width:1.5;fill-rule: evenodd;" fill="none"/>
<line x1="429.0" y1="414.0" x2="429.0" y2="339.0" style="stroke:#000000;stroke-width:1.5;fill-rule: evenodd;" fill="none"/>
<line x1="429.0" y1="339.0" x2="384.0" y2="279.0" style="stroke:#000000;stroke-width:1.5;fill-rule: evenodd;" fill="none"/>
<line x1="384.0" y1="279.0" x2="384.0" y2="144.0" style="stroke:#000000;stroke-width:1.5;fill-rule: evenodd;" fill="none"/>
<line x1="384.0" y1="144.0" x2="414.0" y2="114.0" style="stroke:#000000;stroke-width:1.5;fill-rule: evenodd;" fill="none"/>
<line x1="414.0" y1="114.0" x2="414.0" y2="24.0" style="stroke:#000000;stroke-width:1.5;fill-rule: evenodd;" fill="none"/>
<line x1="414.0" y1="24.0" x2="384.0" y2="24.0" style="stroke:#000000;stroke-width:1.5;fill-rule: evenodd;" fill="none"/>
<line x1="384.0" y1="24.0" x2="384.0" y2="114.0" style="stroke:#000000;stroke-width:1.5;fill-rule: evenodd;" fill="none"/>
<line x1="384.0" y1="114.0" x2="369.0" y2="144.0" style="stroke:#000000;stroke-width:1.5;fill-rule: evenodd;" fill="none"/>
<line x1="369.0" y1="144.0" x2="369.0" y2="234.0" style="stroke:#000000;stroke-width:1.5;fill-rule: evenodd;" fill="none"/>
<line x1="369.0" y1="234.0" x2="159.0" y2="234.0" style="stroke:#000000;stroke-width:1.5;fill-rule: evenodd;" fill="none"/>
<line x1="414.0" y1="174.0" x2="414.0" y2="294.0" style="stroke:#000000;stroke-width:1.5;fill-rule: evenodd;" fill="none"/>
<line x1="414.0" y1="294.0" x2="459.0" y2="354.0" style="stroke:#000000;stroke-width:1.5;fill-rule: evenodd;" fill="none"/>
<line x1="459.0" y1="354.0" x2="459.0" y2="399.0" style="stroke:#000000;stroke-width:1.5;fill-rule: evenodd;" fill="none"/>
<line x1="459.0" y1="399.0" x2="519.0" y2="399.0" style="stroke:#000000;stroke-width:1.5;fill-rule: evenodd;" fill="none"/>
<line x1="519.0" y1="399.0" x2="519.0" y2="354.0" style="stroke:#000000;stroke-width:1.5;fill-rule: evenodd;" fill="none"/>
<line x1="519.0" y1="354.0" x2="474.0" y2="354.0" style="stroke:#000000;stroke-width:1.5;fill-rule: evenodd;" fill="none"/>
<line x1="474.0" y1="354.0" x2="444.0" y2="309.0" style="stroke:#000000;stroke-width:1.5;fill-rule: evenodd;" fill="none"/>
<line x1="444.0" y1="309.0" x2="444.0" y2="174.0" style="stroke:#000000;stroke-width:1.5;fill-rule: evenodd;" fill="none"/>
<line x1="444.0" y1="174.0" x2="414.0" y2="174.0" style="stroke:#000000;stroke-width:1.5;fill-rule: evenodd;" fill="none"/>
<line x1="459.0" y1="204.0" x2="459.0" y2="294.0" style="stroke:#000000;stroke-width:1.5;fill-rule: evenodd;" fill="none"/>
<line x1="459.0" y1="294.0" x2="519.0" y2="294.0" style="stroke:#000000;stroke-width:1.5;fill-rule: evenodd;" fill="none"/>
<line x1="519.0" y1="294.0" x2="519.0" y2="204.0" style="stroke:#000000;stroke-width:1.5;fill-rule: evenodd;" fill="none"/>
<line x1="519.0" y1="204.0" x2="459.0" y2="204.0" style="stroke:#000000;stroke-width:1.5;fill-rule: evenodd;" fill="none"/>
<line x1="459.0" y1="69.0" x2="459.0" y2="99.0" style="stroke:#000000;stroke-width:1.5;fill-rule: evenodd;" fill="none"/>
<line x1="459.0" y1="99.0" x2="519.0" y2="99.0" style="stroke:#000000;stroke-width:1.5;fill-rule: evenodd;" fill="none"/>
<line x1="519.0" y1="99.0" x2="519.0" y2="69.0" style="stroke:#000000;stroke-width:1.5;fill-rule: evenodd;" fill="none"/>
<line x1="519.0" y1="69.0" x2="459.0" y2="69.0" style="stroke:#000000;stroke-width:1.5;fill-rule: evenodd;" fill="none"/>
<ellipse cx="474.0" cy="84.0" rx="9.0" ry="9.0" style="stroke:#000000;stroke-width:0.33" fill="#000000"/>
<ellipse cx="504.0" cy="84.0" rx="9.0" ry="9.0" style="stroke:#000000;stroke-width:0.33" fill="#000000"/>
<ellipse cx="399.0" cy="54.0" rx="9.0" ry="9.0" style="stroke:#000000;stroke-width:0.33" fill="#000000"/>
<ellipse cx="324.0" cy="54.0" rx="9.0" ry="9.0" style="stroke:#000000;stroke-width:0.33" fill="#000000"/>
<ellipse cx="144.0" cy="84.0" rx="9.0" ry="9.0" style="stroke:#000000;stroke-width:0.33" fill="#000000"/>
<ellipse cx="264.0" cy="144.0" rx="9.0" ry="9.0" style="stroke:#000000;stroke-width:0.33" fill="#000000"/>
<ellipse cx="234.0" cy="144.0" rx="9.0" ry="9.0" style="stroke:#000000;stroke-width:0.33" fill="#000000"/>
<ellipse cx="189.0" cy="114.0" rx="9.0" ry="9.0" style="stroke:#000000;stroke-width:0.33" fill="#000000"/>
<ellipse cx="144.0" cy="129.0" rx="9.0" ry="9.0" style="stroke:#000000;stroke-width:0.33" fill="#000000"/>
<ellipse cx="54.0" cy="69.0" rx="9.0" ry="9.0" style="stroke:#000000;stroke-width:0.33" fill="#000000"/>
<ellipse cx="54.0" cy="114.0" rx="9.0" ry="9.0" style="stroke:#000000;stroke-width:0.33" fill="#000000"/>
<ellipse cx="429.0" cy="189.0" rx="9.0" ry="9.0" style="stroke:#000000;stroke-width:0.33" fill="#000000"/>
<ellipse cx="474.0" cy="384.0" rx="9.0" ry="9.0" style="stroke:#000000;stroke-width:0.33" fill="#000000"/>
<ellipse cx="414.0" cy="384.0" rx="9.0" ry="9.0" style="stroke:#000000;stroke-width:0.33" fill="#000000"/>
<ellipse cx="414.0" cy="354.0" rx="9.0" ry="9.0" style="stroke:#000000;stroke-width:0.33" fill="#000000"/>
<ellipse cx="234.0" cy="249.0" rx="9.0" ry="9.0" style="stroke:#000000;stroke-width:0.33" fill="#000000"/>
<ellipse cx="309.0" cy="264.0" rx="9.0" ry="9.0" style="stroke:#000000;stroke-width:0.33" fill="#000000"/>
<ellipse cx="174.0" cy="249.0" rx="9.0" ry="9.0" style="stroke:#000000;stroke-width:0.33" fill="#000000"/>
<ellipse cx="204.0" cy="204.0" rx="9.0" ry="9.0" style="stroke:#000000;stroke-width:0.33" fill="#000000"/>
<ellipse cx="174.0" cy="204.0" rx="9.0" ry="9.0" style="stroke:#000000;stroke-width:0.33" fill="#000000"/>
<ellipse cx="294.0" cy="204.0" rx="9.0" ry="9.0" style="stroke:#000000;stroke-width:0.33" fill="#000000"/>
<ellipse cx="309.0" cy="204.0" rx="9.0" ry="9.0" style="stroke:#000000;stroke-width:0.33" fill="#000000"/>
<ellipse cx="489.0" cy="219.0" rx="9.0" ry="9.0" style="stroke:#000000;stroke-width:0.33" fill="#000000"/>
<ellipse cx="489.0" cy="249.0" rx="9.0" ry="9.0" style="stroke:#000000;stroke-width:0.33" fill="#000000"/>
<ellipse cx="489.0" cy="279.0" rx="9.0" ry="9.0" style="stroke:#000000;stroke-width:0.33" fill="#000000"/>
<ellipse cx="99.0" cy="234.0" rx="9.0" ry="9.0" style="stroke:#000000;stroke-width:0.33" fill="#000000"/>
<ellipse cx="84.0" cy="264.0" rx="9.0" ry="9.0" style="stroke:#000000;stroke-width:0.33" fill="#000000"/>
<ellipse cx="264.0" cy="339.0" rx="9.0" ry="9.0" style="stroke:#000000;stroke-width:0.33" fill="#000000"/>
<ellipse cx="144.0" cy="339.0" rx="9.0" ry="9.0" style="stroke:#000000;stroke-width:0.33" fill="#000000"/>
<line x1="366.0" y1="66.0" x2="366.0" y2="42.0" style="stroke:#000000;stroke-width:1.5;fill-rule: evenodd;" fill="none"/>
<line x1="357.0" y1="42.0" x2="357.0" y2="66.0" style="stroke:#000000;stroke-width:1.5;fill-rule: evenodd;" fill="none"/>
<line x1="357.0" y1="54.0" x2="339.0" y2="54.0" style="stroke:#000000;stroke-width:1.5;fill-rule: evenodd;" fill="none"/>
<line x1="366.0" y1="54.0" x2="384.0" y2="54.0" style="stroke:#000000;stroke-width:1.5;fill-rule: evenodd;" fill="none"/>
<circle cx="324.0" cy="54.0" r="3.0" style="stroke:#000000;stroke-width:0.33" fill="#000000"/>
<circle cx="399.0" cy="54.0" r="3.0" style="stroke:#000000;stroke-width:0.33" fill="#000000"/>
<line x1="324.0" y1="54.0" x2="339.0" y2="54.0" style="stroke:#000000;stroke-width:1.5;fill-rule: evenodd;" fill="none"/>
<line x1="399.0" y1="54.0" x2="384.0" y2="54.0" style="stroke:#000000;stroke-width:1.5;fill-rule: evenodd;" fill="none"/>
<g transform="translate(324.0,9.0) scale(1.2954545454545456,1) "><text x="0.0" y="12.0" font-family="Courier New" font-size="12.0" font-style="" font-weigth="" fill="#000000">C2  100uF</text>
</g>
<line x1="111.0" y1="66.0" x2="111.0" y2="42.0" style="stroke:#000000;stroke-width:1.5;fill-rule: evenodd;" fill="none"/>
<line x1="102.0" y1="42.0" x2="102.0" y2="66.0" style="stroke:#000000;stroke-width:1.5;fill-rule: evenodd;" fill="none"/>
<line x1="102.0" y1="54.0" x2="84.0" y2="54.0" style="stroke:#000000;stroke-width:1.5;fill-rule: evenodd;" fill="none"/>
<line x1="111.0" y1="54.0" x2="129.0" y2="54.0" style="stroke:#000000;stroke-width:1.5;fill-rule: evenodd;" fill="none"/>
<line x1="144.0" y1="84.0" x2="129.0" y2="54.0" style="stroke:#000000;stroke-width:1.5;fill-rule: evenodd;" fill="none"/>
<line x1="54.0" y1="69.0" x2="84.0" y2="54.0" style="stroke:#000000;stroke-width:1.5;fill-rule: evenodd;" fill="none"/>
<g transform="translate(39.0,24.0) scale(1.2954545454545456,1) "><text x="0.0" y="12.0" font-family="Courier New" font-size="12.0" font-style="" font-weigth="" fill="#000000">C1 CL21, 105J, 258V</text>
</g>
<line x1="84.0" y1="138.0" x2="87.0" y2="150.0" style="stroke:#000000;stroke-width:1.5;fill-rule: evenodd;" fill="none"/>
<line x1="87.0" y1="150.0" x2="90.0" y2="138.0" style="stroke:#000000;stroke-width:1.5;fill-rule: evenodd;" fill="none"/>
<line x1="90.0" y1="138.0" x2="93.0" y2="150.0" style="stroke:#000000;stroke-width:1.5;fill-rule: evenodd;" fill="none"/>
<line x1="93.0" y1="150.0" x2="96.0" y2="138.0" style="stroke:#000000;stroke-width:1.5;fill-rule: evenodd;" fill="none"/>
<line x1="96.0" y1="138.0" x2="99.0" y2="150.0" style="stroke:#000000;stroke-width:1.5;fill-rule: evenodd;" fill="none"/>
<line x1="69.0" y1="144.0" x2="81.0" y2="144.0" style="stroke:#000000;stroke-width:1.5;fill-rule: evenodd;" fill="none"/>
<line x1="84.0" y1="138.0" x2="81.0" y2="144.0" style="stroke:#000000;stroke-width:1.5;fill-rule: evenodd;" fill="none"/>
<line x1="114.0" y1="144.0" x2="102.0" y2="144.0" style="stroke:#000000;stroke-width:1.5;fill-rule: evenodd;" fill="none"/>
<line x1="99.0" y1="150.0" x2="102.0" y2="144.0" style="stroke:#000000;stroke-width:1.5;fill-rule: evenodd;" fill="none"/>
<line x1="54.0" y1="114.0" x2="69.0" y2="144.0" style="stroke:#000000;stroke-width:1.5;fill-rule: evenodd;" fill="none"/>
<line x1="144.0" y1="129.0" x2="114.0" y2="144.0" style="stroke:#000000;stroke-width:1.5;fill-rule: evenodd;" fill="none"/>
<g transform="translate(39.0,159.0) scale(1.2954545454545456,1) "><text x="0.0" y="12.0" font-family="Courier New" font-size="12.0" font-style="" font-weigth="" fill="#000000">R1 390kohm</text>
</g>
<line x1="339.0" y1="153.0" x2="342.0" y2="165.0" style="stroke:#000000;stroke-width:1.5;fill-rule: evenodd;" fill="none"/>
<line x1="342.0" y1="165.0" x2="345.0" y2="153.0" style="stroke:#000000;stroke-width:1.5;fill-rule: evenodd;" fill="none"/>
<line x1="345.0" y1="153.0" x2="348.0" y2="165.0" style="stroke:#000000;stroke-width:1.5;fill-rule: evenodd;" fill="none"/>
<line x1="348.0" y1="165.0" x2="351.0" y2="153.0" style="stroke:#000000;stroke-width:1.5;fill-rule: evenodd;" fill="none"/>
<line x1="351.0" y1="153.0" x2="354.0" y2="165.0" style="stroke:#000000;stroke-width:1.5;fill-rule: evenodd;" fill="none"/>
<line x1="324.0" y1="159.0" x2="336.0" y2="159.0" style="stroke:#000000;stroke-width:1.5;fill-rule: evenodd;" fill="none"/>
<line x1="339.0" y1="153.0" x2="336.0" y2="159.0" style="stroke:#000000;stroke-width:1.5;fill-rule: evenodd;" fill="none"/>
<line x1="369.0" y1="159.0" x2="357.0" y2="159.0" style="stroke:#000000;stroke-width:1.5;fill-rule: evenodd;" fill="none"/>
<line x1="354.0" y1="165.0" x2="357.0" y2="159.0" style="stroke:#000000;stroke-width:1.5;fill-rule: evenodd;" fill="none"/>
<line x1="264.0" y1="144.0" x2="324.0" y2="159.0" style="stroke:#000000;stroke-width:1.5;fill-rule: evenodd;" fill="none"/>
<line x1="369.0" y1="159.0" x2="429.0" y2="189.0" style="stroke:#000000;stroke-width:1.5;fill-rule: evenodd;" fill="none"/>
<g transform="translate(309.0,129.0) scale(1.2954545454545456,1) "><text x="0.0" y="12.0" font-family="Courier New" font-size="12.0" font-style="" font-weigth="" fill="#000000">R3 10ohm</text>
</g>
<line x1="225.0" y1="339.0" x2="234.0" y2="339.0" style="stroke:#000000;stroke-width:1.5;fill-rule: evenodd;" fill="none"/>
<line x1="189.0" y1="339.0" x2="195.0" y2="339.0" style="stroke:#000000;stroke-width:1.5;fill-rule: evenodd;" fill="none"/>
<ellipse cx="210.0" cy="339.0" rx="15.0" ry="15.0" style="stroke:#000000;stroke-width:1.5;fill-rule: evenodd;" fill="none"/>
<path d="M 210.0,330.0 C 213.0,333.0 213.0,336.0 210.0,339.0" style="stroke:#000000;stroke-width:1.5;fill-rule: evenodd;" fill="none"/>
<line x1="234.0" y1="333.0" x2="228.0" y2="333.0" style="stroke:#000000;stroke-width:1.5;fill-rule: evenodd;" fill="none"/>
<line x1="231.0" y1="330.0" x2="231.0" y2="336.0" style="stroke:#000000;stroke-width:1.5;fill-rule: evenodd;" fill="none"/>
<path d="M 210.0,339.0 C 207.0,342.0 207.0,345.0 210.0,348.0" style="stroke:#000000;stroke-width:1.5;fill-rule: evenodd;" fill="none"/>
<line x1="144.0" y1="339.0" x2="189.0" y2="339.0" style="stroke:#000000;stroke-width:1.5;fill-rule: evenodd;" fill="none"/>
<line x1="264.0" y1="339.0" x2="234.0" y2="339.0" style="stroke:#000000;stroke-width:1.5;fill-rule: evenodd;" fill="none"/>
<line x1="144.0" y1="264.0" x2="99.0" y2="264.0" style="stroke:#000000;stroke-width:1.5;fill-rule: evenodd;" fill="none"/>
<line x1="129.0" y1="258.0" x2="129.0" y2="270.0" style="stroke:#000000;stroke-width:1.5;fill-rule: evenodd;" fill="none"/>
<polygon points="117.0,258.0 117.0,270.0 129.0,264.0 " style="stroke:#000000;stroke-width:1.5;fill-rule: evenodd;" fill="#000000"/>
<line x1="99.0" y1="204.0" x2="144.0" y2="204.0" style="stroke:#000000;stroke-width:1.5;fill-rule: evenodd;" fill="none"/>
<line x1="114.0" y1="210.0" x2="114.0" y2="198.0" style="stroke:#000000;stroke-width:1.5;fill-rule: evenodd;" fill="none"/>
<polygon points="126.0,210.0 126.0,198.0 114.0,204.0 " style="stroke:#000000;stroke-width:1.5;fill-rule: evenodd;" fill="#000000"/>
<line x1="144.0" y1="204.0" x2="174.0" y2="204.0" style="stroke:#000000;stroke-width:1.5;fill-rule: evenodd;" fill="none"/>
<line x1="99.0" y1="219.0" x2="99.0" y2="204.0" style="stroke:#000000;stroke-width:1.5;fill-rule: evenodd;" fill="none"/>
<line x1="99.0" y1="204.0" x2="99.0" y2="234.0" style="stroke:#000000;stroke-width:1.5;fill-rule: evenodd;" fill="none"/>
<line x1="84.0" y1="264.0" x2="99.0" y2="264.0" style="stroke:#000000;stroke-width:1.5;fill-rule: evenodd;" fill="none"/>
<line x1="144.0" y1="264.0" x2="174.0" y2="249.0" style="stroke:#000000;stroke-width:1.5;fill-rule: evenodd;" fill="none"/>
<line x1="189.0" y1="129.0" x2="189.0" y2="174.0" style="stroke:#000000;stroke-width:1.5;fill-rule: evenodd;" fill="none"/>
<line x1="195.0" y1="144.0" x2="183.0" y2="144.0" style="stroke:#000000;stroke-width:1.5;fill-rule: evenodd;" fill="none"/>
<polygon points="195.0,156.0 183.0,156.0 189.0,144.0 " style="stroke:#000000;stroke-width:1.5;fill-rule: evenodd;" fill="#000000"/>
<line x1="189.0" y1="114.0" x2="189.0" y2="129.0" style="stroke:#000000;stroke-width:1.5;fill-rule: evenodd;" fill="none"/>
<line x1="189.0" y1="129.0" x2="189.0" y2="189.0" style="stroke:#000000;stroke-width:1.5;fill-rule: evenodd;" fill="none"/>
<line x1="189.0" y1="189.0" x2="204.0" y2="204.0" style="stroke:#000000;stroke-width:1.5;fill-rule: evenodd;" fill="none"/>
<line x1="234.0" y1="219.0" x2="234.0" y2="174.0" style="stroke:#000000;stroke-width:1.5;fill-rule: evenodd;" fill="none"/>
<line x1="240.0" y1="204.0" x2="228.0" y2="204.0" style="stroke:#000000;stroke-width:1.5;fill-rule: evenodd;" fill="none"/>
<polygon points="240.0,192.0 228.0,192.0 234.0,204.0 " style="stroke:#000000;stroke-width:1.5;fill-rule: evenodd;" fill="#000000"/>
<line x1="234.0" y1="144.0" x2="234.0" y2="249.0" style="stroke:#000000;stroke-width:1.5;fill-rule: evenodd;" fill="none"/>
<line x1="459.0" y1="384.0" x2="414.0" y2="384.0" style="stroke:#000000;stroke-width:1.5;fill-rule: evenodd;" fill="none"/>
<line x1="444.0" y1="378.0" x2="444.0" y2="390.0" style="stroke:#000000;stroke-width:1.5;fill-rule: evenodd;" fill="none"/>
<polygon points="432.0,378.0 432.0,390.0 444.0,384.0 " style="stroke:#000000;stroke-width:1.5;fill-rule: evenodd;" fill="#000000"/>
<line x1="489.0" y1="144.0" x2="489.0" y2="189.0" style="stroke:#000000;stroke-width:1.5;fill-rule: evenodd;" fill="none"/>
<line x1="495.0" y1="159.0" x2="483.0" y2="159.0" style="stroke:#000000;stroke-width:1.5;fill-rule: evenodd;" fill="none"/>
<polygon points="495.0,171.0 483.0,171.0 489.0,159.0 " style="stroke:#000000;stroke-width:1.5;fill-rule: evenodd;" fill="#000000"/>
<line x1="489.0" y1="219.0" x2="489.0" y2="114.0" style="stroke:#000000;stroke-width:1.5;fill-rule: evenodd;" fill="none"/>
<line x1="489.0" y1="114.0" x2="504.0" y2="84.0" style="stroke:#000000;stroke-width:1.5;fill-rule: evenodd;" fill="none"/>
<line x1="459.0" y1="384.0" x2="474.0" y2="384.0" style="stroke:#000000;stroke-width:1.5;fill-rule: evenodd;" fill="none"/>
<line x1="339.0" y1="258.0" x2="342.0" y2="270.0" style="stroke:#000000;stroke-width:1.5;fill-rule: evenodd;" fill="none"/>
<line x1="342.0" y1="270.0" x2="345.0" y2="258.0" style="stroke:#000000;stroke-width:1.5;fill-rule: evenodd;" fill="none"/>
<line x1="345.0" y1="258.0" x2="348.0" y2="270.0" style="stroke:#000000;stroke-width:1.5;fill-rule: evenodd;" fill="none"/>
<line x1="348.0" y1="270.0" x2="351.0" y2="258.0" style="stroke:#000000;stroke-width:1.5;fill-rule: evenodd;" fill="none"/>
<line x1="351.0" y1="258.0" x2="354.0" y2="270.0" style="stroke:#000000;stroke-width:1.5;fill-rule: evenodd;" fill="none"/>
<line x1="324.0" y1="264.0" x2="336.0" y2="264.0" style="stroke:#000000;stroke-width:1.5;fill-rule: evenodd;" fill="none"/>
<line x1="339.0" y1="258.0" x2="336.0" y2="264.0" style="stroke:#000000;stroke-width:1.5;fill-rule: evenodd;" fill="none"/>
<line x1="369.0" y1="264.0" x2="357.0" y2="264.0" style="stroke:#000000;stroke-width:1.5;fill-rule: evenodd;" fill="none"/>
<line x1="354.0" y1="270.0" x2="357.0" y2="264.0" style="stroke:#000000;stroke-width:1.5;fill-rule: evenodd;" fill="none"/>
<g transform="translate(354.0,279.0) scale(1.0363636363636364,1) "><text x="0.0" y="15.0" font-family="Courier New" font-size="15.0" font-style="" font-weigth="" fill="#000000">R2</text>
</g>
<g transform="translate(339.0,294.0) scale(1.0363636363636364,1) "><text x="0.0" y="15.0" font-family="Courier New" font-size="15.0" font-style="" font-weigth="" fill="#000000">1,2ohm</text>
</g>
<line x1="324.0" y1="264.0" x2="309.0" y2="264.0" style="stroke:#000000;stroke-width:1.5;fill-rule: evenodd;" fill="none"/>
<line x1="369.0" y1="264.0" x2="489.0" y2="279.0" style="stroke:#000000;stroke-width:1.5;fill-rule: evenodd;" fill="none"/>
<line x1="489.0" y1="249.0" x2="594.0" y2="249.0" style="stroke:#000000;stroke-width:1.5;fill-rule: evenodd;" fill="none"/>
<line x1="594.0" y1="249.0" x2="594.0" y2="159.0" style="stroke:#000000;stroke-width:1.5;fill-rule: evenodd;" fill="none"/>
<line x1="474.0" y1="84.0" x2="474.0" y2="39.0" style="stroke:#000000;stroke-width:1.5;fill-rule: evenodd;" fill="none"/>
<line x1="474.0" y1="39.0" x2="624.0" y2="39.0" style="stroke:#000000;stroke-width:1.5;fill-rule: evenodd;" fill="none"/>
<line x1="624.0" y1="39.0" x2="624.0" y2="159.0" style="stroke:#000000;stroke-width:1.5;fill-rule: evenodd;" fill="none"/>
<line x1="414.0" y1="354.0" x2="564.0" y2="339.0" style="stroke:#000000;stroke-width:1.5;fill-rule: evenodd;" fill="none"/>
<line x1="294.0" y1="204.0" x2="249.0" y2="294.0" style="stroke:#000000;stroke-width:1.5;fill-rule: evenodd;" fill="none"/>
<line x1="249.0" y1="294.0" x2="249.0" y2="309.0" style="stroke:#000000;stroke-width:1.5;fill-rule: evenodd;" fill="none"/>
<line x1="249.0" y1="309.0" x2="294.0" y2="309.0" style="stroke:#000000;stroke-width:1.5;fill-rule: evenodd;" fill="none"/>
<line x1="294.0" y1="309.0" x2="309.0" y2="324.0" style="stroke:#000000;stroke-width:1.5;fill-rule: evenodd;" fill="none"/>
<line x1="309.0" y1="324.0" x2="309.0" y2="444.0" style="stroke:#000000;stroke-width:1.5;fill-rule: evenodd;" fill="none"/>
<line x1="309.0" y1="444.0" x2="684.0" y2="444.0" style="stroke:#000000;stroke-width:1.5;fill-rule: evenodd;" fill="none"/>
<line x1="309.0" y1="204.0" x2="264.0" y2="294.0" style="stroke:#000000;stroke-width:1.5;fill-rule: evenodd;" fill="none"/>
<line x1="264.0" y1="294.0" x2="294.0" y2="294.0" style="stroke:#000000;stroke-width:1.5;fill-rule: evenodd;" fill="none"/>
<line x1="294.0" y1="294.0" x2="324.0" y2="324.0" style="stroke:#000000;stroke-width:1.5;fill-rule: evenodd;" fill="none"/>
<line x1="324.0" y1="324.0" x2="324.0" y2="429.0" style="stroke:#000000;stroke-width:1.5;fill-rule: evenodd;" fill="none"/>
<line x1="324.0" y1="429.0" x2="564.0" y2="429.0" style="stroke:#000000;stroke-width:1.5;fill-rule: evenodd;" fill="none"/>
<g transform="translate(429.0,399.0) scale(1.2954545454545456,1) "><text x="0.0" y="12.0" font-family="Courier New" font-size="12.0" font-style="" font-weigth="" fill="#000000">LED rosso</text>
</g>
<line x1="564.0" y1="399.0" x2="564.0" y2="381.0" style="stroke:#000000;stroke-width:1.5;fill-rule: evenodd;" fill="none"/>
<line x1="549.0" y1="372.0" x2="579.0" y2="372.0" style="stroke:#000000;stroke-width:1.5;fill-rule: evenodd;" fill="none"/>
<line x1="558.0" y1="381.0" x2="570.0" y2="381.0" style="stroke:#000000;stroke-width:1.5;fill-rule: evenodd;" fill="none"/>
<line x1="564.0" y1="372.0" x2="564.0" y2="354.0" style="stroke:#000000;stroke-width:1.5;fill-rule: evenodd;" fill="none"/>
<line x1="558.0" y1="363.0" x2="558.0" y2="369.0" style="stroke:#000000;stroke-width:1.5;fill-rule: evenodd;" fill="none"/>
<line x1="555.0" y1="366.0" x2="561.0" y2="366.0" style="stroke:#000000;stroke-width:1.5;fill-rule: evenodd;" fill="none"/>
<line x1="564.0" y1="429.0" x2="564.0" y2="399.0" style="stroke:#000000;stroke-width:1.5;fill-rule: evenodd;" fill="none"/>
<line x1="564.0" y1="354.0" x2="564.0" y2="339.0" style="stroke:#000000;stroke-width:1.5;fill-rule: evenodd;" fill="none"/>
<g transform="translate(504.0,324.0) scale(1.2954545454545456,1) "><text x="0.0" y="12.0" font-family="Courier New" font-size="12.0" font-style="" font-weigth="" fill="#000000">Pacco Batteria</text>
</g>
<g transform="translate(579.0,414.0) scale(1.2954545454545456,1) "><text x="0.0" y="12.0" font-family="Courier New" font-size="12.0" font-style="" font-weigth="" fill="#000000">Gruppo Led -</text>
</g>
<rect x="579.0" y="144.0" rx="0" ry="0" width="90.0" height="30.0" style="stroke:#000000;stroke-width:1.5;fill-rule: evenodd;" fill="none"/>
<ellipse cx="594.0" cy="159.0" rx="9.0" ry="9.0" style="stroke:#000000;stroke-width:0.33" fill="#000000"/>
<ellipse cx="624.0" cy="159.0" rx="9.0" ry="9.0" style="stroke:#000000;stroke-width:0.33" fill="#000000"/>
<ellipse cx="654.0" cy="159.0" rx="9.0" ry="9.0" style="stroke:#000000;stroke-width:0.33" fill="#000000"/>
<line x1="654.0" y1="159.0" x2="654.0" y2="249.0" style="stroke:#000000;stroke-width:1.5;fill-rule: evenodd;" fill="none"/>
<g transform="translate(579.0,264.0) scale(1.2954545454545456,1) "><text x="0.0" y="12.0" font-family="Courier New" font-size="12.0" font-style="" font-weigth="" fill="#000000">Gruppo Led +</text>
</g>
<g transform="translate(579.0,114.0) scale(1.2954545454545456,1) "><text x="0.0" y="12.0" font-family="Courier New" font-size="12.0" font-style="" font-weigth="" fill="#000000">Interruttore</text>
</g>
<g transform="translate(579.0,174.0) scale(1.2954545454545456,1) "><text x="0.0" y="12.0" font-family="Courier New" font-size="12.0" font-style="" font-weigth="" fill="#000000">3   2   1</text>
</g>
<circle cx="474.0" cy="84.0" r="4.5" style="stroke:white;stroke-width:0.33" fill="white"/>
<circle cx="504.0" cy="84.0" r="4.5" style="stroke:white;stroke-width:0.33" fill="white"/>
<circle cx="399.0" cy="54.0" r="4.5" style="stroke:white;stroke-width:0.33" fill="white"/>
<circle cx="324.0" cy="54.0" r="4.5" style="stroke:white;stroke-width:0.33" fill="white"/>
<circle cx="144.0" cy="84.0" r="4.5" style="stroke:white;stroke-width:0.33" fill="white"/>
<circle cx="264.0" cy="144.0" r="4.5" style="stroke:white;stroke-width:0.33" fill="white"/>
<circle cx="234.0" cy="144.0" r="4.5" style="stroke:white;stroke-width:0.33" fill="white"/>
<circle cx="189.0" cy="114.0" r="4.5" style="stroke:white;stroke-width:0.33" fill="white"/>
<circle cx="144.0" cy="129.0" r="4.5" style="stroke:white;stroke-width:0.33" fill="white"/>
<circle cx="54.0" cy="69.0" r="4.5" style="stroke:white;stroke-width:0.33" fill="white"/>
<circle cx="54.0" cy="114.0" r="4.5" style="stroke:white;stroke-width:0.33" fill="white"/>
<circle cx="429.0" cy="189.0" r="4.5" style="stroke:white;stroke-width:0.33" fill="white"/>
<circle cx="474.0" cy="384.0" r="4.5" style="stroke:white;stroke-width:0.33" fill="white"/>
<circle cx="414.0" cy="384.0" r="4.5" style="stroke:white;stroke-width:0.33" fill="white"/>
<circle cx="414.0" cy="354.0" r="4.5" style="stroke:white;stroke-width:0.33" fill="white"/>
<circle cx="234.0" cy="249.0" r="4.5" style="stroke:white;stroke-width:0.33" fill="white"/>
<circle cx="309.0" cy="264.0" r="4.5" style="stroke:white;stroke-width:0.33" fill="white"/>
<circle cx="174.0" cy="249.0" r="4.5" style="stroke:white;stroke-width:0.33" fill="white"/>
<circle cx="204.0" cy="204.0" r="4.5" style="stroke:white;stroke-width:0.33" fill="white"/>
<circle cx="174.0" cy="204.0" r="4.5" style="stroke:white;stroke-width:0.33" fill="white"/>
<circle cx="294.0" cy="204.0" r="4.5" style="stroke:white;stroke-width:0.33" fill="white"/>
<circle cx="309.0" cy="204.0" r="4.5" style="stroke:white;stroke-width:0.33" fill="white"/>
<circle cx="489.0" cy="219.0" r="4.5" style="stroke:white;stroke-width:0.33" fill="white"/>
<circle cx="489.0" cy="249.0" r="4.5" style="stroke:white;stroke-width:0.33" fill="white"/>
<circle cx="489.0" cy="279.0" r="4.5" style="stroke:white;stroke-width:0.33" fill="white"/>
<circle cx="99.0" cy="234.0" r="4.5" style="stroke:white;stroke-width:0.33" fill="white"/>
<circle cx="84.0" cy="264.0" r="4.5" style="stroke:white;stroke-width:0.33" fill="white"/>
<circle cx="264.0" cy="339.0" r="4.5" style="stroke:white;stroke-width:0.33" fill="white"/>
<circle cx="144.0" cy="339.0" r="4.5" style="stroke:white;stroke-width:0.33" fill="white"/>
<circle cx="594.0" cy="159.0" r="4.5" style="stroke:white;stroke-width:0.33" fill="white"/>
<circle cx="624.0" cy="159.0" r="4.5" style="stroke:white;stroke-width:0.33" fill="white"/>
<circle cx="654.0" cy="159.0" r="4.5" style="stroke:white;stroke-width:0.33" fill="white"/>
</svg>