<?xml version="1.0" encoding="UTF-8" standalone="no"?> 
<!DOCTYPE svg PUBLIC "-//W3C//Dtd SVG 1.1//EN" "http://www.w3.org/Graphics/SVG/1.1/Dtd/svg11.dtd">
<svg width="657.0" height="627.0" version="1.1" xmlns="http://www.w3.org/2000/svg" xmlns:xlink="http://www.w3.org/1999/xlink">
<!-- Created by FidoCadJ ver. 0.24.9 gamma, export filter by Davide Bucci -->
<line x1="174.0" y1="294.0" x2="174.0" y2="339.0" style="stroke:#000000;stroke-dashoffset: 0.0;stroke-width:1.5;stroke-linejoin:round;stroke-linecap:round;fill-rule: evenodd;" fill="none"/>
<line x1="168.0" y1="309.0" x2="180.0" y2="309.0" style="stroke:#000000;stroke-width:1.5;stroke-linejoin:round;stroke-linecap:round;fill-rule: evenodd;" fill="none"/>
<polygon points="168.0,321.0 180.0,321.0 174.0,309.0 " style="stroke:#000000;stroke-width:1.5;stroke-linejoin:round;stroke-linecap:round;fill-rule: evenodd;" fill="#000000"/>
<line x1="237.0" y1="312.0" x2="237.0" y2="336.0" style="stroke:#000000;stroke-width:1.5;stroke-linejoin:round;stroke-linecap:round;fill-rule: evenodd;" fill="none"/>
<line x1="246.0" y1="336.0" x2="246.0" y2="312.0" style="stroke:#000000;stroke-width:1.5;stroke-linejoin:round;stroke-linecap:round;fill-rule: evenodd;" fill="none"/>
<line x1="246.0" y1="324.0" x2="264.0" y2="324.0" style="stroke:#000000;stroke-width:1.5;stroke-linejoin:round;stroke-linecap:round;fill-rule: evenodd;" fill="none"/>
<line x1="237.0" y1="324.0" x2="219.0" y2="324.0" style="stroke:#000000;stroke-width:1.5;stroke-linejoin:round;stroke-linecap:round;fill-rule: evenodd;" fill="none"/>
<line x1="324.0" y1="495.0" x2="309.0" y2="504.0" style="stroke:#000000;stroke-width:1.5;stroke-linejoin:round;stroke-linecap:round;fill-rule: evenodd;" fill="none"/>
<line x1="354.0" y1="489.0" x2="324.0" y2="489.0" style="stroke:#000000;stroke-width:1.5;stroke-linejoin:round;stroke-linecap:round;fill-rule: evenodd;" fill="none"/>
<line x1="324.0" y1="474.0" x2="324.0" y2="504.0" style="stroke:#000000;stroke-width:1.5;stroke-linejoin:round;stroke-linecap:round;fill-rule: evenodd;" fill="none"/>
<line x1="309.0" y1="474.0" x2="309.0" y2="459.0" style="stroke:#000000;stroke-width:1.5;stroke-linejoin:round;stroke-linecap:round;fill-rule: evenodd;" fill="none"/>
<line x1="324.0" y1="483.0" x2="309.0" y2="474.0" style="stroke:#000000;stroke-width:1.5;stroke-linejoin:round;stroke-linecap:round;fill-rule: evenodd;" fill="none"/>
<line x1="309.0" y1="504.0" x2="309.0" y2="519.0" style="stroke:#000000;stroke-width:1.5;stroke-linejoin:round;stroke-linecap:round;fill-rule: evenodd;" fill="none"/>
<polygon points="315.0,504.0 312.0,498.0 309.0,504.0 " style="stroke:#000000;stroke-width:1.5;stroke-linejoin:round;stroke-linecap:round;fill-rule: evenodd;" fill="#000000"/>
<line x1="411.0" y1="519.0" x2="405.0" y2="519.0" style="stroke:#000000;stroke-width:1.5;stroke-linejoin:round;stroke-linecap:round;fill-rule: evenodd;" fill="none"/>
<rect x="387.0" y="516.0" rx="0" ry="0" width="18.0" height="6.0" style="stroke:#000000;stroke-width:1.5;stroke-linejoin:round;stroke-linecap:round;fill-rule: evenodd;" fill="none"/>
<line x1="387.0" y1="519.0" x2="381.0" y2="519.0" style="stroke:#000000;stroke-width:1.5;stroke-linejoin:round;stroke-linecap:round;fill-rule: evenodd;" fill="none"/>
<line x1="456.0" y1="489.0" x2="411.0" y2="489.0" style="stroke:#000000;stroke-width:1.5;stroke-linejoin:round;stroke-linecap:round;fill-rule: evenodd;" fill="none"/>
<polygon points="429.0,483.0 429.0,495.0 441.0,489.0 " style="stroke:#000000;stroke-width:1.5;stroke-linejoin:round;stroke-linecap:round;fill-rule: evenodd;" fill="#000000"/>
<line x1="441.0" y1="483.0" x2="441.0" y2="495.0" style="stroke:#000000;stroke-width:1.5;stroke-linejoin:round;stroke-linecap:round;fill-rule: evenodd;" fill="none"/>
<line x1="441.0" y1="483.0" x2="438.0" y2="480.0" style="stroke:#000000;stroke-width:1.5;stroke-linejoin:round;stroke-linecap:round;fill-rule: evenodd;" fill="none"/>
<line x1="441.0" y1="495.0" x2="444.0" y2="498.0" style="stroke:#000000;stroke-width:1.5;stroke-linejoin:round;stroke-linecap:round;fill-rule: evenodd;" fill="none"/>
<line x1="189.0" y1="474.0" x2="189.0" y2="480.0" style="stroke:#000000;stroke-width:1.5;stroke-linejoin:round;stroke-linecap:round;fill-rule: evenodd;" fill="none"/>
<rect x="186.0" y="480.0" rx="0" ry="0" width="6.0" height="18.0" style="stroke:#000000;stroke-width:1.5;stroke-linejoin:round;stroke-linecap:round;fill-rule: evenodd;" fill="none"/>
<line x1="189.0" y1="498.0" x2="189.0" y2="504.0" style="stroke:#000000;stroke-width:1.5;stroke-linejoin:round;stroke-linecap:round;fill-rule: evenodd;" fill="none"/>
<line x1="189.0" y1="534.0" x2="189.0" y2="540.0" style="stroke:#000000;stroke-width:1.5;stroke-linejoin:round;stroke-linecap:round;fill-rule: evenodd;" fill="none"/>
<rect x="186.0" y="540.0" rx="0" ry="0" width="6.0" height="18.0" style="stroke:#000000;stroke-width:1.5;stroke-linejoin:round;stroke-linecap:round;fill-rule: evenodd;" fill="none"/>
<line x1="189.0" y1="558.0" x2="189.0" y2="564.0" style="stroke:#000000;stroke-width:1.5;stroke-linejoin:round;stroke-linecap:round;fill-rule: evenodd;" fill="none"/>
<line x1="357.0" y1="339.0" x2="351.0" y2="339.0" style="stroke:#000000;stroke-width:1.5;stroke-linejoin:round;stroke-linecap:round;fill-rule: evenodd;" fill="none"/>
<rect x="333.0" y="336.0" rx="0" ry="0" width="18.0" height="6.0" style="stroke:#000000;stroke-width:1.5;stroke-linejoin:round;stroke-linecap:round;fill-rule: evenodd;" fill="none"/>
<line x1="333.0" y1="339.0" x2="327.0" y2="339.0" style="stroke:#000000;stroke-width:1.5;stroke-linejoin:round;stroke-linecap:round;fill-rule: evenodd;" fill="none"/>
<line x1="402.0" y1="339.0" x2="357.0" y2="339.0" style="stroke:#000000;stroke-width:1.5;stroke-linejoin:round;stroke-linecap:round;fill-rule: evenodd;" fill="none"/>
<polygon points="375.0,333.0 375.0,345.0 387.0,339.0 " style="stroke:#000000;stroke-width:1.5;stroke-linejoin:round;stroke-linecap:round;fill-rule: evenodd;" fill="#000000"/>
<line x1="387.0" y1="333.0" x2="387.0" y2="345.0" style="stroke:#000000;stroke-width:1.5;stroke-linejoin:round;stroke-linecap:round;fill-rule: evenodd;" fill="none"/>
<line x1="387.0" y1="333.0" x2="384.0" y2="330.0" style="stroke:#000000;stroke-width:1.5;stroke-linejoin:round;stroke-linecap:round;fill-rule: evenodd;" fill="none"/>
<line x1="387.0" y1="345.0" x2="390.0" y2="348.0" style="stroke:#000000;stroke-width:1.5;stroke-linejoin:round;stroke-linecap:round;fill-rule: evenodd;" fill="none"/>
<line x1="309.0" y1="315.0" x2="294.0" y2="324.0" style="stroke:#000000;stroke-width:1.5;stroke-linejoin:round;stroke-linecap:round;fill-rule: evenodd;" fill="none"/>
<line x1="339.0" y1="309.0" x2="309.0" y2="309.0" style="stroke:#000000;stroke-width:1.5;stroke-linejoin:round;stroke-linecap:round;fill-rule: evenodd;" fill="none"/>
<line x1="309.0" y1="294.0" x2="309.0" y2="324.0" style="stroke:#000000;stroke-width:1.5;stroke-linejoin:round;stroke-linecap:round;fill-rule: evenodd;" fill="none"/>
<line x1="294.0" y1="294.0" x2="294.0" y2="279.0" style="stroke:#000000;stroke-width:1.5;stroke-linejoin:round;stroke-linecap:round;fill-rule: evenodd;" fill="none"/>
<line x1="309.0" y1="303.0" x2="294.0" y2="294.0" style="stroke:#000000;stroke-width:1.5;stroke-linejoin:round;stroke-linecap:round;fill-rule: evenodd;" fill="none"/>
<line x1="294.0" y1="324.0" x2="294.0" y2="339.0" style="stroke:#000000;stroke-width:1.5;stroke-linejoin:round;stroke-linecap:round;fill-rule: evenodd;" fill="none"/>
<polygon points="300.0,324.0 297.0,318.0 294.0,324.0 " style="stroke:#000000;stroke-width:1.5;stroke-linejoin:round;stroke-linecap:round;fill-rule: evenodd;" fill="#000000"/>
<line x1="219.0" y1="384.0" x2="234.0" y2="384.0" style="stroke:#000000;stroke-width:1.5;stroke-linejoin:round;stroke-linecap:round;fill-rule: evenodd;" fill="none"/>
<line x1="219.0" y1="354.0" x2="234.0" y2="354.0" style="stroke:#000000;stroke-width:1.5;stroke-linejoin:round;stroke-linecap:round;fill-rule: evenodd;" fill="none"/>
<line x1="279.0" y1="369.0" x2="294.0" y2="369.0" style="stroke:#000000;stroke-width:1.5;stroke-linejoin:round;stroke-linecap:round;fill-rule: evenodd;" fill="none"/>
<line x1="237.0" y1="354.0" x2="243.0" y2="354.0" style="stroke:#000000;stroke-width:1.5;stroke-linejoin:round;stroke-linecap:round;fill-rule: evenodd;" fill="none"/>
<line x1="237.0" y1="384.0" x2="243.0" y2="384.0" style="stroke:#000000;stroke-width:1.5;stroke-linejoin:round;stroke-linecap:round;fill-rule: evenodd;" fill="none"/>
<line x1="240.0" y1="387.0" x2="240.0" y2="381.0" style="stroke:#000000;stroke-width:1.5;stroke-linejoin:round;stroke-linecap:round;fill-rule: evenodd;" fill="none"/>
<polygon points="234.0,399.0 234.0,339.0 279.0,369.0 " style="stroke:#000000;stroke-width:1.5;stroke-linejoin:round;stroke-linecap:round;fill-rule: evenodd;" fill="none"/>
<line x1="219.0" y1="534.0" x2="234.0" y2="534.0" style="stroke:#000000;stroke-width:1.5;stroke-linejoin:round;stroke-linecap:round;fill-rule: evenodd;" fill="none"/>
<line x1="219.0" y1="504.0" x2="234.0" y2="504.0" style="stroke:#000000;stroke-width:1.5;stroke-linejoin:round;stroke-linecap:round;fill-rule: evenodd;" fill="none"/>
<line x1="279.0" y1="519.0" x2="294.0" y2="519.0" style="stroke:#000000;stroke-width:1.5;stroke-linejoin:round;stroke-linecap:round;fill-rule: evenodd;" fill="none"/>
<line x1="237.0" y1="504.0" x2="243.0" y2="504.0" style="stroke:#000000;stroke-width:1.5;stroke-linejoin:round;stroke-linecap:round;fill-rule: evenodd;" fill="none"/>
<line x1="237.0" y1="534.0" x2="243.0" y2="534.0" style="stroke:#000000;stroke-width:1.5;stroke-linejoin:round;stroke-linecap:round;fill-rule: evenodd;" fill="none"/>
<line x1="240.0" y1="537.0" x2="240.0" y2="531.0" style="stroke:#000000;stroke-width:1.5;stroke-linejoin:round;stroke-linecap:round;fill-rule: evenodd;" fill="none"/>
<polygon points="234.0,549.0 234.0,489.0 279.0,519.0 " style="stroke:#000000;stroke-width:1.5;stroke-linejoin:round;stroke-linecap:round;fill-rule: evenodd;" fill="none"/>
<line x1="294.0" y1="579.0" x2="339.0" y2="579.0" style="stroke:#000000;stroke-width:1.5;stroke-linejoin:round;stroke-linecap:round;fill-rule: evenodd;" fill="none"/>
<line x1="309.0" y1="585.0" x2="309.0" y2="573.0" style="stroke:#000000;stroke-width:1.5;stroke-linejoin:round;stroke-linecap:round;fill-rule: evenodd;" fill="none"/>
<polygon points="321.0,585.0 321.0,573.0 309.0,579.0 " style="stroke:#000000;stroke-width:1.5;stroke-linejoin:round;stroke-linecap:round;fill-rule: evenodd;" fill="#000000"/>
<line x1="264.0" y1="459.0" x2="219.0" y2="459.0" style="stroke:#000000;stroke-width:1.5;stroke-linejoin:round;stroke-linecap:round;fill-rule: evenodd;" fill="none"/>
<line x1="249.0" y1="453.0" x2="249.0" y2="465.0" style="stroke:#000000;stroke-width:1.5;stroke-linejoin:round;stroke-linecap:round;fill-rule: evenodd;" fill="none"/>
<polygon points="237.0,453.0 237.0,465.0 249.0,459.0 " style="stroke:#000000;stroke-width:1.5;stroke-linejoin:round;stroke-linecap:round;fill-rule: evenodd;" fill="#000000"/>
<line x1="249.0" y1="429.0" x2="294.0" y2="429.0" style="stroke:#000000;stroke-width:1.5;stroke-linejoin:round;stroke-linecap:round;fill-rule: evenodd;" fill="none"/>
<polygon points="276.0,435.0 276.0,423.0 264.0,429.0 " style="stroke:#000000;stroke-width:1.5;stroke-linejoin:round;stroke-linecap:round;fill-rule: evenodd;" fill="#000000"/>
<line x1="264.0" y1="435.0" x2="264.0" y2="423.0" style="stroke:#000000;stroke-width:1.5;stroke-linejoin:round;stroke-linecap:round;fill-rule: evenodd;" fill="none"/>
<line x1="264.0" y1="435.0" x2="267.0" y2="438.0" style="stroke:#000000;stroke-width:1.5;stroke-linejoin:round;stroke-linecap:round;fill-rule: evenodd;" fill="none"/>
<line x1="264.0" y1="423.0" x2="261.0" y2="420.0" style="stroke:#000000;stroke-width:1.5;stroke-linejoin:round;stroke-linecap:round;fill-rule: evenodd;" fill="none"/>
<line x1="264.0" y1="429.0" x2="219.0" y2="429.0" style="stroke:#000000;stroke-width:1.5;stroke-linejoin:round;stroke-linecap:round;fill-rule: evenodd;" fill="none"/>
<line x1="249.0" y1="423.0" x2="249.0" y2="435.0" style="stroke:#000000;stroke-width:1.5;stroke-linejoin:round;stroke-linecap:round;fill-rule: evenodd;" fill="none"/>
<polygon points="237.0,423.0 237.0,435.0 249.0,429.0 " style="stroke:#000000;stroke-width:1.5;stroke-linejoin:round;stroke-linecap:round;fill-rule: evenodd;" fill="#000000"/>
<line x1="219.0" y1="399.0" x2="219.0" y2="405.0" style="stroke:#000000;stroke-width:1.5;stroke-linejoin:round;stroke-linecap:round;fill-rule: evenodd;" fill="none"/>
<rect x="216.0" y="405.0" rx="0" ry="0" width="6.0" height="18.0" style="stroke:#000000;stroke-width:1.5;stroke-linejoin:round;stroke-linecap:round;fill-rule: evenodd;" fill="none"/>
<line x1="219.0" y1="423.0" x2="219.0" y2="429.0" style="stroke:#000000;stroke-width:1.5;stroke-linejoin:round;stroke-linecap:round;fill-rule: evenodd;" fill="none"/>
<line x1="204.0" y1="444.0" x2="204.0" y2="450.0" style="stroke:#000000;stroke-width:1.5;stroke-linejoin:round;stroke-linecap:round;fill-rule: evenodd;" fill="none"/>
<rect x="201.0" y="450.0" rx="0" ry="0" width="6.0" height="18.0" style="stroke:#000000;stroke-width:1.5;stroke-linejoin:round;stroke-linecap:round;fill-rule: evenodd;" fill="none"/>
<line x1="204.0" y1="468.0" x2="204.0" y2="474.0" style="stroke:#000000;stroke-width:1.5;stroke-linejoin:round;stroke-linecap:round;fill-rule: evenodd;" fill="none"/>
<line x1="276.0" y1="501.0" x2="276.0" y2="477.0" style="stroke:#000000;stroke-width:1.5;stroke-linejoin:round;stroke-linecap:round;fill-rule: evenodd;" fill="none"/>
<line x1="267.0" y1="477.0" x2="267.0" y2="501.0" style="stroke:#000000;stroke-width:1.5;stroke-linejoin:round;stroke-linecap:round;fill-rule: evenodd;" fill="none"/>
<line x1="267.0" y1="489.0" x2="249.0" y2="489.0" style="stroke:#000000;stroke-width:1.5;stroke-linejoin:round;stroke-linecap:round;fill-rule: evenodd;" fill="none"/>
<line x1="276.0" y1="489.0" x2="294.0" y2="489.0" style="stroke:#000000;stroke-width:1.5;stroke-linejoin:round;stroke-linecap:round;fill-rule: evenodd;" fill="none"/>
<polygon points="186.0,519.0 180.0,522.0 180.0,516.0 " style="stroke:#000000;stroke-width:1.5;stroke-linejoin:round;stroke-linecap:round;fill-rule: evenodd;" fill="#000000"/>
<line x1="186.0" y1="519.0" x2="171.0" y2="519.0" style="stroke:#000000;stroke-width:1.5;stroke-linejoin:round;stroke-linecap:round;fill-rule: evenodd;" fill="none"/>
<line x1="174.0" y1="519.0" x2="18.0" y2="519.0" style="stroke:#000000;stroke-width:1.5;stroke-linejoin:round;stroke-linecap:round;fill-rule: evenodd;" fill="none"/>
<line x1="243.0" y1="249.0" x2="75.0" y2="249.0" style="stroke:#000000;stroke-width:1.5;stroke-linejoin:round;stroke-linecap:round;fill-rule: evenodd;" fill="none"/>
<line x1="264.0" y1="474.0" x2="219.0" y2="474.0" style="stroke:#000000;stroke-width:1.5;stroke-linejoin:round;stroke-linecap:round;fill-rule: evenodd;" fill="none"/>
<line x1="249.0" y1="468.0" x2="249.0" y2="480.0" style="stroke:#000000;stroke-width:1.5;stroke-linejoin:round;stroke-linecap:round;fill-rule: evenodd;" fill="none"/>
<polygon points="237.0,468.0 237.0,480.0 249.0,474.0 " style="stroke:#000000;stroke-width:1.5;stroke-linejoin:round;stroke-linecap:round;fill-rule: evenodd;" fill="#000000"/>
<line x1="318.0" y1="309.0" x2="318.0" y2="321.0" style="stroke:#000000;stroke-width:1.5;stroke-linejoin:round;stroke-linecap:round;fill-rule: evenodd;" fill="none"/>
<line x1="318.0" y1="327.0" x2="318.0" y2="339.0" style="stroke:#000000;stroke-width:1.5;stroke-linejoin:round;stroke-linecap:round;fill-rule: evenodd;" fill="none"/>
<line x1="324.0" y1="321.0" x2="312.0" y2="321.0" style="stroke:#000000;stroke-width:1.5;stroke-linejoin:round;stroke-linecap:round;fill-rule: evenodd;" fill="none"/>
<line x1="324.0" y1="327.0" x2="312.0" y2="327.0" style="stroke:#000000;stroke-width:1.5;stroke-linejoin:round;stroke-linecap:round;fill-rule: evenodd;" fill="none"/>
<line x1="354.0" y1="489.0" x2="354.0" y2="501.0" style="stroke:#000000;stroke-width:1.5;stroke-linejoin:round;stroke-linecap:round;fill-rule: evenodd;" fill="none"/>
<line x1="354.0" y1="507.0" x2="354.0" y2="519.0" style="stroke:#000000;stroke-width:1.5;stroke-linejoin:round;stroke-linecap:round;fill-rule: evenodd;" fill="none"/>
<line x1="360.0" y1="501.0" x2="348.0" y2="501.0" style="stroke:#000000;stroke-width:1.5;stroke-linejoin:round;stroke-linecap:round;fill-rule: evenodd;" fill="none"/>
<line x1="360.0" y1="507.0" x2="348.0" y2="507.0" style="stroke:#000000;stroke-width:1.5;stroke-linejoin:round;stroke-linecap:round;fill-rule: evenodd;" fill="none"/>
<polygon points="258.0,249.0 252.0,252.0 252.0,246.0 " style="stroke:#000000;stroke-width:1.5;stroke-linejoin:round;stroke-linecap:round;fill-rule: evenodd;" fill="#000000"/>
<line x1="258.0" y1="249.0" x2="243.0" y2="249.0" style="stroke:#000000;stroke-width:1.5;stroke-linejoin:round;stroke-linecap:round;fill-rule: evenodd;" fill="none"/>
<ellipse cx="415.5" cy="499.5" rx="40.5" ry="43.5" style="stroke:#ff0000;stroke-width:1.5;stroke-linejoin:round;stroke-linecap:round;fill-rule: evenodd;" fill="none"/>
<polygon points="414.0,495.0 421.49,500.82 416.5,504.15" style="stroke:#ff0000;stroke-width:1.5;stroke-linejoin:round;stroke-linecap:round;fill-rule: evenodd;" fill="#ff0000"/>
<line x1="418.99" y1="502.49" x2="432.0" y2="522.0" style="stroke:#ff0000;stroke-width:1.5;stroke-linejoin:round;stroke-linecap:round;fill-rule: evenodd;" fill="none"/>
<g transform="translate(387.0,537.0) scale(1.0,1.0)"><text x="0.0" y="14.0" font-family="Courier New, monospace" font-size="15.93" font-style="" font-weight="bold" xml:space="preserve" fill="#b59b0c">10k</text>
</g>
<g transform="translate(384.0,522.0) scale(1.0,1.0)"><text x="0.0" y="14.0" font-family="Courier New, monospace" font-size="15.93" font-style="" font-weight="bold" xml:space="preserve" fill="#b59b0c">R106</text>
</g>
<g transform="translate(411.0,465.0) scale(1.0,1.0)"><text x="0.0" y="14.0" font-family="Courier New, monospace" font-size="15.93" font-style="" font-weight="bold" xml:space="preserve" fill="#b59b0c">Dz102</text>
</g>
<g transform="translate(315.0,462.0) scale(1.0,1.0)"><text x="0.0" y="14.0" font-family="Courier New, monospace" font-size="15.93" font-style="" font-weight="bold" xml:space="preserve" fill="#b59b0c">TR101</text>
</g>
<g transform="translate(276.0,489.0) scale(1.0,1.0)"><text x="0.0" y="14.0" font-family="Courier New, monospace" font-size="15.93" font-style="" font-weight="bold" xml:space="preserve" fill="#b59b0c">56pF</text>
</g>
<g transform="translate(279.0,474.0) scale(1.0,1.0)"><text x="0.0" y="14.0" font-family="Courier New, monospace" font-size="15.93" font-style="" font-weight="bold" xml:space="preserve" fill="#b59b0c">C100</text>
</g>
<g transform="translate(534.0,345.0) scale(1.0,1.0)"><text x="0.0" y="14.0" font-family="Courier New, monospace" font-size="15.93" font-style="" font-weight="bold" xml:space="preserve" fill="#b59b0c">D103</text>
</g>
<g transform="translate(303.0,585.0) scale(1.0,1.0)"><text x="0.0" y="14.0" font-family="Courier New, monospace" font-size="15.93" font-style="" font-weight="bold" xml:space="preserve" fill="#b59b0c">D107</text>
</g>
<g transform="translate(252.0,441.0) scale(1.0,1.0)"><text x="0.0" y="14.0" font-family="Courier New, monospace" font-size="15.93" font-style="" font-weight="bold" xml:space="preserve" fill="#b59b0c">D102</text>
</g>
<g transform="translate(213.0,435.0) scale(1.0,1.0)"><text x="0.0" y="14.0" font-family="Courier New, monospace" font-size="15.93" font-style="" font-weight="bold" xml:space="preserve" fill="#b59b0c">D101</text>
</g>
<g transform="translate(162.0,459.0) scale(1.0,1.0)"><text x="0.0" y="14.0" font-family="Courier New, monospace" font-size="15.93" font-style="" font-weight="bold" xml:space="preserve" fill="#b59b0c">4k7</text>
</g>
<g transform="translate(159.0,444.0) scale(1.0,1.0)"><text x="0.0" y="14.0" font-family="Courier New, monospace" font-size="15.93" font-style="" font-weight="bold" xml:space="preserve" fill="#b59b0c">R115</text>
</g>
<g transform="translate(261.0,405.0) scale(1.0,1.0)"><text x="0.0" y="14.0" font-family="Courier New, monospace" font-size="15.93" font-style="" font-weight="bold" xml:space="preserve" fill="#b59b0c">Dz100</text>
</g>
<g transform="translate(369.0,345.0) scale(1.0,1.0)"><text x="0.0" y="14.0" font-family="Courier New, monospace" font-size="15.93" font-style="" font-weight="bold" xml:space="preserve" fill="#b59b0c">Dz101</text>
</g>
<g transform="translate(327.0,354.0) scale(1.0,1.0)"><text x="0.0" y="14.0" font-family="Courier New, monospace" font-size="15.93" font-style="" font-weight="bold" xml:space="preserve" fill="#b59b0c">10k</text>
</g>
<g transform="translate(321.0,342.0) scale(1.0,1.0)"><text x="0.0" y="14.0" font-family="Courier New, monospace" font-size="15.93" font-style="" font-weight="bold" xml:space="preserve" fill="#b59b0c">R105</text>
</g>
<g transform="translate(300.0,279.0) scale(1.0,1.0)"><text x="0.0" y="14.0" font-family="Courier New, monospace" font-size="15.93" font-style="" font-weight="bold" xml:space="preserve" fill="#b59b0c">TR100</text>
</g>
<g transform="translate(177.0,402.0) scale(1.0,1.0)"><text x="0.0" y="14.0" font-family="Courier New, monospace" font-size="15.93" font-style="" font-weight="bold" xml:space="preserve" fill="#b59b0c">100k</text>
</g>
<g transform="translate(180.0,387.0) scale(1.0,1.0)"><text x="0.0" y="14.0" font-family="Courier New, monospace" font-size="15.93" font-style="" font-weight="bold" xml:space="preserve" fill="#b59b0c">R104</text>
</g>
<line x1="279.0" y1="474.0" x2="279.0" y2="459.0" style="stroke:#b59b0c;stroke-width:1.5;stroke-linejoin:round;stroke-linecap:round;fill-rule: evenodd;" fill="none"/>
<line x1="264.0" y1="324.0" x2="279.0" y2="324.0" style="stroke:#b59b0c;stroke-width:1.5;stroke-linejoin:round;stroke-linecap:round;fill-rule: evenodd;" fill="none"/>
<line x1="219.0" y1="324.0" x2="219.0" y2="354.0" style="stroke:#b59b0c;stroke-width:1.5;stroke-linejoin:round;stroke-linecap:round;fill-rule: evenodd;" fill="none"/>
<g transform="translate(213.0,294.0) scale(1.0,1.0)"><text x="0.0" y="14.0" font-family="Courier New, monospace" font-size="15.93" font-style="" font-weight="bold" xml:space="preserve" fill="#b59b0c">100pF</text>
</g>
<g transform="translate(213.0,282.0) scale(1.0,1.0)"><text x="0.0" y="14.0" font-family="Courier New, monospace" font-size="15.93" font-style="" font-weight="bold" xml:space="preserve" fill="#b59b0c">C104</text>
</g>
<circle cx="279.0" cy="459.0" r="3.0" style="stroke:#b59b0c;stroke-width:0.33" fill="#b59b0c"/>
<circle cx="174.0" cy="279.0" r="3.0" style="stroke:#b59b0c;stroke-width:0.33" fill="#b59b0c"/>
<line x1="264.0" y1="474.0" x2="279.0" y2="474.0" style="stroke:#b59b0c;stroke-width:1.5;stroke-linejoin:round;stroke-linecap:round;fill-rule: evenodd;" fill="none"/>
<line x1="159.0" y1="279.0" x2="294.0" y2="279.0" style="stroke:#b59b0c;stroke-width:1.5;stroke-linejoin:round;stroke-linecap:round;fill-rule: evenodd;" fill="none"/>
<line x1="648.0" y1="579.0" x2="444.0" y2="579.0" style="stroke:#b59b0c;stroke-width:1.5;stroke-linejoin:round;stroke-linecap:round;fill-rule: evenodd;" fill="none"/>
<circle cx="219.0" cy="489.0" r="3.0" style="stroke:#b59b0c;stroke-width:0.33" fill="#b59b0c"/>
<line x1="219.0" y1="474.0" x2="219.0" y2="489.0" style="stroke:#b59b0c;stroke-width:1.5;stroke-linejoin:round;stroke-linecap:round;fill-rule: evenodd;" fill="none"/>
<line x1="279.0" y1="339.0" x2="294.0" y2="339.0" style="stroke:#b59b0c;stroke-width:1.5;stroke-linejoin:round;stroke-linecap:round;fill-rule: evenodd;" fill="none"/>
<circle cx="189.0" cy="219.0" r="3.0" style="stroke:#b59b0c;stroke-width:0.33" fill="#b59b0c"/>
<line x1="249.0" y1="489.0" x2="204.0" y2="489.0" style="stroke:#b59b0c;stroke-width:1.5;stroke-linejoin:round;stroke-linecap:round;fill-rule: evenodd;" fill="none"/>
<circle cx="309.0" cy="519.0" r="3.0" style="stroke:#b59b0c;stroke-width:0.33" fill="#b59b0c"/>
<line x1="294.0" y1="369.0" x2="294.0" y2="429.0" style="stroke:#b59b0c;stroke-width:1.5;stroke-linejoin:round;stroke-linecap:round;fill-rule: evenodd;" fill="none"/>
<line x1="294.0" y1="279.0" x2="294.0" y2="54.0" style="stroke:#b59b0c;stroke-width:1.5;stroke-linejoin:round;stroke-linecap:round;fill-rule: evenodd;" fill="none"/>
<line x1="357.0" y1="309.0" x2="357.0" y2="339.0" style="stroke:#b59b0c;stroke-width:1.5;stroke-linejoin:round;stroke-linecap:round;fill-rule: evenodd;" fill="none"/>
<circle cx="189.0" cy="564.0" r="3.0" style="stroke:#b59b0c;stroke-width:0.33" fill="#b59b0c"/>
<line x1="189.0" y1="474.0" x2="189.0" y2="414.0" style="stroke:#b59b0c;stroke-width:1.5;stroke-linejoin:round;stroke-linecap:round;fill-rule: evenodd;" fill="none"/>
<g transform="translate(156.0,549.0) scale(1.0,1.0)"><text x="0.0" y="14.0" font-family="Courier New, monospace" font-size="15.93" font-style="" font-weight="bold" xml:space="preserve" fill="#b59b0c">1k2</text>
</g>
<g transform="translate(156.0,486.0) scale(1.0,1.0)"><text x="0.0" y="14.0" font-family="Courier New, monospace" font-size="15.93" font-style="" font-weight="bold" xml:space="preserve" fill="#b59b0c">15k</text>
</g>
<line x1="309.0" y1="519.0" x2="381.0" y2="519.0" style="stroke:#b59b0c;stroke-width:1.5;stroke-linejoin:round;stroke-linecap:round;fill-rule: evenodd;" fill="none"/>
<circle cx="294.0" cy="519.0" r="3.0" style="stroke:#b59b0c;stroke-width:0.33" fill="#b59b0c"/>
<line x1="411.0" y1="519.0" x2="411.0" y2="489.0" style="stroke:#b59b0c;stroke-width:1.5;stroke-linejoin:round;stroke-linecap:round;fill-rule: evenodd;" fill="none"/>
<line x1="264.0" y1="249.0" x2="264.0" y2="9.0" style="stroke:#b59b0c;stroke-width:1.5;stroke-linejoin:round;stroke-linecap:round;fill-rule: evenodd;" fill="none"/>
<line x1="294.0" y1="429.0" x2="339.0" y2="429.0" style="stroke:#b59b0c;stroke-width:1.5;stroke-linejoin:round;stroke-linecap:round;fill-rule: evenodd;" fill="none"/>
<circle cx="294.0" cy="279.0" r="3.0" style="stroke:#b59b0c;stroke-width:0.33" fill="#b59b0c"/>
<line x1="294.0" y1="339.0" x2="294.0" y2="369.0" style="stroke:#b59b0c;stroke-width:1.5;stroke-linejoin:round;stroke-linecap:round;fill-rule: evenodd;" fill="none"/>
<line x1="9.0" y1="459.0" x2="219.0" y2="459.0" style="stroke:#b59b0c;stroke-width:1.5;stroke-linejoin:round;stroke-linecap:round;fill-rule: evenodd;" fill="none"/>
<line x1="534.0" y1="429.0" x2="339.0" y2="429.0" style="stroke:#b59b0c;stroke-width:1.5;stroke-linejoin:round;stroke-linecap:round;fill-rule: evenodd;" fill="none"/>
<line x1="294.0" y1="579.0" x2="294.0" y2="519.0" style="stroke:#b59b0c;stroke-width:1.5;stroke-linejoin:round;stroke-linecap:round;fill-rule: evenodd;" fill="none"/>
<g transform="translate(249.0,537.0) scale(1.0,1.0)"><text x="0.0" y="14.0" font-family="Courier New, monospace" font-size="15.93" font-style="" font-weight="bold" xml:space="preserve" fill="#b59b0c">IC3B</text>
</g>
<line x1="399.0" y1="339.0" x2="534.0" y2="339.0" style="stroke:#b59b0c;stroke-width:1.5;stroke-linejoin:round;stroke-linecap:round;fill-rule: evenodd;" fill="none"/>
<line x1="309.0" y1="459.0" x2="414.0" y2="459.0" style="stroke:#b59b0c;stroke-width:1.5;stroke-linejoin:round;stroke-linecap:round;fill-rule: evenodd;" fill="none"/>
<circle cx="264.0" cy="249.0" r="3.0" style="stroke:#b59b0c;stroke-width:0.33" fill="#b59b0c"/>
<line x1="459.0" y1="459.0" x2="534.0" y2="459.0" style="stroke:#b59b0c;stroke-width:1.5;stroke-linejoin:round;stroke-linecap:round;fill-rule: evenodd;" fill="none"/>
<line x1="294.0" y1="489.0" x2="294.0" y2="519.0" style="stroke:#b59b0c;stroke-width:1.5;stroke-linejoin:round;stroke-linecap:round;fill-rule: evenodd;" fill="none"/>
<line x1="264.0" y1="249.0" x2="624.0" y2="249.0" style="stroke:#b59b0c;stroke-width:1.5;stroke-linejoin:round;stroke-linecap:round;fill-rule: evenodd;" fill="none"/>
<line x1="204.0" y1="504.0" x2="219.0" y2="504.0" style="stroke:#b59b0c;stroke-width:1.5;stroke-linejoin:round;stroke-linecap:round;fill-rule: evenodd;" fill="none"/>
<line x1="414.0" y1="459.0" x2="414.0" y2="54.0" style="stroke:#b59b0c;stroke-width:1.5;stroke-linejoin:round;stroke-linecap:round;fill-rule: evenodd;" fill="none"/>
<circle cx="459.0" cy="459.0" r="3.0" style="stroke:#b59b0c;stroke-width:0.33" fill="#b59b0c"/>
<line x1="294.0" y1="339.0" x2="327.0" y2="339.0" style="stroke:#b59b0c;stroke-width:1.5;stroke-linejoin:round;stroke-linecap:round;fill-rule: evenodd;" fill="none"/>
<circle cx="357.0" cy="339.0" r="3.0" style="stroke:#b59b0c;stroke-width:0.33" fill="#b59b0c"/>
<line x1="354.0" y1="489.0" x2="411.0" y2="489.0" style="stroke:#b59b0c;stroke-width:1.5;stroke-linejoin:round;stroke-linecap:round;fill-rule: evenodd;" fill="none"/>
<g transform="translate(237.0,510.0) scale(1.0,1.0)"><text x="0.0" y="14.0" font-family="Courier New, monospace" font-size="15.93" font-style="" font-weight="bold" xml:space="preserve" fill="#b59b0c">I/2</text>
</g>
<line x1="219.0" y1="534.0" x2="189.0" y2="534.0" style="stroke:#b59b0c;stroke-width:1.5;stroke-linejoin:round;stroke-linecap:round;fill-rule: evenodd;" fill="none"/>
<line x1="264.0" y1="354.0" x2="264.0" y2="249.0" style="stroke:#b59b0c;stroke-width:1.5;stroke-linejoin:round;stroke-linecap:round;fill-rule: evenodd;" fill="none"/>
<line x1="444.0" y1="579.0" x2="339.0" y2="579.0" style="stroke:#b59b0c;stroke-width:1.5;stroke-linejoin:round;stroke-linecap:round;fill-rule: evenodd;" fill="none"/>
<line x1="447.0" y1="489.0" x2="459.0" y2="489.0" style="stroke:#b59b0c;stroke-width:1.5;stroke-linejoin:round;stroke-linecap:round;fill-rule: evenodd;" fill="none"/>
<circle cx="219.0" cy="384.0" r="3.0" style="stroke:#b59b0c;stroke-width:0.33" fill="#b59b0c"/>
<circle cx="219.0" cy="384.0" r="3.0" style="stroke:#b59b0c;stroke-width:0.33" fill="#b59b0c"/>
<circle cx="294.0" cy="429.0" r="3.0" style="stroke:#b59b0c;stroke-width:0.33" fill="#b59b0c"/>
<g transform="translate(324.0,318.0) scale(1.0,1.0)"><text x="0.0" y="14.0" font-family="Courier New, monospace" font-size="15.93" font-style="" font-weight="bold" xml:space="preserve" fill="#b59b0c">0,1uF</text>
</g>
<circle cx="318.0" cy="339.0" r="3.0" style="stroke:#b59b0c;stroke-width:0.33" fill="#b59b0c"/>
<circle cx="399.0" cy="339.0" r="3.0" style="stroke:#b59b0c;stroke-width:0.33" fill="#b59b0c"/>
<line x1="264.0" y1="531.0" x2="264.0" y2="618.0" style="stroke:#b59b0c;stroke-width:1.5;stroke-linejoin:round;stroke-linecap:round;fill-rule: evenodd;" fill="none"/>
<line x1="189.0" y1="414.0" x2="189.0" y2="219.0" style="stroke:#b59b0c;stroke-width:1.5;stroke-linejoin:round;stroke-linecap:round;fill-rule: evenodd;" fill="none"/>
<line x1="459.0" y1="159.0" x2="459.0" y2="489.0" style="stroke:#b59b0c;stroke-width:1.5;stroke-linejoin:round;stroke-linecap:round;fill-rule: evenodd;" fill="none"/>
<circle cx="354.0" cy="489.0" r="3.0" style="stroke:#b59b0c;stroke-width:0.33" fill="#b59b0c"/>
<line x1="264.0" y1="459.0" x2="309.0" y2="459.0" style="stroke:#b59b0c;stroke-width:1.5;stroke-linejoin:round;stroke-linecap:round;fill-rule: evenodd;" fill="none"/>
<line x1="519.0" y1="402.0" x2="519.0" y2="429.0" style="stroke:#b59b0c;stroke-width:1.5;stroke-linejoin:round;stroke-linecap:round;fill-rule: evenodd;" fill="none"/>
<g transform="translate(243.0,360.0) scale(1.0,1.0)"><text x="0.0" y="14.0" font-family="Courier New, monospace" font-size="15.93" font-style="" font-weight="bold" xml:space="preserve" fill="#b59b0c">V/2</text>
</g>
<line x1="219.0" y1="384.0" x2="114.0" y2="384.0" style="stroke:#b59b0c;stroke-width:1.5;stroke-linejoin:round;stroke-linecap:round;fill-rule: evenodd;" fill="none"/>
<line x1="204.0" y1="444.0" x2="204.0" y2="189.0" style="stroke:#b59b0c;stroke-width:1.5;stroke-linejoin:round;stroke-linecap:round;fill-rule: evenodd;" fill="none"/>
<line x1="324.0" y1="309.0" x2="357.0" y2="309.0" style="stroke:#b59b0c;stroke-width:1.5;stroke-linejoin:round;stroke-linecap:round;fill-rule: evenodd;" fill="none"/>
<circle cx="189.0" cy="534.0" r="3.0" style="stroke:#b59b0c;stroke-width:0.33" fill="#b59b0c"/>
<g transform="translate(252.0,381.0) scale(1.0,1.0)"><text x="0.0" y="14.0" font-family="Courier New, monospace" font-size="15.93" font-style="" font-weight="bold" xml:space="preserve" fill="#b59b0c">IC3A</text>
</g>
<circle cx="309.0" cy="459.0" r="3.0" style="stroke:#b59b0c;stroke-width:0.33" fill="#b59b0c"/>
<g transform="translate(360.0,489.0) scale(1.0,1.0)"><text x="0.0" y="14.0" font-family="Courier New, monospace" font-size="15.93" font-style="" font-weight="bold" xml:space="preserve" fill="#b59b0c">C109</text>
</g>
<g transform="translate(360.0,501.0) scale(1.0,1.0)"><text x="0.0" y="14.0" font-family="Courier New, monospace" font-size="15.93" font-style="" font-weight="bold" xml:space="preserve" fill="#b59b0c">0,1uF</text>
</g>
<circle cx="519.0" cy="429.0" r="3.0" style="stroke:#b59b0c;stroke-width:0.33" fill="#b59b0c"/>
<line x1="189.0" y1="504.0" x2="189.0" y2="534.0" style="stroke:#b59b0c;stroke-width:1.5;stroke-linejoin:round;stroke-linecap:round;fill-rule: evenodd;" fill="none"/>
<line x1="219.0" y1="384.0" x2="219.0" y2="399.0" style="stroke:#b59b0c;stroke-width:1.5;stroke-linejoin:round;stroke-linecap:round;fill-rule: evenodd;" fill="none"/>
<circle cx="354.0" cy="519.0" r="3.0" style="stroke:#b59b0c;stroke-width:0.33" fill="#b59b0c"/>
<g transform="translate(318.0,306.0) scale(1.0,1.0)"><text x="0.0" y="14.0" font-family="Courier New, monospace" font-size="15.93" font-style="" font-weight="bold" xml:space="preserve" fill="#b59b0c">C108</text>
</g>
<line x1="399.0" y1="159.0" x2="399.0" y2="339.0" style="stroke:#b59b0c;stroke-width:1.5;stroke-linejoin:round;stroke-linecap:round;fill-rule: evenodd;" fill="none"/>
<circle cx="294.0" cy="339.0" r="3.0" style="stroke:#b59b0c;stroke-width:0.33" fill="#b59b0c"/>
<circle cx="204.0" cy="489.0" r="3.0" style="stroke:#b59b0c;stroke-width:0.33" fill="#b59b0c"/>
<circle cx="318.0" cy="309.0" r="3.0" style="stroke:#b59b0c;stroke-width:0.33" fill="#b59b0c"/>
<line x1="204.0" y1="474.0" x2="204.0" y2="504.0" style="stroke:#b59b0c;stroke-width:1.5;stroke-linejoin:round;stroke-linecap:round;fill-rule: evenodd;" fill="none"/>
<line x1="219.0" y1="354.0" x2="144.0" y2="354.0" style="stroke:#b59b0c;stroke-width:1.5;stroke-linejoin:round;stroke-linecap:round;fill-rule: evenodd;" fill="none"/>
<circle cx="219.0" cy="354.0" r="3.0" style="stroke:#b59b0c;stroke-width:0.33" fill="#b59b0c"/>
<circle cx="294.0" cy="369.0" r="3.0" style="stroke:#b59b0c;stroke-width:0.33" fill="#b59b0c"/>
<circle cx="174.0" cy="354.0" r="3.0" style="stroke:#b59b0c;stroke-width:0.33" fill="#b59b0c"/>
<line x1="174.0" y1="339.0" x2="174.0" y2="354.0" style="stroke:#b59b0c;stroke-width:1.5;stroke-linejoin:round;stroke-linecap:round;fill-rule: evenodd;" fill="none"/>
<line x1="174.0" y1="279.0" x2="174.0" y2="294.0" style="stroke:#b59b0c;stroke-width:1.5;stroke-linejoin:round;stroke-linecap:round;fill-rule: evenodd;" fill="none"/>
<g transform="translate(222.0,477.0) scale(1.0,1.0)"><text x="0.0" y="14.0" font-family="Courier New, monospace" font-size="15.93" font-style="" font-weight="bold" xml:space="preserve" fill="#b59b0c">D113</text>
</g>
<line x1="279.0" y1="324.0" x2="279.0" y2="339.0" style="stroke:#b59b0c;stroke-width:1.5;stroke-linejoin:round;stroke-linecap:round;fill-rule: evenodd;" fill="none"/>
<line x1="534.0" y1="402.0" x2="519.0" y2="402.0" style="stroke:#b59b0c;stroke-width:1.5;stroke-linejoin:round;stroke-linecap:round;fill-rule: evenodd;" fill="none"/>
<line x1="309.0" y1="519.0" x2="294.0" y2="519.0" style="stroke:#b59b0c;stroke-width:1.5;stroke-linejoin:round;stroke-linecap:round;fill-rule: evenodd;" fill="none"/>
</svg>