<?xml version="1.0" encoding="UTF-8" standalone="no"?> 
<!DOCTYPE svg PUBLIC "-//W3C//Dtd SVG 1.1//EN" "http://www.w3.org/Graphics/SVG/1.1/Dtd/svg11.dtd">
<svg width="366.0" height="417.0" version="1.1" xmlns="http://www.w3.org/2000/svg" xmlns:xlink="http://www.w3.org/1999/xlink">
<!-- Created by FidoCadJ ver. 0.24.9 gamma, export filter by Davide Bucci -->
<path d="M 201.0,153.0 C 201.0,120.0 228.0,126.0 243.0,129.0" style="stroke:#000000;stroke-dashoffset: 0.0;stroke-width:1.0499999999999998;fill-rule: evenodd;" fill="none"/>
<path d="M 243.0,129.0 C 258.0,132.0 258.0,108.0 267.0,105.0" style="stroke:#000000;stroke-width:1.0499999999999998;fill-rule: evenodd;" fill="none"/>
<path d="M 267.0,105.0 C 282.0,93.0 303.0,105.0 303.0,111.0" style="stroke:#000000;stroke-width:1.0499999999999998;fill-rule: evenodd;" fill="none"/>
<path d="M 300.0,105.0 C 318.0,129.0 321.0,153.0 312.0,171.0" style="stroke:#000000;stroke-width:1.0499999999999998;fill-rule: evenodd;" fill="none"/>
<path d="M 312.0,171.0 C 300.0,192.0 279.0,186.0 276.0,171.0" style="stroke:#000000;stroke-width:1.0499999999999998;fill-rule: evenodd;" fill="none"/>
<path d="M 276.0,171.0 C 276.0,162.0 279.0,150.0 282.0,138.0" style="stroke:#000000;stroke-width:1.0499999999999998;fill-rule: evenodd;" fill="none"/>
<path d="M 201.0,153.0 C 201.0,177.0 219.0,177.0 249.0,171.0" style="stroke:#000000;stroke-width:1.0499999999999998;fill-rule: evenodd;" fill="none"/>
<path d="M 150.0,258.0 C 126.0,267.0 156.0,282.0 183.0,279.0" style="stroke:#000000;stroke-width:1.0499999999999998;fill-rule: evenodd;" fill="none"/>
<path d="M 246.0,171.0 C 264.0,171.0 264.0,192.0 255.0,195.0" style="stroke:#000000;stroke-width:1.0499999999999998;fill-rule: evenodd;" fill="none"/>
<path d="M 255.0,195.0 C 246.0,204.0 228.0,204.0 225.0,234.0" style="stroke:#000000;stroke-width:1.0499999999999998;fill-rule: evenodd;" fill="none"/>
<path d="M 225.0,234.0 C 216.0,237.0 210.0,237.0 207.0,237.0" style="stroke:#000000;stroke-width:1.0499999999999998;fill-rule: evenodd;" fill="none"/>
<path d="M 207.0,237.0 C 213.0,210.0 204.0,192.0 195.0,207.0" style="stroke:#000000;stroke-width:1.0499999999999998;fill-rule: evenodd;" fill="none"/>
<path d="M 195.0,207.0 C 174.0,246.0 189.0,270.0 201.0,252.0" style="stroke:#000000;stroke-width:1.0499999999999998;fill-rule: evenodd;" fill="none"/>
<path d="M 204.0,168.0 C 195.0,174.0 183.0,162.0 201.0,156.0" style="stroke:#000000;stroke-width:1.0499999999999998;fill-rule: evenodd;" fill="none"/>
<path d="M 201.0,252.0 C 204.0,240.0 210.0,249.0 228.0,246.0" style="stroke:#000000;stroke-width:1.0499999999999998;fill-rule: evenodd;" fill="none"/>
<path d="M 228.0,246.0 C 231.0,255.0 240.0,261.0 255.0,258.0" style="stroke:#000000;stroke-width:1.0499999999999998;fill-rule: evenodd;" fill="none"/>
<path d="M 255.0,258.0 C 264.0,264.0 264.0,270.0 270.0,279.0" style="stroke:#000000;stroke-width:1.0499999999999998;fill-rule: evenodd;" fill="none"/>
<path d="M 270.0,279.0 C 249.0,291.0 237.0,309.0 255.0,312.0" style="stroke:#000000;stroke-width:1.0499999999999998;fill-rule: evenodd;" fill="none"/>
<path d="M 255.0,312.0 C 267.0,312.0 285.0,294.0 294.0,276.0" style="stroke:#000000;stroke-width:1.0499999999999998;fill-rule: evenodd;" fill="none"/>
<path d="M 294.0,276.0 C 300.0,258.0 285.0,267.0 279.0,270.0" style="stroke:#000000;stroke-width:1.0499999999999998;fill-rule: evenodd;" fill="none"/>
<path d="M 279.0,270.0 C 273.0,264.0 270.0,261.0 267.0,255.0" style="stroke:#000000;stroke-width:1.0499999999999998;fill-rule: evenodd;" fill="none"/>
<path d="M 267.0,255.0 C 273.0,249.0 282.0,234.0 276.0,213.0" style="stroke:#000000;stroke-width:1.0499999999999998;fill-rule: evenodd;" fill="none"/>
<path d="M 270.0,192.0 C 294.0,192.0 288.0,201.0 282.0,207.0" style="stroke:#000000;stroke-width:1.0499999999999998;fill-rule: evenodd;" fill="none"/>
<path d="M 285.0,204.0 C 276.0,210.0 264.0,225.0 273.0,234.0" style="stroke:#000000;stroke-width:1.0499999999999998;fill-rule: evenodd;" fill="none"/>
<path d="M 270.0,231.0 C 279.0,237.0 267.0,249.0 258.0,243.0" style="stroke:#000000;stroke-width:1.0499999999999998;fill-rule: evenodd;" fill="none"/>
<path d="M 258.0,243.0 C 249.0,234.0 249.0,222.0 273.0,204.0" style="stroke:#000000;stroke-width:1.0499999999999998;fill-rule: evenodd;" fill="none"/>
<path d="M 57.0,207.0 C 60.0,195.0 81.0,201.0 90.0,204.0" style="stroke:#000000;stroke-width:1.0499999999999998;fill-rule: evenodd;" fill="none"/>
<path d="M 90.0,204.0 C 96.0,201.0 105.0,189.0 84.0,183.0" style="stroke:#000000;stroke-width:1.0499999999999998;fill-rule: evenodd;" fill="none"/>
<path d="M 90.0,177.0 C 99.0,180.0 102.0,186.0 105.0,189.0" style="stroke:#000000;stroke-width:1.0499999999999998;fill-rule: evenodd;" fill="none"/>
<path d="M 96.0,165.0 C 108.0,174.0 108.0,183.0 111.0,189.0" style="stroke:#000000;stroke-width:1.0499999999999998;fill-rule: evenodd;" fill="none"/>
<path d="M 57.0,222.0 C 66.0,210.0 78.0,222.0 96.0,219.0" style="stroke:#000000;stroke-width:1.0499999999999998;fill-rule: evenodd;" fill="none"/>
<path d="M 84.0,219.0 C 93.0,222.0 96.0,231.0 87.0,234.0" style="stroke:#000000;stroke-width:1.0499999999999998;fill-rule: evenodd;" fill="none"/>
<path d="M 90.0,234.0 C 66.0,237.0 66.0,252.0 75.0,264.0" style="stroke:#000000;stroke-width:1.0499999999999998;fill-rule: evenodd;" fill="none"/>
<path d="M 75.0,264.0 C 87.0,276.0 102.0,258.0 105.0,246.0" style="stroke:#000000;stroke-width:1.0499999999999998;fill-rule: evenodd;" fill="none"/>
<path d="M 105.0,246.0 C 108.0,234.0 93.0,228.0 102.0,222.0" style="stroke:#000000;stroke-width:1.0499999999999998;fill-rule: evenodd;" fill="none"/>
<path d="M 102.0,222.0 C 120.0,222.0 126.0,210.0 123.0,198.0" style="stroke:#000000;stroke-width:1.0499999999999998;fill-rule: evenodd;" fill="none"/>
<path d="M 105.0,189.0 C 105.0,180.0 105.0,174.0 102.0,171.0" style="stroke:#000000;stroke-width:1.0499999999999998;fill-rule: evenodd;" fill="none"/>
<path d="M 72.0,261.0 C 60.0,264.0 57.0,267.0 57.0,267.0" style="stroke:#000000;stroke-width:1.0499999999999998;fill-rule: evenodd;" fill="none"/>
<path d="M 69.0,255.0 C 60.0,261.0 54.0,261.0 57.0,261.0" style="stroke:#000000;stroke-width:1.0499999999999998;fill-rule: evenodd;" fill="none"/>
<path d="M 57.0,261.0 C 63.0,237.0 54.0,243.0 51.0,261.0" style="stroke:#000000;stroke-width:1.0499999999999998;fill-rule: evenodd;" fill="none"/>
<path d="M 51.0,258.0 C 42.0,279.0 51.0,279.0 57.0,267.0" style="stroke:#000000;stroke-width:1.0499999999999998;fill-rule: evenodd;" fill="none"/>
<path d="M 57.0,273.0 C 57.0,267.0 57.0,264.0 57.0,264.0" style="stroke:#000000;stroke-width:1.0499999999999998;fill-rule: evenodd;" fill="none"/>
<path d="M 84.0,267.0 C 69.0,279.0 57.0,285.0 45.0,285.0" style="stroke:#000000;stroke-width:1.0499999999999998;fill-rule: evenodd;" fill="none"/>
<path d="M 48.0,285.0 C 60.0,291.0 69.0,294.0 78.0,294.0" style="stroke:#000000;stroke-width:1.0499999999999998;fill-rule: evenodd;" fill="none"/>
<path d="M 78.0,294.0 C 93.0,282.0 93.0,273.0 93.0,267.0" style="stroke:#000000;stroke-width:1.0499999999999998;fill-rule: evenodd;" fill="none"/>
<path d="M 93.0,243.0 C 84.0,249.0 81.0,255.0 81.0,261.0" style="stroke:#000000;stroke-width:1.0499999999999998;fill-rule: evenodd;" fill="none"/>
<path d="M 81.0,261.0 C 90.0,258.0 96.0,255.0 96.0,246.0" style="stroke:#000000;stroke-width:1.0499999999999998;fill-rule: evenodd;" fill="none"/>
<path d="M 57.0,207.0 C 51.0,216.0 51.0,222.0 57.0,222.0" style="stroke:#000000;stroke-width:1.0499999999999998;fill-rule: evenodd;" fill="none"/>
<path d="M 60.0,249.0 C 60.0,240.0 69.0,234.0 60.0,258.0" style="stroke:#000000;stroke-width:1.0499999999999998;fill-rule: evenodd;" fill="none"/>
<path d="M 60.0,282.0 C 78.0,276.0 84.0,273.0 84.0,267.0" style="stroke:#000000;stroke-width:1.0499999999999998;fill-rule: evenodd;" fill="none"/>
<circle cx="96.0" cy="207.0" r="2.25" style="stroke:#000000;stroke-width:0.33" fill="#000000"/>
<line x1="84.0" y1="258.0" x2="93.0" y2="249.0" style="stroke:#000000;stroke-width:1.0499999999999998;fill-rule: evenodd;" fill="none"/>
<line x1="93.0" y1="249.0" x2="96.0" y2="249.0" style="stroke:#000000;stroke-width:1.0499999999999998;fill-rule: evenodd;" fill="none"/>
<path d="M 87.0,261.0 C 96.0,258.0 102.0,255.0 102.0,246.0" style="stroke:#000000;stroke-width:1.0499999999999998;fill-rule: evenodd;" fill="none"/>
<line x1="192.0" y1="216.0" x2="201.0" y2="213.0" style="stroke:#000000;stroke-width:1.0499999999999998;fill-rule: evenodd;" fill="none"/>
<line x1="189.0" y1="225.0" x2="198.0" y2="222.0" style="stroke:#000000;stroke-width:1.0499999999999998;fill-rule: evenodd;" fill="none"/>
<line x1="258.0" y1="300.0" x2="258.0" y2="312.0" style="stroke:#000000;stroke-width:1.0499999999999998;fill-rule: evenodd;" fill="none"/>
<line x1="264.0" y1="297.0" x2="264.0" y2="306.0" style="stroke:#000000;stroke-width:1.0499999999999998;fill-rule: evenodd;" fill="none"/>
<line x1="261.0" y1="237.0" x2="264.0" y2="243.0" style="stroke:#000000;stroke-width:1.0499999999999998;fill-rule: evenodd;" fill="none"/>
<line x1="264.0" y1="234.0" x2="267.0" y2="240.0" style="stroke:#000000;stroke-width:1.0499999999999998;fill-rule: evenodd;" fill="none"/>
<ellipse cx="256.5" cy="135.0" rx="1.5" ry="6.0" style="stroke:#000000;stroke-width:1.0499999999999998;fill-rule: evenodd;" fill="#000000"/>
<path d="M 249.0,117.0 C 261.0,114.0 267.0,117.0 267.0,117.0" style="stroke:#000000;stroke-width:1.0499999999999998;fill-rule: evenodd;" fill="none"/>
<path d="M 129.0,264.0 C 111.0,273.0 153.0,294.0 171.0,291.0" style="stroke:#000000;stroke-width:1.0499999999999998;fill-rule: evenodd;" fill="none"/>
<path d="M 282.0,183.0 C 273.0,186.0 270.0,195.0 273.0,192.0" style="stroke:#000000;stroke-width:1.0499999999999998;fill-rule: evenodd;" fill="none"/>
<line x1="294.0" y1="123.0" x2="285.0" y2="165.0" style="stroke:#000000;stroke-linejoin:round;stroke-linecap:round;stroke-width:15"/>
<line x1="285.0" y1="165.0" x2="288.0" y2="174.0" style="stroke:#000000;stroke-linejoin:round;stroke-linecap:round;stroke-width:15"/>
<line x1="288.0" y1="174.0" x2="294.0" y2="177.0" style="stroke:#000000;stroke-linejoin:round;stroke-linecap:round;stroke-width:15"/>
<line x1="294.0" y1="177.0" x2="297.0" y2="174.0" style="stroke:#000000;stroke-linejoin:round;stroke-linecap:round;stroke-width:15"/>
<line x1="297.0" y1="174.0" x2="303.0" y2="168.0" style="stroke:#000000;stroke-linejoin:round;stroke-linecap:round;stroke-width:15"/>
<line x1="303.0" y1="168.0" x2="306.0" y2="156.0" style="stroke:#000000;stroke-linejoin:round;stroke-linecap:round;stroke-width:15"/>
<line x1="306.0" y1="156.0" x2="309.0" y2="144.0" style="stroke:#000000;stroke-linejoin:round;stroke-linecap:round;stroke-width:15"/>
<line x1="309.0" y1="144.0" x2="300.0" y2="123.0" style="stroke:#000000;stroke-linejoin:round;stroke-linecap:round;stroke-width:15"/>
<line x1="300.0" y1="123.0" x2="297.0" y2="117.0" style="stroke:#000000;stroke-linejoin:round;stroke-linecap:round;stroke-width:15"/>
<line x1="297.0" y1="117.0" x2="297.0" y2="159.0" style="stroke:#000000;stroke-linejoin:round;stroke-linecap:round;stroke-width:15"/>
<circle cx="198.0" cy="159.0" r="2.25" style="stroke:#000000;stroke-width:0.33" fill="#000000"/>
<circle cx="195.0" cy="162.0" r="2.25" style="stroke:#000000;stroke-width:0.33" fill="#000000"/>
<circle cx="198.0" cy="165.0" r="2.25" style="stroke:#000000;stroke-width:0.33" fill="#000000"/>
<circle cx="198.0" cy="162.0" r="2.25" style="stroke:#000000;stroke-width:0.33" fill="#000000"/>
<circle cx="195.0" cy="165.0" r="2.25" style="stroke:#000000;stroke-width:0.33" fill="#000000"/>
<circle cx="198.0" cy="168.0" r="2.25" style="stroke:#000000;stroke-width:0.33" fill="#000000"/>
<line x1="216.0" y1="321.0" x2="204.0" y2="372.0" style="stroke:#000000;stroke-width:1.0499999999999998;fill-rule: evenodd;" fill="none"/>
<line x1="183.0" y1="390.0" x2="183.0" y2="390.0" style="stroke:#000000;stroke-width:1.0499999999999998;fill-rule: evenodd;" fill="none"/>
<line x1="216.0" y1="321.0" x2="345.0" y2="321.0" style="stroke:#000000;stroke-width:1.0499999999999998;fill-rule: evenodd;" fill="none"/>
<line x1="336.0" y1="345.0" x2="219.0" y2="345.0" style="stroke:#000000;stroke-width:1.0499999999999998;fill-rule: evenodd;" fill="none"/>
<line x1="240.0" y1="171.0" x2="255.0" y2="168.0" style="stroke:#000000;stroke-width:1.0499999999999998;fill-rule: evenodd;" fill="none"/>
<line x1="255.0" y1="168.0" x2="258.0" y2="165.0" style="stroke:#000000;stroke-width:1.0499999999999998;fill-rule: evenodd;" fill="none"/>
<line x1="258.0" y1="165.0" x2="261.0" y2="162.0" style="stroke:#000000;stroke-width:1.0499999999999998;fill-rule: evenodd;" fill="none"/>
<line x1="261.0" y1="165.0" x2="261.0" y2="162.0" style="stroke:#000000;stroke-width:1.0499999999999998;fill-rule: evenodd;" fill="none"/>
<ellipse cx="219.0" cy="82.5" rx="9.0" ry="4.5" style="stroke:#000000;stroke-width:1.0499999999999998;fill-rule: evenodd;" fill="none"/>
<ellipse cx="225.0" cy="94.5" rx="6.0" ry="4.5" style="stroke:#000000;stroke-width:1.0499999999999998;fill-rule: evenodd;" fill="none"/>
<path d="M 114.0,168.0 C 114.0,180.0 138.0,192.0 117.0,195.0" style="stroke:#000000;stroke-width:1.0499999999999998;fill-rule: evenodd;" fill="none"/>
<path d="M 345.0,75.0 C 252.0,72.0 150.0,75.0 12.0,75.0" style="stroke:#000000;stroke-width:1.0499999999999998;fill-rule: evenodd;" fill="none"/>
<line x1="258.0" y1="183.0" x2="276.0" y2="186.0" style="stroke:#000000;stroke-linejoin:round;stroke-linecap:round;stroke-width:6"/>
<rect x="12.0" y="12.0" rx="0" ry="0" width="336.0" height="360.0" style="stroke:#000000;stroke-width:1.0499999999999998;fill-rule: evenodd;" fill="none"/>
<path d="M 276.0,222.0 C 273.0,228.0 273.0,231.0 276.0,234.0" style="stroke:#000000;stroke-width:1.0499999999999998;fill-rule: evenodd;" fill="none"/>
<line x1="276.0" y1="231.0" x2="276.0" y2="228.0" style="stroke:#000000;stroke-width:1.0499999999999998;fill-rule: evenodd;" fill="none"/>
<line x1="276.0" y1="228.0" x2="276.0" y2="225.0" style="stroke:#000000;stroke-width:1.0499999999999998;fill-rule: evenodd;" fill="none"/>
<line x1="276.0" y1="225.0" x2="276.0" y2="225.0" style="stroke:#000000;stroke-width:1.0499999999999998;fill-rule: evenodd;" fill="none"/>
<line x1="288.0" y1="228.0" x2="288.0" y2="228.0" style="stroke:#000000;stroke-width:1.0499999999999998;fill-rule: evenodd;" fill="none"/>
<path d="M 72.0,186.0 C 66.0,174.0 39.0,162.0 39.0,153.0" style="stroke:#000000;stroke-width:1.0499999999999998;fill-rule: evenodd;" fill="none"/>
<path d="M 39.0,153.0 C 36.0,144.0 36.0,114.0 60.0,114.0" style="stroke:#000000;stroke-width:1.0499999999999998;fill-rule: evenodd;" fill="none"/>
<path d="M 60.0,114.0 C 78.0,114.0 90.0,120.0 90.0,144.0" style="stroke:#000000;stroke-width:1.0499999999999998;fill-rule: evenodd;" fill="none"/>
<path d="M 90.0,138.0 C 90.0,144.0 84.0,165.0 75.0,168.0" style="stroke:#000000;stroke-width:1.0499999999999998;fill-rule: evenodd;" fill="none"/>
<path d="M 75.0,168.0 C 69.0,168.0 63.0,177.0 72.0,186.0" style="stroke:#000000;stroke-width:1.0499999999999998;fill-rule: evenodd;" fill="none"/>
<g transform="translate(21.0,48.0) scale(1.2954545454545456,1) "><text x="0.0" y="12.0" font-family="Courier New" font-size="12.0" font-style="" font-weigth="" fill="#000000">ANCHE IN QUELLO CUI SEI ABITUATO!</text>
</g>
<rect x="48.0" y="126.0" rx="0" ry="0" width="12.0" height="12.0" style="stroke:#000000;stroke-width:1.0499999999999998;fill-rule: evenodd;" fill="none"/>
<rect x="48.0" y="144.0" rx="0" ry="0" width="12.0" height="12.0" style="stroke:#000000;stroke-width:1.0499999999999998;fill-rule: evenodd;" fill="none"/>
<rect x="66.0" y="126.0" rx="0" ry="0" width="12.0" height="12.0" style="stroke:#000000;stroke-width:1.0499999999999998;fill-rule: evenodd;" fill="none"/>
<rect x="66.0" y="144.0" rx="0" ry="0" width="12.0" height="12.0" style="stroke:#000000;stroke-width:1.0499999999999998;fill-rule: evenodd;" fill="none"/>
<g transform="translate(27.0,27.0) scale(1.2954545454545456,1) "><text x="0.0" y="12.0" font-family="Courier New" font-size="12.0" font-style="" font-weigth="" fill="#000000">QUI FESTEGGIAMO IN TUTTI I MODI.</text>
</g>
<rect x="9.0" y="9.0" rx="0" ry="0" width="342.0" height="399.0" style="stroke:#000000;stroke-width:1.0499999999999998;fill-rule: evenodd;" fill="none"/>
<rect x="12.0" y="375.0" rx="0" ry="0" width="336.0" height="30.0" style="stroke:#000000;stroke-width:1.0499999999999998;fill-rule: evenodd;" fill="none"/>
<g transform="translate(51.0,381.0) scale(1.2954545454545456,1) "><text x="0.0" y="12.0" font-family="Courier New" font-size="12.0" font-style="" font-weigth="bold" fill="#ff0000">Tanti auguri PietroBaima!</text>
</g>
</svg>