<?xml version="1.0" encoding="UTF-8" standalone="no"?> 
<!DOCTYPE svg PUBLIC "-//W3C//Dtd SVG 1.1//EN" "http://www.w3.org/Graphics/SVG/1.1/Dtd/svg11.dtd">
<svg width="800.0" height="455.0" version="1.1" xmlns="http://www.w3.org/2000/svg" xmlns:xlink="http://www.w3.org/1999/xlink">
<!-- Created by FidoCadJ ver. 0.24.9 gamma, export filter by Davide Bucci -->
<rect x="173.5" y="381.5" rx="2.5" ry="2.5" width="39.0" height="65.0" style="stroke:#000080;stroke-width:0.33" fill="#000080"/>
<rect x="238.5" y="381.5" rx="2.5" ry="2.5" width="39.0" height="65.0" style="stroke:#000080;stroke-width:0.33" fill="#000080"/>
<rect x="108.5" y="381.5" rx="2.5" ry="2.5" width="39.0" height="65.0" style="stroke:#000080;stroke-width:0.33" fill="#000080"/>
<circle cx="193.0" cy="414.0" r="9.5" style="stroke:white;stroke-width:0.33" fill="white"/>
<circle cx="258.0" cy="414.0" r="9.5" style="stroke:white;stroke-width:0.33" fill="white"/>
<circle cx="128.0" cy="414.0" r="9.5" style="stroke:white;stroke-width:0.33" fill="white"/>
<ellipse cx="336.0" cy="274.0" rx="19.5" ry="19.5" style="stroke:#000080;stroke-width:0.33" fill="#000080"/>
<ellipse cx="336.0" cy="404.0" rx="19.5" ry="19.5" style="stroke:#000080;stroke-width:0.33" fill="#000080"/>
<circle cx="336.0" cy="274.0" r="6.5" style="stroke:white;stroke-width:0.33" fill="white"/>
<circle cx="336.0" cy="404.0" r="6.5" style="stroke:white;stroke-width:0.33" fill="white"/>
<ellipse cx="43.0" cy="274.0" rx="19.5" ry="19.5" style="stroke:#000080;stroke-width:0.33" fill="#000080"/>
<ellipse cx="43.0" cy="404.0" rx="19.5" ry="19.5" style="stroke:#000080;stroke-width:0.33" fill="#000080"/>
<circle cx="43.0" cy="274.0" r="6.5" style="stroke:white;stroke-width:0.33" fill="white"/>
<circle cx="43.0" cy="404.0" r="6.5" style="stroke:white;stroke-width:0.33" fill="white"/>
<line x1="258.0" y1="414.0" x2="404.0" y2="414.0" style="stroke:#000080;stroke-linejoin:round;stroke-linecap:round;stroke-width:16.0"/>
<line x1="404.0" y1="414.0" x2="434.0" y2="388.0" style="stroke:#000080;stroke-linejoin:round;stroke-linecap:round;stroke-width:16.0"/>
<line x1="190.0" y1="420.0" x2="190.0" y2="257.0" style="stroke:#000080;stroke-linejoin:round;stroke-linecap:round;stroke-width:16.0"/>
<line x1="190.0" y1="257.0" x2="43.0" y2="257.0" style="stroke:#000080;stroke-linejoin:round;stroke-linecap:round;stroke-width:16.0"/>
<line x1="43.0" y1="404.0" x2="76.0" y2="420.0" style="stroke:#000080;stroke-linejoin:round;stroke-linecap:round;stroke-width:16.0"/>
<line x1="76.0" y1="420.0" x2="125.0" y2="420.0" style="stroke:#000080;stroke-linejoin:round;stroke-linecap:round;stroke-width:16.0"/>
<line x1="434.0" y1="388.0" x2="434.0" y2="209.0" style="stroke:#000080;stroke-linejoin:round;stroke-linecap:round;stroke-width:16.0"/>
<g transform="translate(482.0,160.0) scale(1.0,1.0)"><text x="0.0" y="14.0" font-family="Helvetica, sans-serif" font-size="17.64" font-style="" font-weight="" xml:space="preserve" fill="#000080">This text should be exported in layer 1</text>
</g>
<line x1="190.0" y1="257.0" x2="336.0" y2="257.0" style="stroke:#000080;stroke-linejoin:round;stroke-linecap:round;stroke-width:16.0"/>
<ellipse cx="539.5" cy="379.5" rx="40.5" ry="40.5" style="stroke:#000080;stroke-dashoffset: 0.0;stroke-width:0.8130081300813008;stroke-linejoin:round;stroke-linecap:round;fill-rule: evenodd;" fill="#000080"/>
<circle cx="193.0" cy="414.0" r="9.5" style="stroke:white;stroke-width:0.33" fill="white"/>
<circle cx="258.0" cy="414.0" r="9.5" style="stroke:white;stroke-width:0.33" fill="white"/>
<circle cx="128.0" cy="414.0" r="9.5" style="stroke:white;stroke-width:0.33" fill="white"/>
<circle cx="336.0" cy="274.0" r="6.5" style="stroke:white;stroke-width:0.33" fill="white"/>
<circle cx="336.0" cy="404.0" r="6.5" style="stroke:white;stroke-width:0.33" fill="white"/>
<circle cx="43.0" cy="274.0" r="6.5" style="stroke:white;stroke-width:0.33" fill="white"/>
<circle cx="43.0" cy="404.0" r="6.5" style="stroke:white;stroke-width:0.33" fill="white"/>
<circle cx="336.0" cy="274.0" r="8.0" style="stroke:white;stroke-width:0.33" fill="white"/>
</svg>